SolveigDisplay-Italic.ufo
<glyph name="quotedbl" format="1">
  <advance width="294"/>
  <unicode hex="0022"/>
  <outline>
    <contour>
      <point x="110" y="350" type="curve"/>
      <point x="86" y="348" type="line"/>
      <point x="96" y="424"/>
      <point x="100" y="551"/>
      <point x="97" y="578" type="curve"/>
      <point x="123" y="578"/>
      <point x="150" y="583"/>
      <point x="180" y="588" type="curve"/>
      <point x="163" y="543"/>
      <point x="117" y="389"/>
    </contour>
    <contour>
      <point x="246" y="350" type="curve"/>
      <point x="223" y="348" type="line"/>
      <point x="233" y="424"/>
      <point x="236" y="551"/>
      <point x="233" y="578" type="curve"/>
      <point x="260" y="578"/>
      <point x="286" y="583"/>
      <point x="316" y="588" type="curve"/>
      <point x="300" y="543"/>
      <point x="254" y="389"/>
    </contour>
  </outline>
</glyph>
<glyph name="numbersign" format="1">
  <advance width="385"/>
  <unicode hex="0023"/>
  <outline>
    <contour>
      <point x="338" y="582" type="curve"/>
      <point x="329" y="524"/>
      <point x="320" y="473"/>
      <point x="312" y="424" type="curve"/>
      <point x="337" y="424"/>
      <point x="365" y="425"/>
      <point x="384" y="425" type="curve"/>
      <point x="383" y="414"/>
      <point x="379" y="402"/>
      <point x="372" y="392" type="curve"/>
      <point x="350" y="392"/>
      <point x="330" y="393"/>
      <point x="308" y="394" type="curve"/>
      <point x="297" y="330"/>
      <point x="287" y="266"/>
      <point x="278" y="204" type="curve"/>
      <point x="303" y="204"/>
      <point x="330" y="205"/>
      <point x="350" y="205" type="curve"/>
      <point x="349" y="194"/>
      <point x="345" y="181"/>
      <point x="339" y="171" type="curve"/>
      <point x="316" y="171"/>
      <point x="295" y="172"/>
      <point x="273" y="173" type="curve"/>
      <point x="248" y="2" type="line"/>
      <point x="236" y="-2"/>
      <point x="224" y="-6"/>
      <point x="213" y="-3" type="curve"/>
      <point x="241" y="173" type="line"/>
      <point x="203" y="174"/>
      <point x="166" y="174"/>
      <point x="124" y="174" type="curve"/>
      <point x="99" y="2" type="line"/>
      <point x="87" y="-2"/>
      <point x="76" y="-6"/>
      <point x="65" y="-3" type="curve"/>
      <point x="93" y="174" type="line"/>
      <point x="26" y="174" type="line"/>
      <point x="24" y="182"/>
      <point x="31" y="201"/>
      <point x="34" y="206" type="curve"/>
      <point x="54" y="206"/>
      <point x="76" y="206"/>
      <point x="98" y="205" type="curve"/>
      <point x="128" y="395" type="line"/>
      <point x="60" y="395" type="line"/>
      <point x="57" y="403"/>
      <point x="65" y="421"/>
      <point x="68" y="427" type="curve"/>
      <point x="133" y="425" type="line"/>
      <point x="156" y="581" type="line"/>
      <point x="166" y="584"/>
      <point x="184" y="584"/>
      <point x="189" y="582" type="curve"/>
      <point x="180" y="524"/>
      <point x="171" y="474"/>
      <point x="164" y="425" type="curve"/>
      <point x="206" y="424"/>
      <point x="241" y="424"/>
      <point x="280" y="424" type="curve"/>
      <point x="305" y="581" type="line"/>
      <point x="314" y="584"/>
      <point x="333" y="584"/>
    </contour>
    <contour>
      <point x="129" y="205" type="curve"/>
      <point x="171" y="204"/>
      <point x="206" y="204"/>
      <point x="246" y="204" type="curve"/>
      <point x="276" y="394" type="line"/>
      <point x="239" y="395"/>
      <point x="201" y="395"/>
      <point x="159" y="395" type="curve"/>
      <point x="148" y="331"/>
      <point x="139" y="267"/>
    </contour>
  </outline>
</glyph>
<glyph name="dollar" format="1">
  <advance width="416"/>
  <unicode hex="0024"/>
  <outline>
    <contour>
      <point x="176" y="-16" type="curve"/>
      <point x="181" y="20"/>
      <point x="186" y="74"/>
      <point x="186" y="85" type="curve"/>
      <point x="153" y="86"/>
      <point x="80" y="102"/>
      <point x="57" y="109" type="curve"/>
      <point x="58" y="119"/>
      <point x="60" y="126"/>
      <point x="65" y="133" type="curve"/>
      <point x="125" y="119"/>
      <point x="164" y="112"/>
      <point x="201" y="112" type="curve" smooth="yes"/>
      <point x="267" y="112"/>
      <point x="303" y="155"/>
      <point x="303" y="196" type="curve" smooth="yes"/>
      <point x="303" y="235"/>
      <point x="245" y="275"/>
      <point x="208" y="298" type="curve" smooth="yes"/>
      <point x="151" y="335"/>
      <point x="115" y="369"/>
      <point x="115" y="400" type="curve"/>
      <point x="123" y="458"/>
      <point x="181" y="493"/>
      <point x="259" y="509" type="curve"/>
      <point x="264" y="534"/>
      <point x="273" y="574"/>
      <point x="276" y="593" type="curve"/>
      <point x="287" y="597"/>
      <point x="295" y="595"/>
      <point x="302" y="594" type="curve"/>
      <point x="298" y="574"/>
      <point x="295" y="524"/>
      <point x="293" y="510" type="curve"/>
      <point x="302" y="511"/>
      <point x="348" y="508"/>
      <point x="381" y="501" type="curve"/>
      <point x="382" y="494"/>
      <point x="380" y="487"/>
      <point x="375" y="476" type="curve"/>
      <point x="286" y="497"/>
      <point x="184" y="474"/>
      <point x="185" y="414" type="curve" smooth="yes"/>
      <point x="185" y="395"/>
      <point x="222" y="364"/>
      <point x="267" y="337" type="curve" smooth="yes"/>
      <point x="317" y="307"/>
      <point x="373" y="269"/>
      <point x="373" y="220" type="curve" smooth="yes"/>
      <point x="373" y="168"/>
      <point x="320" y="97"/>
      <point x="223" y="86" type="curve"/>
      <point x="217" y="73"/>
      <point x="203" y="3"/>
      <point x="200" y="-16" type="curve"/>
      <point x="192" y="-18"/>
      <point x="183" y="-18"/>
    </contour>
  </outline>
</glyph>
<glyph name="ampersand" format="1">
  <advance width="645"/>
  <unicode hex="0026"/>
  <outline>
    <contour>
      <point x="370" y="596" type="curve"/>
      <point x="377" y="592"/>
      <point x="383" y="588"/>
      <point x="386" y="581" type="curve"/>
      <point x="337" y="539"/>
      <point x="299" y="484"/>
      <point x="299" y="419" type="curve" smooth="yes"/>
      <point x="299" y="343"/>
      <point x="360" y="215"/>
      <point x="405" y="152" type="curve"/>
      <point x="449" y="185"/>
      <point x="492" y="231"/>
      <point x="507" y="251" type="curve"/>
      <point x="543" y="258"/>
      <point x="588" y="267"/>
      <point x="633" y="278" type="curve"/>
      <point x="630" y="272" type="line"/>
      <point x="576" y="236"/>
      <point x="496" y="181"/>
      <point x="419" y="131" type="curve"/>
      <point x="446" y="91"/>
      <point x="494" y="40"/>
      <point x="568" y="4" type="curve"/>
      <point x="570" y="0" type="line"/>
      <point x="527" y="2"/>
      <point x="471" y="2"/>
      <point x="429" y="0" type="curve"/>
      <point x="404" y="23"/>
      <point x="370" y="69"/>
      <point x="356" y="92" type="curve"/>
      <point x="284" y="48"/>
      <point x="191" y="-6"/>
      <point x="130" y="-6" type="curve" smooth="yes"/>
      <point x="77" y="-6"/>
      <point x="7" y="63"/>
      <point x="30" y="170" type="curve"/>
      <point x="53" y="282"/>
      <point x="186" y="327"/>
      <point x="239" y="360" type="curve"/>
      <point x="232" y="389"/>
      <point x="231" y="403"/>
      <point x="231" y="431" type="curve" smooth="yes"/>
      <point x="231" y="484"/>
      <point x="331" y="571"/>
    </contour>
    <contour>
      <point x="246" y="336" type="curve"/>
      <point x="183" y="302"/>
      <point x="121" y="269"/>
      <point x="97" y="191" type="curve"/>
      <point x="75" y="124"/>
      <point x="122" y="50"/>
      <point x="183" y="50" type="curve" smooth="yes"/>
      <point x="215" y="50"/>
      <point x="275" y="72"/>
      <point x="345" y="114" type="curve"/>
      <point x="328" y="139"/>
      <point x="268" y="254"/>
    </contour>
  </outline>
</glyph>
<glyph name="quotesingle" format="1">
  <advance width="157"/>
  <unicode hex="0027"/>
  <outline>
    <contour>
      <point x="109" y="350" type="curve"/>
      <point x="86" y="348" type="line"/>
      <point x="96" y="424"/>
      <point x="100" y="551"/>
      <point x="97" y="578" type="curve"/>
      <point x="123" y="578"/>
      <point x="150" y="583"/>
      <point x="180" y="588" type="curve"/>
      <point x="163" y="543"/>
      <point x="117" y="389"/>
    </contour>
  </outline>
</glyph>
<glyph name="parenleft" format="1">
  <advance width="230"/>
  <unicode hex="0028"/>
  <outline>
    <contour>
      <point x="221" y="616" type="curve"/>
      <point x="231" y="617"/>
      <point x="236" y="614"/>
      <point x="243" y="609" type="curve"/>
      <point x="194" y="513"/>
      <point x="161" y="444"/>
      <point x="136" y="304" type="curve"/>
      <point x="120" y="206"/>
      <point x="118" y="40"/>
      <point x="134" y="-89" type="curve"/>
      <point x="126" y="-94"/>
      <point x="123" y="-97"/>
      <point x="111" y="-97" type="curve"/>
      <point x="79" y="34"/>
      <point x="57" y="192"/>
      <point x="71" y="306" type="curve" smooth="yes"/>
      <point x="84" y="412"/>
      <point x="151" y="512"/>
    </contour>
  </outline>
</glyph>
<glyph name="asterisk" format="1">
  <advance width="416"/>
  <unicode hex="002A"/>
  <outline>
    <contour>
      <point x="333" y="491" type="curve"/>
      <point x="338" y="481"/>
      <point x="338" y="471"/>
      <point x="337" y="464" type="curve"/>
      <point x="321" y="464"/>
      <point x="252" y="454"/>
      <point x="227" y="448" type="curve"/>
      <point x="239" y="419"/>
      <point x="269" y="350"/>
      <point x="276" y="335" type="curve"/>
      <point x="269" y="328"/>
      <point x="261" y="325"/>
      <point x="253" y="323" type="curve"/>
      <point x="247" y="338"/>
      <point x="210" y="411"/>
      <point x="198" y="434" type="curve"/>
      <point x="175" y="414"/>
      <point x="117" y="363"/>
      <point x="105" y="350" type="curve"/>
      <point x="95" y="356"/>
      <point x="88" y="365"/>
      <point x="86" y="370" type="curve"/>
      <point x="98" y="380"/>
      <point x="156" y="439"/>
      <point x="174" y="456" type="curve"/>
      <point x="149" y="474"/>
      <point x="95" y="506"/>
      <point x="81" y="514" type="curve"/>
      <point x="83" y="524"/>
      <point x="88" y="533"/>
      <point x="94" y="537" type="curve"/>
      <point x="107" y="529"/>
      <point x="169" y="497"/>
      <point x="191" y="486" type="curve"/>
      <point x="217" y="601" type="line"/>
      <point x="227" y="602"/>
      <point x="236" y="598"/>
      <point x="243" y="598" type="curve"/>
      <point x="239" y="580"/>
      <point x="226" y="504"/>
      <point x="224" y="481" type="curve"/>
      <point x="254" y="482"/>
      <point x="316" y="489"/>
    </contour>
  </outline>
</glyph>
<glyph name="plus" format="1">
  <advance width="416"/>
  <unicode hex="002B"/>
  <outline>
    <contour>
      <point x="217" y="365" type="curve"/>
      <point x="216" y="315"/>
      <point x="216" y="266"/>
      <point x="216" y="216" type="curve"/>
      <point x="268" y="216"/>
      <point x="321" y="216"/>
      <point x="356" y="217" type="curve"/>
      <point x="357" y="206"/>
      <point x="355" y="194"/>
      <point x="350" y="184" type="curve"/>
      <point x="305" y="186"/>
      <point x="262" y="186"/>
      <point x="216" y="186" type="curve"/>
      <point x="216" y="35" type="line"/>
      <point x="206" y="33"/>
      <point x="196" y="32"/>
      <point x="184" y="32" type="curve"/>
      <point x="185" y="83"/>
      <point x="186" y="135"/>
      <point x="186" y="186" type="curve"/>
      <point x="140" y="187"/>
      <point x="92" y="187"/>
      <point x="37" y="186" type="curve"/>
      <point x="34" y="195"/>
      <point x="38" y="213"/>
      <point x="41" y="219" type="curve"/>
      <point x="85" y="217"/>
      <point x="136" y="216"/>
      <point x="186" y="216" type="curve"/>
      <point x="186" y="364" type="line"/>
      <point x="194" y="365"/>
      <point x="211" y="365"/>
    </contour>
  </outline>
</glyph>
<glyph name="comma" format="1">
  <advance width="209"/>
  <unicode hex="002C"/>
  <outline>
    <contour>
      <point x="79" y="85" type="curve" smooth="yes"/>
      <point x="98" y="85"/>
      <point x="114" y="63"/>
      <point x="114" y="41" type="curve" smooth="yes"/>
      <point x="114" y="0"/>
      <point x="41" y="-117"/>
      <point x="-1" y="-172" type="curve"/>
      <point x="-8" y="-170"/>
      <point x="-14" y="-167"/>
      <point x="-18" y="-161" type="curve"/>
      <point x="22" y="-103"/>
      <point x="47" y="-52"/>
      <point x="45" y="4" type="curve" smooth="yes"/>
      <point x="44" y="15"/>
      <point x="40" y="35"/>
      <point x="40" y="43" type="curve" smooth="yes"/>
      <point x="40" y="72"/>
      <point x="62" y="85"/>
    </contour>
  </outline>
</glyph>
<glyph name="hyphen" format="1">
  <advance width="228"/>
  <unicode hex="002D"/>
  <outline>
    <contour>
      <point x="49" y="269" type="curve"/>
      <point x="79" y="270"/>
      <point x="171" y="286"/>
      <point x="192" y="292" type="curve"/>
      <point x="195" y="280"/>
      <point x="196" y="256"/>
      <point x="192" y="251" type="curve"/>
      <point x="161" y="249"/>
      <point x="79" y="236"/>
      <point x="52" y="230" type="curve"/>
      <point x="48" y="240"/>
      <point x="48" y="257"/>
    </contour>
  </outline>
</glyph>
<glyph name="zero" format="1">
  <advance width="469"/>
  <unicode hex="0030"/>
  <outline>
    <contour>
      <point x="325" y="592" type="curve" smooth="yes"/>
      <point x="363" y="592"/>
      <point x="456" y="564"/>
      <point x="446" y="357" type="curve"/>
      <point x="443" y="270"/>
      <point x="417" y="154"/>
      <point x="333" y="57" type="curve" smooth="yes"/>
      <point x="317" y="37"/>
      <point x="239" y="-12"/>
      <point x="186" y="-12" type="curve" smooth="yes"/>
      <point x="47" y="-12"/>
      <point x="30" y="127"/>
      <point x="37" y="215" type="curve" smooth="yes"/>
      <point x="51" y="376"/>
      <point x="102" y="474"/>
      <point x="170" y="534" type="curve" smooth="yes"/>
      <point x="212" y="572"/>
      <point x="280" y="592"/>
    </contour>
    <contour>
      <point x="290" y="558" type="curve" smooth="yes"/>
      <point x="215" y="558"/>
      <point x="112" y="434"/>
      <point x="102" y="220" type="curve" smooth="yes"/>
      <point x="97" y="112"/>
      <point x="136" y="26"/>
      <point x="214" y="26" type="curve" smooth="yes"/>
      <point x="314" y="26"/>
      <point x="376" y="231"/>
      <point x="380" y="335" type="curve" smooth="yes"/>
      <point x="385" y="460"/>
      <point x="361" y="558"/>
    </contour>
  </outline>
</glyph>
<glyph name="one" format="1">
  <advance width="345"/>
  <unicode hex="0031"/>
  <outline>
    <contour>
      <point x="114" y="-7" type="curve"/>
      <point x="171" y="173"/>
      <point x="206" y="405"/>
      <point x="223" y="521" type="curve"/>
      <point x="174" y="521"/>
      <point x="122" y="510"/>
      <point x="76" y="500" type="curve"/>
      <point x="72" y="504"/>
      <point x="69" y="516"/>
      <point x="69" y="520" type="curve"/>
      <point x="114" y="531"/>
      <point x="232" y="568"/>
      <point x="294" y="593" type="curve"/>
      <point x="304" y="589"/>
      <point x="303" y="592"/>
      <point x="310" y="584" type="curve"/>
      <point x="277" y="480"/>
      <point x="224" y="210"/>
      <point x="211" y="3" type="curve"/>
      <point x="172" y="2"/>
      <point x="153" y="1"/>
    </contour>
  </outline>
</glyph>
<glyph name="two" format="1">
  <advance width="414"/>
  <unicode hex="0032"/>
  <outline>
    <contour>
      <point x="93" y="552" type="curve"/>
      <point x="155" y="573"/>
      <point x="228" y="591"/>
      <point x="278" y="591" type="curve"/>
      <point x="339" y="593"/>
      <point x="395" y="560"/>
      <point x="395" y="492" type="curve" smooth="yes"/>
      <point x="395" y="405"/>
      <point x="218" y="207"/>
      <point x="93" y="91" type="curve"/>
      <point x="158" y="69"/>
      <point x="312" y="57"/>
      <point x="375" y="68" type="curve"/>
      <point x="360" y="37"/>
      <point x="355" y="10"/>
      <point x="354" y="-9" type="curve"/>
      <point x="256" y="-12"/>
      <point x="127" y="7"/>
      <point x="55" y="39" type="curve"/>
      <point x="22" y="20"/>
      <point x="6" y="4"/>
      <point x="-24" y="-17" type="curve"/>
      <point x="-30" y="-17"/>
      <point x="-37" y="-12"/>
      <point x="-40" y="-6" type="curve"/>
      <point x="72" y="111"/>
      <point x="324" y="317"/>
      <point x="324" y="483" type="curve" smooth="yes"/>
      <point x="324" y="533"/>
      <point x="275" y="550"/>
      <point x="222" y="550" type="curve" smooth="yes"/>
      <point x="187" y="550"/>
      <point x="134" y="541"/>
      <point x="99" y="531" type="curve"/>
      <point x="94" y="537"/>
      <point x="93" y="543"/>
    </contour>
  </outline>
</glyph>
<glyph name="three" format="1">
  <advance width="386"/>
  <unicode hex="0033"/>
  <outline>
    <contour>
      <point x="81" y="560" type="curve"/>
      <point x="127" y="578"/>
      <point x="200" y="590"/>
      <point x="239" y="590" type="curve" smooth="yes"/>
      <point x="301" y="590"/>
      <point x="356" y="570"/>
      <point x="356" y="505" type="curve" smooth="yes"/>
      <point x="356" y="447"/>
      <point x="304" y="406"/>
      <point x="223" y="368" type="curve"/>
      <point x="316" y="368"/>
      <point x="355" y="327"/>
      <point x="355" y="254" type="curve" smooth="yes"/>
      <point x="355" y="141"/>
      <point x="161" y="16"/>
      <point x="2" y="-21" type="curve"/>
      <point x="-7" y="-16"/>
      <point x="-6" y="-11"/>
      <point x="-11" y="-2" type="curve"/>
      <point x="128" y="34"/>
      <point x="284" y="158"/>
      <point x="284" y="248" type="curve" smooth="yes"/>
      <point x="284" y="304"/>
      <point x="241" y="342"/>
      <point x="174" y="342" type="curve" smooth="yes"/>
      <point x="151" y="342"/>
      <point x="136" y="339"/>
      <point x="126" y="337" type="curve"/>
      <point x="122" y="343"/>
      <point x="119" y="352"/>
      <point x="121" y="360" type="curve"/>
      <point x="213" y="380"/>
      <point x="284" y="424"/>
      <point x="284" y="492" type="curve" smooth="yes"/>
      <point x="284" y="539"/>
      <point x="248" y="558"/>
      <point x="203" y="558" type="curve" smooth="yes"/>
      <point x="172" y="558"/>
      <point x="118" y="548"/>
      <point x="88" y="539" type="curve"/>
      <point x="83" y="543"/>
      <point x="81" y="555"/>
    </contour>
  </outline>
</glyph>
<glyph name="four" format="1">
  <advance width="422"/>
  <unicode hex="0034"/>
  <outline>
    <contour>
      <point x="231" y="-2" type="curve"/>
      <point x="250" y="43"/>
      <point x="265" y="130"/>
      <point x="277" y="201" type="curve"/>
      <point x="200" y="204"/>
      <point x="82" y="205"/>
      <point x="24" y="203" type="curve"/>
      <point x="18" y="207"/>
      <point x="16" y="212"/>
      <point x="13" y="220" type="curve"/>
      <point x="105" y="324"/>
      <point x="266" y="523"/>
      <point x="336" y="605" type="curve"/>
      <point x="341" y="602"/>
      <point x="349" y="594"/>
      <point x="354" y="588" type="curve"/>
      <point x="266" y="485"/>
      <point x="150" y="339"/>
      <point x="68" y="232" type="curve"/>
      <point x="130" y="228"/>
      <point x="231" y="229"/>
      <point x="281" y="228" type="curve"/>
      <point x="287" y="256"/>
      <point x="302" y="322"/>
      <point x="303" y="374" type="curve"/>
      <point x="330" y="380"/>
      <point x="360" y="385"/>
      <point x="388" y="398" type="curve"/>
      <point x="373" y="360"/>
      <point x="364" y="329"/>
      <point x="345" y="229" type="curve"/>
      <point x="360" y="229"/>
      <point x="373" y="230"/>
      <point x="391" y="232" type="curve"/>
      <point x="390" y="216"/>
      <point x="388" y="212"/>
      <point x="382" y="200" type="curve"/>
      <point x="340" y="200" type="line"/>
      <point x="333" y="166"/>
      <point x="316" y="50"/>
      <point x="315" y="-1" type="curve"/>
      <point x="291" y="2"/>
      <point x="262" y="6"/>
    </contour>
  </outline>
</glyph>
<glyph name="five" format="1">
  <advance width="356"/>
  <unicode hex="0035"/>
  <outline>
    <contour>
      <point x="125" y="585" type="curve"/>
      <point x="130" y="588"/>
      <point x="143" y="588"/>
      <point x="152" y="586" type="curve"/>
      <point x="149" y="578"/>
      <point x="146" y="568"/>
      <point x="144" y="560" type="curve"/>
      <point x="231" y="554"/>
      <point x="305" y="574"/>
      <point x="362" y="591" type="curve"/>
      <point x="342" y="562"/>
      <point x="316" y="517"/>
      <point x="310" y="504" type="curve"/>
      <point x="277" y="497"/>
      <point x="176" y="495"/>
      <point x="127" y="502" type="curve"/>
      <point x="120" y="482"/>
      <point x="107" y="442"/>
      <point x="102" y="424" type="curve"/>
      <point x="209" y="410"/>
      <point x="322" y="366"/>
      <point x="322" y="268" type="curve" smooth="yes"/>
      <point x="322" y="128"/>
      <point x="163" y="20"/>
      <point x="58" y="-22" type="curve"/>
      <point x="53" y="-17"/>
      <point x="50" y="-12"/>
      <point x="48" y="-1" type="curve"/>
      <point x="126" y="29"/>
      <point x="258" y="125"/>
      <point x="258" y="253" type="curve" smooth="yes"/>
      <point x="258" y="347"/>
      <point x="96" y="370"/>
      <point x="54" y="370" type="curve"/>
      <point x="82" y="425"/>
      <point x="116" y="539"/>
    </contour>
  </outline>
</glyph>
<glyph name="six" format="1">
  <advance width="438"/>
  <unicode hex="0036"/>
  <outline>
    <contour>
      <point x="352" y="592" type="curve"/>
      <point x="360" y="589"/>
      <point x="363" y="581"/>
      <point x="367" y="576" type="curve"/>
      <point x="303" y="534"/>
      <point x="102" y="340"/>
      <point x="102" y="156" type="curve" smooth="yes"/>
      <point x="102" y="51"/>
      <point x="151" y="15"/>
      <point x="207" y="15" type="curve" smooth="yes"/>
      <point x="282" y="15"/>
      <point x="332" y="91"/>
      <point x="332" y="157" type="curve" smooth="yes"/>
      <point x="332" y="216"/>
      <point x="293" y="251"/>
      <point x="252" y="251" type="curve" smooth="yes"/>
      <point x="223" y="251"/>
      <point x="204" y="248"/>
      <point x="177" y="241" type="curve"/>
      <point x="171" y="248"/>
      <point x="169" y="253"/>
      <point x="167" y="262" type="curve"/>
      <point x="208" y="277"/>
      <point x="248" y="283"/>
      <point x="276" y="283" type="curve" smooth="yes"/>
      <point x="362" y="283"/>
      <point x="399" y="231"/>
      <point x="399" y="176" type="curve" smooth="yes"/>
      <point x="399" y="62"/>
      <point x="280" y="-17"/>
      <point x="185" y="-17" type="curve" smooth="yes"/>
      <point x="84" y="-17"/>
      <point x="28" y="36"/>
      <point x="28" y="149" type="curve" smooth="yes"/>
      <point x="28" y="311"/>
      <point x="266" y="538"/>
    </contour>
  </outline>
</glyph>
<glyph name="seven" format="1">
  <advance width="416"/>
  <unicode hex="0037"/>
  <outline>
    <contour>
      <point x="53" y="-27" type="curve"/>
      <point x="150" y="175"/>
      <point x="249" y="326"/>
      <point x="370" y="493" type="curve"/>
      <point x="300" y="492"/>
      <point x="148" y="494"/>
      <point x="66" y="499" type="curve"/>
      <point x="77" y="518"/>
      <point x="92" y="561"/>
      <point x="95" y="593" type="curve"/>
      <point x="186" y="571"/>
      <point x="269" y="555"/>
      <point x="396" y="545" type="curve"/>
      <point x="425" y="568"/>
      <point x="433" y="578"/>
      <point x="452" y="596" type="curve"/>
      <point x="459" y="596"/>
      <point x="466" y="595"/>
      <point x="474" y="591" type="curve"/>
      <point x="365" y="467"/>
      <point x="195" y="196"/>
      <point x="146" y="12" type="curve"/>
      <point x="129" y="7"/>
      <point x="67" y="-12"/>
    </contour>
  </outline>
</glyph>
<glyph name="eight" format="1">
  <advance width="454"/>
  <unicode hex="0038"/>
  <outline>
    <contour>
      <point x="348" y="578" type="curve"/>
      <point x="346" y="570"/>
      <point x="344" y="564"/>
      <point x="340" y="556" type="curve"/>
      <point x="265" y="578"/>
      <point x="181" y="537"/>
      <point x="181" y="469" type="curve" smooth="yes"/>
      <point x="181" y="439"/>
      <point x="198" y="419"/>
      <point x="269" y="389" type="curve"/>
      <point x="354" y="451"/>
      <point x="402" y="524"/>
      <point x="434" y="604" type="curve"/>
      <point x="441" y="611"/>
      <point x="459" y="607"/>
      <point x="459" y="605" type="curve" smooth="yes"/>
      <point x="433" y="483"/>
      <point x="390" y="455"/>
      <point x="296" y="378" type="curve"/>
      <point x="346" y="356"/>
      <point x="413" y="318"/>
      <point x="416" y="225" type="curve"/>
      <point x="416" y="100"/>
      <point x="310" y="-11"/>
      <point x="186" y="-11" type="curve" smooth="yes"/>
      <point x="71" y="-11"/>
      <point x="27" y="64"/>
      <point x="27" y="125" type="curve" smooth="yes"/>
      <point x="27" y="219"/>
      <point x="132" y="310"/>
      <point x="201" y="349" type="curve"/>
      <point x="169" y="365"/>
      <point x="119" y="396"/>
      <point x="119" y="451" type="curve" smooth="yes"/>
      <point x="119" y="526"/>
      <point x="208" y="588"/>
      <point x="287" y="588" type="curve" smooth="yes"/>
      <point x="305" y="588"/>
      <point x="332" y="581"/>
    </contour>
    <contour>
      <point x="227" y="337" type="curve"/>
      <point x="140" y="282"/>
      <point x="92" y="215"/>
      <point x="92" y="146" type="curve" smooth="yes"/>
      <point x="93" y="67"/>
      <point x="142" y="23"/>
      <point x="201" y="24" type="curve" smooth="yes"/>
      <point x="293" y="25"/>
      <point x="355" y="81"/>
      <point x="354" y="194" type="curve" smooth="yes"/>
      <point x="353" y="263"/>
      <point x="300" y="301"/>
    </contour>
  </outline>
</glyph>
<glyph name="nine" format="1">
  <advance width="438"/>
  <unicode hex="0039"/>
  <outline>
    <contour>
      <point x="104" y="-17" type="curve"/>
      <point x="97" y="-15"/>
      <point x="92" y="-5"/>
      <point x="88" y="0" type="curve"/>
      <point x="153" y="42"/>
      <point x="355" y="234"/>
      <point x="355" y="418" type="curve" smooth="yes"/>
      <point x="355" y="524"/>
      <point x="307" y="558"/>
      <point x="251" y="558" type="curve" smooth="yes"/>
      <point x="176" y="558"/>
      <point x="126" y="484"/>
      <point x="126" y="417" type="curve" smooth="yes"/>
      <point x="126" y="359"/>
      <point x="165" y="324"/>
      <point x="206" y="324" type="curve" smooth="yes"/>
      <point x="235" y="324"/>
      <point x="253" y="326"/>
      <point x="281" y="333" type="curve"/>
      <point x="287" y="325"/>
      <point x="289" y="321"/>
      <point x="290" y="312" type="curve"/>
      <point x="250" y="297"/>
      <point x="210" y="291"/>
      <point x="181" y="291" type="curve" smooth="yes"/>
      <point x="96" y="291"/>
      <point x="59" y="344"/>
      <point x="59" y="399" type="curve" smooth="yes"/>
      <point x="59" y="512"/>
      <point x="177" y="592"/>
      <point x="273" y="592" type="curve" smooth="yes"/>
      <point x="374" y="592"/>
      <point x="429" y="538"/>
      <point x="429" y="425" type="curve" smooth="yes"/>
      <point x="429" y="263"/>
      <point x="191" y="37"/>
    </contour>
  </outline>
</glyph>
<glyph name="colon" format="1">
  <advance width="221"/>
  <unicode hex="003A"/>
  <outline>
    <contour>
      <point x="87" y="63" type="curve" smooth="yes"/>
      <point x="115" y="63"/>
      <point x="129" y="51"/>
      <point x="129" y="32" type="curve" smooth="yes"/>
      <point x="129" y="7"/>
      <point x="99" y="-7"/>
      <point x="72" y="-7" type="curve" smooth="yes"/>
      <point x="52" y="-7"/>
      <point x="37" y="4"/>
      <point x="37" y="22" type="curve" smooth="yes"/>
      <point x="37" y="43"/>
      <point x="62" y="63"/>
    </contour>
    <contour>
      <point x="138" y="338" type="curve" smooth="yes"/>
      <point x="166" y="338"/>
      <point x="180" y="325"/>
      <point x="180" y="306" type="curve" smooth="yes"/>
      <point x="180" y="282"/>
      <point x="150" y="268"/>
      <point x="123" y="268" type="curve" smooth="yes"/>
      <point x="103" y="268"/>
      <point x="87" y="279"/>
      <point x="87" y="296" type="curve" smooth="yes"/>
      <point x="87" y="318"/>
      <point x="112" y="338"/>
    </contour>
  </outline>
</glyph>
<glyph name="semicolon" format="1">
  <advance width="221"/>
  <unicode hex="003B"/>
  <outline>
    <contour>
      <point x="91" y="85" type="curve" smooth="yes"/>
      <point x="110" y="85"/>
      <point x="126" y="63"/>
      <point x="126" y="41" type="curve" smooth="yes"/>
      <point x="126" y="0"/>
      <point x="52" y="-117"/>
      <point x="11" y="-172" type="curve"/>
      <point x="3" y="-170"/>
      <point x="-2" y="-167"/>
      <point x="-7" y="-161" type="curve"/>
      <point x="33" y="-103"/>
      <point x="59" y="-52"/>
      <point x="57" y="4" type="curve" smooth="yes"/>
      <point x="56" y="15"/>
      <point x="52" y="35"/>
      <point x="52" y="43" type="curve" smooth="yes"/>
      <point x="52" y="72"/>
      <point x="74" y="85"/>
    </contour>
    <contour>
      <point x="138" y="338" type="curve" smooth="yes"/>
      <point x="166" y="338"/>
      <point x="180" y="325"/>
      <point x="180" y="306" type="curve" smooth="yes"/>
      <point x="180" y="282"/>
      <point x="150" y="268"/>
      <point x="123" y="268" type="curve" smooth="yes"/>
      <point x="103" y="268"/>
      <point x="87" y="279"/>
      <point x="87" y="296" type="curve" smooth="yes"/>
      <point x="87" y="318"/>
      <point x="112" y="338"/>
    </contour>
  </outline>
</glyph>
<glyph name="less" format="1">
  <advance width="388"/>
  <unicode hex="003C"/>
  <outline>
    <contour>
      <point x="33" y="212" type="curve"/>
      <point x="131" y="263"/>
      <point x="261" y="337"/>
      <point x="301" y="362" type="curve"/>
      <point x="310" y="354"/>
      <point x="314" y="343"/>
      <point x="317" y="333" type="curve"/>
      <point x="261" y="302"/>
      <point x="143" y="237"/>
      <point x="87" y="205" type="curve"/>
      <point x="146" y="171"/>
      <point x="256" y="102"/>
      <point x="317" y="67" type="curve"/>
      <point x="313" y="57"/>
      <point x="305" y="46"/>
      <point x="294" y="39" type="curve"/>
      <point x="240" y="74"/>
      <point x="125" y="145"/>
      <point x="33" y="196" type="curve"/>
      <point x="32" y="201"/>
      <point x="32" y="207"/>
    </contour>
  </outline>
</glyph>
<glyph name="equal" format="1">
  <advance width="388"/>
  <unicode hex="003D"/>
  <outline>
    <contour>
      <point x="34" y="295" type="curve"/>
      <point x="135" y="292"/>
      <point x="275" y="292"/>
      <point x="350" y="293" type="curve"/>
      <point x="350" y="282"/>
      <point x="349" y="271"/>
      <point x="344" y="261" type="curve"/>
      <point x="247" y="264"/>
      <point x="156" y="265"/>
      <point x="31" y="264" type="curve"/>
      <point x="27" y="272"/>
      <point x="32" y="289"/>
    </contour>
    <contour>
      <point x="34" y="185" type="curve"/>
      <point x="135" y="182"/>
      <point x="275" y="182"/>
      <point x="350" y="183" type="curve"/>
      <point x="350" y="172"/>
      <point x="349" y="161"/>
      <point x="344" y="151" type="curve"/>
      <point x="247" y="154"/>
      <point x="156" y="155"/>
      <point x="31" y="154" type="curve"/>
      <point x="27" y="162"/>
      <point x="32" y="179"/>
    </contour>
  </outline>
</glyph>
<glyph name="greater" format="1">
  <advance width="388"/>
  <unicode hex="003E"/>
  <outline>
    <contour>
      <point x="341" y="189" type="curve"/>
      <point x="244" y="138"/>
      <point x="113" y="64"/>
      <point x="73" y="39" type="curve"/>
      <point x="64" y="47"/>
      <point x="61" y="58"/>
      <point x="57" y="68" type="curve"/>
      <point x="113" y="99"/>
      <point x="231" y="164"/>
      <point x="287" y="196" type="curve"/>
      <point x="229" y="231"/>
      <point x="118" y="299"/>
      <point x="57" y="334" type="curve"/>
      <point x="62" y="344"/>
      <point x="69" y="355"/>
      <point x="81" y="362" type="curve"/>
      <point x="135" y="327"/>
      <point x="250" y="256"/>
      <point x="341" y="205" type="curve"/>
      <point x="343" y="200"/>
      <point x="343" y="194"/>
    </contour>
  </outline>
</glyph>
<glyph name="question" format="1">
  <advance width="240"/>
  <unicode hex="003F"/>
  <outline>
    <contour>
      <point x="94" y="63" type="curve" smooth="yes"/>
      <point x="122" y="63"/>
      <point x="136" y="51"/>
      <point x="136" y="32" type="curve" smooth="yes"/>
      <point x="135" y="7"/>
      <point x="105" y="-7"/>
      <point x="78" y="-7" type="curve" smooth="yes"/>
      <point x="58" y="-7"/>
      <point x="42" y="4"/>
      <point x="43" y="22" type="curve"/>
      <point x="43" y="43"/>
      <point x="68" y="63"/>
    </contour>
    <contour>
      <point x="102" y="144" type="curve"/>
      <point x="94" y="165"/>
      <point x="72" y="223"/>
      <point x="73" y="261" type="curve" smooth="yes"/>
      <point x="75" y="316"/>
      <point x="159" y="361"/>
      <point x="161" y="423" type="curve" smooth="yes"/>
      <point x="163" y="478"/>
      <point x="141" y="545"/>
      <point x="125" y="587" type="curve"/>
      <point x="133" y="592"/>
      <point x="137" y="594"/>
      <point x="145" y="595" type="curve"/>
      <point x="159" y="563"/>
      <point x="214" y="439"/>
      <point x="212" y="399" type="curve"/>
      <point x="210" y="306"/>
      <point x="118" y="292"/>
      <point x="116" y="199" type="curve" smooth="yes"/>
      <point x="115" y="178"/>
      <point x="120" y="164"/>
      <point x="124" y="151" type="curve"/>
      <point x="117" y="146"/>
      <point x="113" y="144"/>
    </contour>
  </outline>
</glyph>
<glyph name="at" format="1">
  <advance width="712"/>
  <unicode hex="0040"/>
  <outline>
    <contour>
      <point x="436" y="-122" type="curve"/>
      <point x="448" y="-146" type="line"/>
      <point x="412" y="-158"/>
      <point x="334" y="-180"/>
      <point x="296" y="-180" type="curve" smooth="yes"/>
      <point x="114" y="-180"/>
      <point x="28" y="-63"/>
      <point x="28" y="113" type="curve" smooth="yes"/>
      <point x="28" y="382"/>
      <point x="262" y="558"/>
      <point x="470" y="558" type="curve" smooth="yes"/>
      <point x="578" y="558"/>
      <point x="694" y="505"/>
      <point x="694" y="344" type="curve" smooth="yes"/>
      <point x="694" y="206"/>
      <point x="611" y="110"/>
      <point x="444" y="-12" type="curve"/>
      <point x="424" y="2"/>
      <point x="406" y="47"/>
      <point x="406" y="95" type="curve" smooth="yes"/>
      <point x="406" y="113"/>
      <point x="409" y="136"/>
      <point x="412" y="154" type="curve"/>
      <point x="357" y="114"/>
      <point x="275" y="39"/>
      <point x="220" y="-12" type="curve"/>
      <point x="199" y="2"/>
      <point x="183" y="47"/>
      <point x="183" y="95" type="curve" smooth="yes"/>
      <point x="183" y="185"/>
      <point x="236" y="285"/>
      <point x="299" y="337" type="curve" smooth="yes"/>
      <point x="344" y="374"/>
      <point x="402" y="384"/>
      <point x="427" y="385" type="curve"/>
      <point x="470" y="385"/>
      <point x="504" y="385"/>
      <point x="538" y="384" type="curve"/>
      <point x="519" y="361"/>
      <point x="491" y="262"/>
      <point x="477" y="168" type="curve" smooth="yes"/>
      <point x="472" y="133"/>
      <point x="475" y="91"/>
      <point x="493" y="62" type="curve"/>
      <point x="578" y="122"/>
      <point x="661" y="211"/>
      <point x="661" y="344" type="curve" smooth="yes"/>
      <point x="661" y="477"/>
      <point x="566" y="529"/>
      <point x="464" y="529" type="curve" smooth="yes"/>
      <point x="260" y="529"/>
      <point x="63" y="358"/>
      <point x="63" y="117" type="curve" smooth="yes"/>
      <point x="63" y="-49"/>
      <point x="145" y="-148"/>
      <point x="301" y="-148" type="curve" smooth="yes"/>
      <point x="339" y="-148"/>
      <point x="412" y="-129"/>
    </contour>
    <contour>
      <point x="454" y="357" type="curve"/>
      <point x="411" y="362"/>
      <point x="365" y="351"/>
      <point x="330" y="322" type="curve"/>
      <point x="276" y="275"/>
      <point x="250" y="199"/>
      <point x="250" y="147" type="curve" smooth="yes"/>
      <point x="250" y="117"/>
      <point x="252" y="95"/>
      <point x="265" y="70" type="curve"/>
      <point x="295" y="91"/>
      <point x="403" y="174"/>
      <point x="422" y="193" type="curve"/>
      <point x="430" y="219"/>
      <point x="454" y="325"/>
    </contour>
  </outline>
</glyph>
<glyph name="B" format="1">
  <advance width="513"/>
  <unicode hex="0042"/>
  <outline>
    <contour>
      <point x="127" y="583" type="curve"/>
      <point x="194" y="578"/>
      <point x="286" y="588"/>
      <point x="359" y="583" type="curve"/>
      <point x="422" y="580"/>
      <point x="478" y="553"/>
      <point x="468" y="496" type="curve" smooth="yes"/>
      <point x="461" y="458"/>
      <point x="418" y="391"/>
      <point x="348" y="343" type="curve"/>
      <point x="349" y="340" type="line"/>
      <point x="445" y="343"/>
      <point x="488" y="310"/>
      <point x="488" y="240" type="curve" smooth="yes"/>
      <point x="488" y="141"/>
      <point x="353" y="7"/>
      <point x="171" y="-2" type="curve"/>
      <point x="136" y="-2"/>
      <point x="70" y="-4"/>
      <point x="32" y="-1" type="curve"/>
      <point x="57" y="75"/>
      <point x="127" y="502"/>
    </contour>
    <contour>
      <point x="199" y="556" type="curve"/>
      <point x="161" y="349"/>
      <point x="139" y="215"/>
      <point x="116" y="27" type="curve"/>
      <point x="126" y="25"/>
      <point x="161" y="24"/>
      <point x="180" y="25" type="curve" smooth="yes"/>
      <point x="232" y="27"/>
      <point x="387" y="79"/>
      <point x="406" y="222" type="curve"/>
      <point x="417" y="290"/>
      <point x="374" y="313"/>
      <point x="330" y="313" type="curve" smooth="yes"/>
      <point x="313" y="313"/>
      <point x="278" y="303"/>
      <point x="262" y="298" type="curve"/>
      <point x="259" y="304"/>
      <point x="256" y="312"/>
      <point x="256" y="320" type="curve"/>
      <point x="318" y="344"/>
      <point x="379" y="395"/>
      <point x="390" y="462" type="curve" smooth="yes"/>
      <point x="400" y="529"/>
      <point x="361" y="553"/>
      <point x="276" y="558" type="curve" smooth="yes"/>
      <point x="255" y="559"/>
      <point x="225" y="558"/>
    </contour>
  </outline>
</glyph>
<glyph name="D" format="1">
  <advance width="552"/>
  <unicode hex="0044"/>
  <outline>
    <contour>
      <point x="296" y="582" type="curve" smooth="yes"/>
      <point x="484" y="580"/>
      <point x="555" y="458"/>
      <point x="543" y="363" type="curve"/>
      <point x="509" y="122"/>
      <point x="285" y="12"/>
      <point x="127" y="2" type="curve" smooth="yes"/>
      <point x="88" y="-1"/>
      <point x="64" y="-3"/>
      <point x="34" y="-2" type="curve"/>
      <point x="54" y="56"/>
      <point x="131" y="502"/>
      <point x="117" y="583" type="curve"/>
      <point x="157" y="581"/>
      <point x="269" y="582"/>
    </contour>
    <contour>
      <point x="198" y="554" type="curve"/>
      <point x="171" y="404"/>
      <point x="122" y="88"/>
      <point x="129" y="30" type="curve"/>
      <point x="365" y="53"/>
      <point x="454" y="236"/>
      <point x="467" y="343" type="curve" smooth="yes"/>
      <point x="479" y="440"/>
      <point x="421" y="538"/>
      <point x="295" y="551" type="curve" smooth="yes"/>
      <point x="260" y="554"/>
      <point x="221" y="556"/>
    </contour>
  </outline>
</glyph>
<glyph name="E" format="1">
  <advance width="449"/>
  <unicode hex="0045"/>
  <outline>
    <contour>
      <point x="117" y="583" type="curve"/>
      <point x="201" y="579"/>
      <point x="331" y="578"/>
      <point x="447" y="581" type="curve"/>
      <point x="440" y="556" type="line"/>
      <point x="339" y="553"/>
      <point x="288" y="553"/>
      <point x="194" y="546" type="curve"/>
      <point x="184" y="507"/>
      <point x="162" y="375"/>
      <point x="159" y="352" type="curve"/>
      <point x="236" y="353"/>
      <point x="330" y="356"/>
      <point x="408" y="364" type="curve"/>
      <point x="404" y="340" type="line"/>
      <point x="348" y="335"/>
      <point x="220" y="323"/>
      <point x="153" y="316" type="curve"/>
      <point x="142" y="257"/>
      <point x="117" y="105"/>
      <point x="122" y="41" type="curve"/>
      <point x="195" y="31"/>
      <point x="310" y="25"/>
      <point x="426" y="20" type="curve"/>
      <point x="423" y="-4" type="line"/>
      <point x="188" y="-1"/>
      <point x="130" y="1"/>
      <point x="16" y="-2" type="curve"/>
      <point x="62" y="82"/>
      <point x="131" y="515"/>
    </contour>
  </outline>
</glyph>
<glyph name="F" format="1">
  <advance width="439"/>
  <unicode hex="0046"/>
  <outline>
    <contour>
      <point x="481" y="585" type="curve"/>
      <point x="474" y="560" type="line"/>
      <point x="374" y="558"/>
      <point x="285" y="551"/>
      <point x="191" y="543" type="curve"/>
      <point x="186" y="519"/>
      <point x="167" y="424"/>
      <point x="158" y="350" type="curve"/>
      <point x="238" y="353"/>
      <point x="322" y="358"/>
      <point x="398" y="362" type="curve"/>
      <point x="395" y="335" type="line"/>
      <point x="371" y="335"/>
      <point x="220" y="322"/>
      <point x="151" y="313" type="curve"/>
      <point x="141" y="255"/>
      <point x="118" y="53"/>
      <point x="123" y="-2" type="curve"/>
      <point x="98" y="2"/>
      <point x="52" y="3"/>
      <point x="29" y="0" type="curve"/>
      <point x="52" y="57"/>
      <point x="119" y="494"/>
      <point x="114" y="583" type="curve"/>
      <point x="198" y="579"/>
      <point x="252" y="578"/>
    </contour>
  </outline>
</glyph>
<glyph name="K" format="1">
  <advance width="584"/>
  <unicode hex="004B"/>
  <outline>
    <contour>
      <point x="32" y="-2" type="curve"/>
      <point x="81" y="118"/>
      <point x="136" y="525"/>
      <point x="127" y="585" type="curve"/>
      <point x="141" y="579"/>
      <point x="186" y="579"/>
      <point x="217" y="583" type="curve"/>
      <point x="200" y="530"/>
      <point x="183" y="430"/>
      <point x="177" y="385" type="curve"/>
      <point x="276" y="424"/>
      <point x="484" y="538"/>
      <point x="587" y="600" type="curve"/>
      <point x="579" y="583"/>
      <point x="568" y="543"/>
      <point x="563" y="524" type="curve"/>
      <point x="519" y="508"/>
      <point x="350" y="433"/>
      <point x="309" y="413" type="curve"/>
      <point x="337" y="350"/>
      <point x="459" y="100"/>
      <point x="543" y="-2" type="curve"/>
      <point x="509" y="2"/>
      <point x="468" y="2"/>
      <point x="429" y="-2" type="curve"/>
      <point x="395" y="84"/>
      <point x="300" y="298"/>
      <point x="250" y="388" type="curve"/>
      <point x="219" y="377"/>
      <point x="192" y="365"/>
      <point x="173" y="359" type="curve"/>
      <point x="166" y="327"/>
      <point x="131" y="88"/>
      <point x="135" y="-3" type="curve"/>
      <point x="104" y="3"/>
      <point x="61" y="3"/>
    </contour>
  </outline>
</glyph>
<glyph name="L" format="1">
  <advance width="422"/>
  <unicode hex="004C"/>
  <outline>
    <contour>
      <point x="143" y="583" type="curve"/>
      <point x="171" y="579"/>
      <point x="219" y="578"/>
      <point x="246" y="583" type="curve"/>
      <point x="216" y="525"/>
      <point x="132" y="104"/>
      <point x="132" y="40" type="curve"/>
      <point x="205" y="31"/>
      <point x="271" y="27"/>
      <point x="387" y="25" type="curve"/>
      <point x="382" y="-1" type="line"/>
      <point x="147" y="2"/>
      <point x="143" y="1"/>
      <point x="29" y="-2" type="curve"/>
      <point x="74" y="87"/>
      <point x="154" y="516"/>
    </contour>
  </outline>
</glyph>
<glyph name="M" format="1">
  <advance width="816"/>
  <unicode hex="004D"/>
  <outline>
    <contour>
      <point x="-35" y="-3" type="curve"/>
      <point x="56" y="138"/>
      <point x="143" y="310"/>
      <point x="214" y="452" type="curve" smooth="yes"/>
      <point x="229" y="483"/>
      <point x="258" y="554"/>
      <point x="263" y="583" type="curve"/>
      <point x="274" y="586"/>
      <point x="280" y="586"/>
      <point x="295" y="592" type="curve"/>
      <point x="303" y="507"/>
      <point x="357" y="222"/>
      <point x="383" y="110" type="curve"/>
      <point x="445" y="211"/>
      <point x="553" y="407"/>
      <point x="579" y="454" type="curve"/>
      <point x="606" y="506"/>
      <point x="629" y="555"/>
      <point x="636" y="582" type="curve"/>
      <point x="648" y="583"/>
      <point x="658" y="586"/>
      <point x="668" y="589" type="curve"/>
      <point x="675" y="439"/>
      <point x="725" y="166"/>
      <point x="762" y="-2" type="curve"/>
      <point x="736" y="3"/>
      <point x="694" y="1"/>
      <point x="673" y="-2" type="curve"/>
      <point x="656" y="176"/>
      <point x="630" y="334"/>
      <point x="610" y="459" type="curve"/>
      <point x="365" y="5" type="line"/>
      <point x="355" y="-1"/>
      <point x="337" y="-9"/>
      <point x="320" y="-17" type="curve"/>
      <point x="288" y="205"/>
      <point x="270" y="307"/>
      <point x="243" y="457" type="curve"/>
      <point x="171" y="310"/>
      <point x="110" y="156"/>
      <point x="42" y="2" type="curve"/>
      <point x="15" y="0"/>
      <point x="-4" y="0"/>
    </contour>
  </outline>
</glyph>
<glyph name="P" format="1">
  <advance width="501"/>
  <unicode hex="0050"/>
  <outline>
    <contour>
      <point x="26" y="-1" type="curve"/>
      <point x="53" y="83"/>
      <point x="130" y="505"/>
      <point x="125" y="583" type="curve"/>
      <point x="162" y="579"/>
      <point x="216" y="583"/>
      <point x="295" y="583" type="curve" smooth="yes"/>
      <point x="400" y="583"/>
      <point x="517" y="596"/>
      <point x="515" y="490" type="curve" smooth="yes"/>
      <point x="514" y="393"/>
      <point x="430" y="314"/>
      <point x="240" y="261" type="curve"/>
      <point x="236" y="261"/>
      <point x="233" y="281"/>
      <point x="234" y="285" type="curve"/>
      <point x="368" y="331"/>
      <point x="435" y="385"/>
      <point x="437" y="480" type="curve"/>
      <point x="437" y="535"/>
      <point x="370" y="553"/>
      <point x="308" y="556" type="curve" smooth="yes"/>
      <point x="261" y="558"/>
      <point x="213" y="553"/>
      <point x="195" y="551" type="curve"/>
      <point x="169" y="441"/>
      <point x="112" y="52"/>
      <point x="126" y="-1" type="curve"/>
      <point x="107" y="2"/>
      <point x="50" y="2"/>
    </contour>
  </outline>
</glyph>
<glyph name="Q" format="1">
  <advance width="659"/>
  <unicode hex="0051"/>
  <outline>
    <contour>
      <point x="411" y="593" type="curve" smooth="yes"/>
      <point x="509" y="593"/>
      <point x="633" y="509"/>
      <point x="633" y="361" type="curve" smooth="yes"/>
      <point x="633" y="256"/>
      <point x="598" y="154"/>
      <point x="540" y="93" type="curve" smooth="yes"/>
      <point x="496" y="47"/>
      <point x="422" y="7"/>
      <point x="341" y="-2" type="curve"/>
      <point x="474" y="-15"/>
      <point x="580" y="-32"/>
      <point x="690" y="-74" type="curve"/>
      <point x="663" y="-77"/>
      <point x="606" y="-103"/>
      <point x="591" y="-120" type="curve"/>
      <point x="539" y="-82"/>
      <point x="380" y="-18"/>
      <point x="276" y="-12" type="curve" smooth="yes"/>
      <point x="117" y="-3"/>
      <point x="43" y="112"/>
      <point x="43" y="236" type="curve"/>
      <point x="45" y="335"/>
      <point x="92" y="454"/>
      <point x="182" y="519" type="curve" smooth="yes"/>
      <point x="223" y="548"/>
      <point x="322" y="593"/>
    </contour>
    <contour>
      <point x="315" y="23" type="curve" smooth="yes"/>
      <point x="408" y="23"/>
      <point x="561" y="100"/>
      <point x="561" y="349" type="curve" smooth="yes"/>
      <point x="561" y="455"/>
      <point x="487" y="556"/>
      <point x="371" y="556" type="curve" smooth="yes"/>
      <point x="219" y="556"/>
      <point x="116" y="402"/>
      <point x="116" y="241" type="curve" smooth="yes"/>
      <point x="116" y="132"/>
      <point x="192" y="23"/>
    </contour>
  </outline>
</glyph>
<glyph name="S" format="1">
  <advance width="280"/>
  <unicode hex="0053"/>
  <outline>
    <contour>
      <point x="239" y="575" type="curve"/>
      <point x="191" y="557"/>
      <point x="141" y="506"/>
      <point x="143" y="460" type="curve" smooth="yes"/>
      <point x="145" y="414"/>
      <point x="161" y="390"/>
      <point x="191" y="343" type="curve"/>
      <point x="221" y="298"/>
      <point x="243" y="256"/>
      <point x="243" y="207" type="curve" smooth="yes"/>
      <point x="243" y="135"/>
      <point x="204" y="74"/>
      <point x="148" y="35" type="curve" smooth="yes"/>
      <point x="109" y="7"/>
      <point x="47" y="-14"/>
      <point x="-3" y="1" type="curve"/>
      <point x="-4" y="7"/>
      <point x="-1" y="20"/>
      <point x="1" y="25" type="curve"/>
      <point x="107" y="14"/>
      <point x="177" y="96"/>
      <point x="177" y="170" type="curve" smooth="yes"/>
      <point x="177" y="216"/>
      <point x="161" y="262"/>
      <point x="134" y="302" type="curve" smooth="yes"/>
      <point x="106" y="345"/>
      <point x="87" y="381"/>
      <point x="87" y="425" type="curve" smooth="yes"/>
      <point x="87" y="499"/>
      <point x="142" y="557"/>
      <point x="222" y="598" type="curve"/>
      <point x="231" y="593"/>
      <point x="236" y="583"/>
    </contour>
  </outline>
</glyph>
<glyph name="T" format="1">
  <advance width="415"/>
  <unicode hex="0054"/>
  <outline>
    <contour>
      <point x="50" y="583" type="curve"/>
      <point x="242" y="575"/>
      <point x="309" y="578"/>
      <point x="481" y="583" type="curve"/>
      <point x="483" y="576"/>
      <point x="481" y="572"/>
      <point x="478" y="563" type="curve"/>
      <point x="409" y="556"/>
      <point x="344" y="549"/>
      <point x="295" y="542" type="curve"/>
      <point x="275" y="449"/>
      <point x="214" y="97"/>
      <point x="219" y="-2" type="curve"/>
      <point x="192" y="2"/>
      <point x="163" y="2"/>
      <point x="127" y="-1" type="curve"/>
      <point x="141" y="46"/>
      <point x="221" y="489"/>
      <point x="222" y="541" type="curve"/>
      <point x="176" y="548"/>
      <point x="127" y="556"/>
      <point x="47" y="561" type="curve"/>
      <point x="46" y="569"/>
      <point x="45" y="571"/>
    </contour>
  </outline>
</glyph>
<glyph name="V" format="1">
  <advance width="531"/>
  <unicode hex="0056"/>
  <outline>
    <contour>
      <point x="66" y="584" type="curve"/>
      <point x="103" y="579"/>
      <point x="130" y="580"/>
      <point x="170" y="585" type="curve"/>
      <point x="157" y="477"/>
      <point x="195" y="266"/>
      <point x="222" y="100" type="curve"/>
      <point x="353" y="296"/>
      <point x="460" y="479"/>
      <point x="476" y="575" type="curve"/>
      <point x="503" y="578"/>
      <point x="563" y="583"/>
      <point x="591" y="594" type="curve"/>
      <point x="521" y="512"/>
      <point x="349" y="250"/>
      <point x="295" y="168" type="curve" smooth="yes"/>
      <point x="269" y="127"/>
      <point x="219" y="47"/>
      <point x="208" y="7" type="curve"/>
      <point x="187" y="-7"/>
      <point x="181" y="-10"/>
      <point x="156" y="-17" type="curve"/>
      <point x="137" y="186"/>
      <point x="92" y="514"/>
    </contour>
  </outline>
</glyph>
<glyph name="W" format="1">
  <advance width="859"/>
  <unicode hex="0057"/>
  <outline>
    <contour>
      <point x="68" y="584" type="curve"/>
      <point x="106" y="579"/>
      <point x="136" y="580"/>
      <point x="176" y="585" type="curve"/>
      <point x="162" y="481"/>
      <point x="192" y="273"/>
      <point x="224" y="111" type="curve"/>
      <point x="369" y="332"/>
      <point x="443" y="450"/>
      <point x="498" y="587" type="curve"/>
      <point x="510" y="593"/>
      <point x="505" y="592"/>
      <point x="524" y="598" type="curve"/>
      <point x="534" y="455"/>
      <point x="568" y="274"/>
      <point x="594" y="111" type="curve"/>
      <point x="668" y="236"/>
      <point x="784" y="450"/>
      <point x="811" y="583" type="curve"/>
      <point x="837" y="586"/>
      <point x="891" y="584"/>
      <point x="919" y="595" type="curve"/>
      <point x="870" y="540"/>
      <point x="680" y="210"/>
      <point x="657" y="170" type="curve" smooth="yes"/>
      <point x="612" y="89"/>
      <point x="606" y="81"/>
      <point x="576" y="2" type="curve"/>
      <point x="565" y="-7"/>
      <point x="549" y="-17"/>
      <point x="531" y="-24" type="curve"/>
      <point x="513" y="171"/>
      <point x="489" y="300"/>
      <point x="465" y="440" type="curve"/>
      <point x="273" y="137" type="line" smooth="yes"/>
      <point x="247" y="97"/>
      <point x="221" y="46"/>
      <point x="205" y="3" type="curve"/>
      <point x="187" y="-11"/>
      <point x="181" y="-16"/>
      <point x="163" y="-23" type="curve"/>
      <point x="144" y="184"/>
      <point x="106" y="471"/>
    </contour>
  </outline>
</glyph>
<glyph name="X" format="1">
  <advance width="571"/>
  <unicode hex="0058"/>
  <outline>
    <contour>
      <point x="238" y="581" type="curve"/>
      <point x="270" y="499"/>
      <point x="298" y="428"/>
      <point x="327" y="370" type="curve"/>
      <point x="399" y="444"/>
      <point x="454" y="520"/>
      <point x="487" y="581" type="curve"/>
      <point x="510" y="582"/>
      <point x="546" y="585"/>
      <point x="586" y="595" type="curve"/>
      <point x="519" y="543"/>
      <point x="395" y="411"/>
      <point x="340" y="347" type="curve"/>
      <point x="395" y="238"/>
      <point x="463" y="109"/>
      <point x="536" y="-1" type="curve"/>
      <point x="511" y="2"/>
      <point x="446" y="2"/>
      <point x="419" y="-1" type="curve"/>
      <point x="389" y="97"/>
      <point x="320" y="252"/>
      <point x="294" y="303" type="curve"/>
      <point x="230" y="238"/>
      <point x="117" y="88"/>
      <point x="77" y="8" type="curve"/>
      <point x="37" y="2"/>
      <point x="4" y="1"/>
      <point x="-45" y="-17" type="curve"/>
      <point x="51" y="61"/>
      <point x="210" y="244"/>
      <point x="280" y="325" type="curve"/>
      <point x="248" y="395"/>
      <point x="133" y="571"/>
      <point x="119" y="581" type="curve"/>
      <point x="142" y="578"/>
      <point x="198" y="575"/>
    </contour>
  </outline>
</glyph>
<glyph name="Y" format="1">
  <advance width="454"/>
  <unicode hex="0059"/>
  <outline>
    <contour>
      <point x="48" y="583" type="curve"/>
      <point x="97" y="579"/>
      <point x="120" y="579"/>
      <point x="161" y="583" type="curve"/>
      <point x="172" y="501"/>
      <point x="222" y="370"/>
      <point x="257" y="310" type="curve"/>
      <point x="334" y="395"/>
      <point x="398" y="497"/>
      <point x="429" y="578" type="curve"/>
      <point x="456" y="578"/>
      <point x="485" y="583"/>
      <point x="523" y="592" type="curve"/>
      <point x="416" y="482"/>
      <point x="354" y="390"/>
      <point x="266" y="275" type="curve"/>
      <point x="238" y="161"/>
      <point x="231" y="67"/>
      <point x="241" y="-1" type="curve"/>
      <point x="205" y="2"/>
      <point x="166" y="3"/>
      <point x="135" y="-1" type="curve"/>
      <point x="162" y="62"/>
      <point x="185" y="188"/>
      <point x="196" y="272" type="curve"/>
      <point x="175" y="351"/>
      <point x="92" y="533"/>
    </contour>
  </outline>
</glyph>
<glyph name="bracketleft" format="1">
  <advance width="244"/>
  <unicode hex="005B"/>
  <outline>
    <contour>
      <point x="177" y="-52" type="curve"/>
      <point x="181" y="-60"/>
      <point x="180" y="-67"/>
      <point x="177" y="-76" type="curve"/>
      <point x="110" y="-84"/>
      <point x="73" y="-87"/>
      <point x="12" y="-100" type="curve"/>
      <point x="43" y="19"/>
      <point x="111" y="470"/>
      <point x="120" y="583" type="curve"/>
      <point x="158" y="580"/>
      <point x="231" y="583"/>
      <point x="271" y="583" type="curve"/>
      <point x="272" y="576"/>
      <point x="271" y="567"/>
      <point x="267" y="560" type="curve"/>
      <point x="246" y="559"/>
      <point x="213" y="556"/>
      <point x="191" y="553" type="curve"/>
      <point x="159" y="398"/>
      <point x="121" y="153"/>
      <point x="96" y="-53" type="curve"/>
      <point x="132" y="-55"/>
      <point x="151" y="-54"/>
    </contour>
  </outline>
</glyph>
<glyph name="backslash" format="1">
  <advance width="293"/>
  <unicode hex="005C"/>
  <outline>
    <contour>
      <point x="71" y="605" type="curve"/>
      <point x="76" y="608"/>
      <point x="91" y="608"/>
      <point x="100" y="606" type="curve"/>
      <point x="141" y="385"/>
      <point x="182" y="179"/>
      <point x="226" y="-42" type="curve"/>
      <point x="215" y="-47"/>
      <point x="206" y="-44"/>
      <point x="196" y="-42" type="curve"/>
      <point x="155" y="179"/>
      <point x="115" y="383"/>
    </contour>
  </outline>
</glyph>
<glyph name="bracketright" format="1">
  <advance width="244"/>
  <unicode hex="005D"/>
  <outline>
    <contour>
      <point x="236" y="583" type="curve"/>
      <point x="205" y="459"/>
      <point x="138" y="27"/>
      <point x="131" y="-81" type="curve"/>
      <point x="86" y="-84"/>
      <point x="22" y="-94"/>
      <point x="-27" y="-103" type="curve"/>
      <point x="-29" y="-96"/>
      <point x="-29" y="-86"/>
      <point x="-27" y="-76" type="curve"/>
      <point x="6" y="-69"/>
      <point x="27" y="-66"/>
      <point x="58" y="-52" type="curve"/>
      <point x="92" y="107"/>
      <point x="128" y="386"/>
      <point x="153" y="550" type="curve"/>
      <point x="133" y="552"/>
      <point x="99" y="553"/>
      <point x="79" y="553" type="curve"/>
      <point x="80" y="563"/>
      <point x="80" y="572"/>
      <point x="83" y="582" type="curve"/>
      <point x="136" y="579"/>
      <point x="180" y="579"/>
    </contour>
  </outline>
</glyph>
<glyph name="asciicircum" format="1">
  <advance width="375"/>
  <unicode hex="005E"/>
  <outline>
    <contour>
      <point x="226" y="592" type="curve"/>
      <point x="270" y="506"/>
      <point x="328" y="391"/>
      <point x="350" y="356" type="curve"/>
      <point x="343" y="348"/>
      <point x="326" y="345"/>
      <point x="318" y="342" type="curve"/>
      <point x="291" y="402"/>
      <point x="246" y="490"/>
      <point x="217" y="541" type="curve"/>
      <point x="184" y="489"/>
      <point x="127" y="395"/>
      <point x="98" y="342" type="curve"/>
      <point x="89" y="346"/>
      <point x="77" y="352"/>
      <point x="72" y="363" type="curve"/>
      <point x="104" y="410"/>
      <point x="166" y="511"/>
      <point x="211" y="592" type="curve"/>
      <point x="216" y="593"/>
      <point x="222" y="593"/>
    </contour>
  </outline>
</glyph>
<glyph name="underscore" format="1">
  <advance width="529"/>
  <unicode hex="005F"/>
  <outline>
    <contour>
      <point x="-44" y="-92" type="curve"/>
      <point x="181" y="-95"/>
      <point x="254" y="-95"/>
      <point x="479" y="-94" type="curve"/>
      <point x="479" y="-105"/>
      <point x="478" y="-118"/>
      <point x="473" y="-128" type="curve"/>
      <point x="247" y="-127"/>
      <point x="177" y="-125"/>
      <point x="-47" y="-126" type="curve"/>
      <point x="-51" y="-117"/>
      <point x="-47" y="-98"/>
    </contour>
  </outline>
</glyph>
<glyph name="grave" format="1">
  <advance width="416"/>
  <unicode hex="0060"/>
  <outline>
    <contour>
      <point x="178" y="562" type="curve"/>
      <point x="212" y="539"/>
      <point x="280" y="500"/>
      <point x="335" y="473" type="curve"/>
      <point x="325" y="455" type="line"/>
      <point x="264" y="475"/>
      <point x="217" y="486"/>
      <point x="150" y="499" type="curve"/>
      <point x="161" y="518"/>
      <point x="173" y="543"/>
    </contour>
  </outline>
</glyph>
<glyph name="b" format="1">
  <advance width="407"/>
  <unicode hex="0062"/>
  <outline>
    <contour>
      <point x="9" y="0" type="curve"/>
      <point x="29" y="32"/>
      <point x="47" y="103"/>
      <point x="57" y="146" type="curve" smooth="yes"/>
      <point x="88" y="294"/>
      <point x="146" y="593"/>
      <point x="139" y="680" type="curve"/>
      <point x="166" y="682"/>
      <point x="207" y="690"/>
      <point x="234" y="696" type="curve"/>
      <point x="205" y="606"/>
      <point x="172" y="401"/>
      <point x="143" y="241" type="curve"/>
      <point x="213" y="297"/>
      <point x="277" y="345"/>
      <point x="354" y="397" type="curve"/>
      <point x="366" y="390"/>
      <point x="380" y="341"/>
      <point x="380" y="295" type="curve" smooth="yes"/>
      <point x="380" y="128"/>
      <point x="222" y="-3"/>
      <point x="110" y="-3" type="curve" smooth="yes"/>
      <point x="79" y="-3"/>
      <point x="63" y="-3"/>
    </contour>
    <contour>
      <point x="137" y="207" type="curve"/>
      <point x="125" y="152"/>
      <point x="111" y="82"/>
      <point x="102" y="29" type="curve"/>
      <point x="110" y="25"/>
      <point x="118" y="24"/>
      <point x="130" y="24" type="curve" smooth="yes"/>
      <point x="191" y="24"/>
      <point x="310" y="131"/>
      <point x="312" y="254" type="curve" smooth="yes"/>
      <point x="313" y="292"/>
      <point x="309" y="311"/>
      <point x="300" y="327" type="curve"/>
      <point x="242" y="288"/>
      <point x="178" y="240"/>
    </contour>
  </outline>
</glyph>
<glyph name="c" format="1">
  <advance width="305"/>
  <unicode hex="0063"/>
  <outline>
    <contour>
      <point x="306" y="381" type="curve"/>
      <point x="305" y="370"/>
      <point x="304" y="370"/>
      <point x="299" y="358" type="curve"/>
      <point x="283" y="360"/>
      <point x="262" y="361"/>
      <point x="249" y="361" type="curve" smooth="yes"/>
      <point x="124" y="361"/>
      <point x="87" y="226"/>
      <point x="87" y="157" type="curve" smooth="yes"/>
      <point x="87" y="96"/>
      <point x="113" y="59"/>
      <point x="129" y="48" type="curve"/>
      <point x="147" y="58"/>
      <point x="215" y="106"/>
      <point x="246" y="133" type="curve"/>
      <point x="252" y="131"/>
      <point x="261" y="122"/>
      <point x="266" y="117" type="curve"/>
      <point x="224" y="83"/>
      <point x="145" y="24"/>
      <point x="95" y="-14" type="curve"/>
      <point x="56" y="8"/>
      <point x="27" y="60"/>
      <point x="27" y="123" type="curve" smooth="yes"/>
      <point x="27" y="290"/>
      <point x="124" y="386"/>
      <point x="257" y="386" type="curve" smooth="yes"/>
      <point x="276" y="386"/>
      <point x="300" y="384"/>
    </contour>
  </outline>
</glyph>
<glyph name="h" format="1">
  <advance width="404"/>
  <unicode hex="0068"/>
  <outline>
    <contour>
      <point x="145" y="682" type="curve"/>
      <point x="172" y="684"/>
      <point x="200" y="688"/>
      <point x="230" y="696" type="curve"/>
      <point x="184" y="534"/>
      <point x="165" y="393"/>
      <point x="136" y="232" type="curve"/>
      <point x="197" y="288"/>
      <point x="274" y="354"/>
      <point x="331" y="399" type="curve"/>
      <point x="357" y="375"/>
      <point x="372" y="318"/>
      <point x="370" y="276" type="curve" smooth="yes"/>
      <point x="367" y="214"/>
      <point x="350" y="136"/>
      <point x="333" y="96" type="curve" smooth="yes"/>
      <point x="314" y="50"/>
      <point x="274" y="14"/>
      <point x="224" y="-16" type="curve"/>
      <point x="219" y="-13"/>
      <point x="216" y="-9"/>
      <point x="212" y="-2" type="curve"/>
      <point x="234" y="21"/>
      <point x="262" y="58"/>
      <point x="276" y="104" type="curve" smooth="yes"/>
      <point x="291" y="150"/>
      <point x="305" y="209"/>
      <point x="305" y="260" type="curve" smooth="yes"/>
      <point x="305" y="293"/>
      <point x="296" y="314"/>
      <point x="286" y="326" type="curve"/>
      <point x="224" y="280"/>
      <point x="190" y="251"/>
      <point x="128" y="188" type="curve"/>
      <point x="113" y="132"/>
      <point x="93" y="43"/>
      <point x="95" y="-1" type="curve"/>
      <point x="64" y="2"/>
      <point x="36" y="4"/>
      <point x="9" y="-2" type="curve"/>
      <point x="48" y="69"/>
      <point x="138" y="577"/>
    </contour>
  </outline>
</glyph>
<glyph name="i" format="1">
  <advance width="176"/>
  <unicode hex="0069"/>
  <outline>
    <contour>
      <point x="9" y="0" type="curve"/>
      <point x="42" y="93"/>
      <point x="82" y="308"/>
      <point x="86" y="385" type="curve"/>
      <point x="110" y="382"/>
      <point x="139" y="381"/>
      <point x="167" y="387" type="curve"/>
      <point x="137" y="321"/>
      <point x="96" y="62"/>
      <point x="99" y="-2" type="curve"/>
      <point x="75" y="6"/>
      <point x="22" y="1"/>
    </contour>
    <contour>
      <point x="171" y="586" type="curve" smooth="yes"/>
      <point x="198" y="586"/>
      <point x="201" y="568"/>
      <point x="200" y="559" type="curve"/>
      <point x="196" y="543"/>
      <point x="172" y="526"/>
      <point x="145" y="526" type="curve" smooth="yes"/>
      <point x="126" y="526"/>
      <point x="113" y="533"/>
      <point x="117" y="553" type="curve" smooth="yes"/>
      <point x="120" y="567"/>
      <point x="140" y="586"/>
    </contour>
  </outline>
</glyph>
<glyph name="j" format="1">
  <advance width="187"/>
  <unicode hex="006A"/>
  <outline>
    <contour>
      <point x="90" y="383" type="curve"/>
      <point x="107" y="380"/>
      <point x="144" y="380"/>
      <point x="171" y="385" type="curve"/>
      <point x="151" y="330"/>
      <point x="124" y="181"/>
      <point x="108" y="94" type="curve" smooth="yes"/>
      <point x="62" y="-156"/>
      <point x="-89" y="-280"/>
      <point x="-145" y="-280" type="curve" smooth="yes"/>
      <point x="-156" y="-280"/>
      <point x="-166" y="-274"/>
      <point x="-174" y="-266" type="curve"/>
      <point x="-172" y="-258"/>
      <point x="-166" y="-249"/>
      <point x="-161" y="-243" type="curve"/>
      <point x="-119" y="-274"/>
      <point x="-63" y="-201"/>
      <point x="-43" y="-173" type="curve" smooth="yes"/>
      <point x="-2" y="-116"/>
      <point x="26" y="-18"/>
      <point x="42" y="64" type="curve" smooth="yes"/>
      <point x="67" y="193"/>
      <point x="88" y="308"/>
    </contour>
    <contour>
      <point x="174" y="586" type="curve" smooth="yes"/>
      <point x="201" y="586"/>
      <point x="205" y="568"/>
      <point x="203" y="559" type="curve" smooth="yes"/>
      <point x="200" y="543"/>
      <point x="176" y="526"/>
      <point x="148" y="526" type="curve" smooth="yes"/>
      <point x="129" y="526"/>
      <point x="117" y="533"/>
      <point x="121" y="553" type="curve" smooth="yes"/>
      <point x="123" y="567"/>
      <point x="143" y="586"/>
    </contour>
  </outline>
</glyph>
<glyph name="l" format="1">
  <advance width="218"/>
  <unicode hex="006C"/>
  <outline>
    <contour>
      <point x="144" y="682" type="curve"/>
      <point x="164" y="685"/>
      <point x="195" y="687"/>
      <point x="228" y="694" type="curve"/>
      <point x="194" y="593"/>
      <point x="138" y="313"/>
      <point x="107" y="122" type="curve" smooth="yes"/>
      <point x="102" y="88"/>
      <point x="100" y="42"/>
      <point x="120" y="42" type="curve" smooth="yes"/>
      <point x="134" y="42"/>
      <point x="166" y="46"/>
      <point x="189" y="52" type="curve"/>
      <point x="194" y="45"/>
      <point x="195" y="37"/>
      <point x="197" y="32" type="curve"/>
      <point x="158" y="15"/>
      <point x="90" y="-8"/>
      <point x="62" y="-8" type="curve" smooth="yes"/>
      <point x="35" y="-8"/>
      <point x="28" y="41"/>
      <point x="39" y="97" type="curve" smooth="yes"/>
      <point x="77" y="286"/>
      <point x="138" y="593"/>
    </contour>
  </outline>
</glyph>
<glyph name="m" format="1">
  <advance width="618"/>
  <unicode hex="006D"/>
  <outline>
    <contour>
      <point x="93" y="380" type="curve"/>
      <point x="109" y="379"/>
      <point x="145" y="382"/>
      <point x="176" y="388" type="curve"/>
      <point x="161" y="355"/>
      <point x="148" y="289"/>
      <point x="136" y="213" type="curve"/>
      <point x="189" y="263"/>
      <point x="280" y="341"/>
      <point x="345" y="393" type="curve"/>
      <point x="365" y="373"/>
      <point x="372" y="308"/>
      <point x="359" y="230" type="curve"/>
      <point x="541" y="395" type="line"/>
      <point x="574" y="356"/>
      <point x="586" y="288"/>
      <point x="570" y="212" type="curve" smooth="yes"/>
      <point x="556" y="142"/>
      <point x="538" y="72"/>
      <point x="533" y="-2" type="curve"/>
      <point x="512" y="1"/>
      <point x="475" y="2"/>
      <point x="453" y="-2" type="curve"/>
      <point x="473" y="51"/>
      <point x="500" y="164"/>
      <point x="507" y="218" type="curve" smooth="yes"/>
      <point x="513" y="268"/>
      <point x="506" y="308"/>
      <point x="497" y="315" type="curve"/>
      <point x="458" y="285"/>
      <point x="377" y="210"/>
      <point x="352" y="185" type="curve"/>
      <point x="336" y="111"/>
      <point x="322" y="48"/>
      <point x="318" y="-2" type="curve"/>
      <point x="296" y="2"/>
      <point x="266" y="1"/>
      <point x="233" y="-2" type="curve"/>
      <point x="261" y="74"/>
      <point x="282" y="159"/>
      <point x="292" y="222" type="curve" smooth="yes"/>
      <point x="296" y="248"/>
      <point x="299" y="298"/>
      <point x="286" y="312" type="curve"/>
      <point x="233" y="268"/>
      <point x="179" y="223"/>
      <point x="131" y="174" type="curve"/>
      <point x="121" y="130"/>
      <point x="107" y="57"/>
      <point x="101" y="-3" type="curve"/>
      <point x="82" y="1"/>
      <point x="42" y="3"/>
      <point x="13" y="-2" type="curve"/>
      <point x="46" y="55"/>
      <point x="92" y="301"/>
    </contour>
  </outline>
</glyph>
<glyph name="o" format="1">
  <advance width="315"/>
  <unicode hex="006F"/>
  <outline>
    <contour>
      <point x="109" y="-16" type="curve"/>
      <point x="60" y="10"/>
      <point x="29" y="82"/>
      <point x="31" y="136" type="curve" smooth="yes"/>
      <point x="35" y="259"/>
      <point x="120" y="342"/>
      <point x="219" y="400" type="curve"/>
      <point x="270" y="366"/>
      <point x="288" y="305"/>
      <point x="287" y="250" type="curve" smooth="yes"/>
      <point x="285" y="139"/>
      <point x="200" y="43"/>
    </contour>
    <contour>
      <point x="87" y="174" type="curve" smooth="yes"/>
      <point x="87" y="136"/>
      <point x="94" y="74"/>
      <point x="143" y="39" type="curve"/>
      <point x="204" y="85"/>
      <point x="227" y="140"/>
      <point x="229" y="216" type="curve" smooth="yes"/>
      <point x="230" y="268"/>
      <point x="211" y="321"/>
      <point x="181" y="347" type="curve"/>
      <point x="139" y="319"/>
      <point x="89" y="256"/>
    </contour>
  </outline>
</glyph>
<glyph name="p" format="1">
  <advance width="377"/>
  <unicode hex="0070"/>
  <outline>
    <contour>
      <point x="-41" y="-281" type="curve"/>
      <point x="-2" y="-187"/>
      <point x="81" y="300"/>
      <point x="87" y="385" type="curve"/>
      <point x="112" y="381"/>
      <point x="146" y="381"/>
      <point x="169" y="386" type="curve"/>
      <point x="160" y="356"/>
      <point x="146" y="292"/>
      <point x="137" y="247" type="curve"/>
      <point x="193" y="293"/>
      <point x="275" y="357"/>
      <point x="332" y="399" type="curve"/>
      <point x="352" y="370"/>
      <point x="360" y="314"/>
      <point x="359" y="264" type="curve" smooth="yes"/>
      <point x="354" y="132"/>
      <point x="253" y="-11"/>
      <point x="123" y="-11" type="curve" smooth="yes"/>
      <point x="107" y="-11"/>
      <point x="97" y="-9"/>
      <point x="88" y="-5" type="curve"/>
      <point x="77" y="-59"/>
      <point x="53" y="-231"/>
      <point x="56" y="-261" type="curve"/>
      <point x="31" y="-264"/>
      <point x="-7" y="-270"/>
    </contour>
    <contour>
      <point x="132" y="214" type="curve"/>
      <point x="123" y="179"/>
      <point x="104" y="87"/>
      <point x="93" y="22" type="curve"/>
      <point x="102" y="18"/>
      <point x="107" y="17"/>
      <point x="128" y="17" type="curve" smooth="yes"/>
      <point x="195" y="17"/>
      <point x="288" y="96"/>
      <point x="293" y="246" type="curve" smooth="yes"/>
      <point x="294" y="275"/>
      <point x="286" y="304"/>
      <point x="279" y="325" type="curve"/>
      <point x="239" y="297"/>
      <point x="191" y="258"/>
    </contour>
  </outline>
</glyph>
<glyph name="q" format="1">
  <advance width="383"/>
  <unicode hex="0071"/>
  <outline>
    <contour>
      <point x="259" y="385" type="curve" smooth="yes"/>
      <point x="302" y="386"/>
      <point x="351" y="385"/>
      <point x="385" y="384" type="curve"/>
      <point x="332" y="293"/>
      <point x="264" y="-158"/>
      <point x="267" y="-261" type="curve"/>
      <point x="236" y="-263"/>
      <point x="193" y="-270"/>
      <point x="155" y="-278" type="curve"/>
      <point x="184" y="-235"/>
      <point x="217" y="-68"/>
      <point x="257" y="154" type="curve"/>
      <point x="202" y="101"/>
      <point x="131" y="39"/>
      <point x="76" y="-12" type="curve"/>
      <point x="56" y="2"/>
      <point x="33" y="45"/>
      <point x="33" y="106" type="curve" smooth="yes"/>
      <point x="33" y="269"/>
      <point x="157" y="381"/>
    </contour>
    <contour>
      <point x="298" y="357" type="curve"/>
      <point x="285" y="359"/>
      <point x="264" y="359"/>
      <point x="251" y="357" type="curve" smooth="yes"/>
      <point x="149" y="346"/>
      <point x="97" y="228"/>
      <point x="97" y="144" type="curve" smooth="yes"/>
      <point x="97" y="113"/>
      <point x="105" y="85"/>
      <point x="119" y="68" type="curve"/>
      <point x="149" y="89"/>
      <point x="245" y="173"/>
      <point x="264" y="192" type="curve"/>
      <point x="270" y="218"/>
      <point x="297" y="325"/>
    </contour>
  </outline>
</glyph>
<glyph name="s" format="1">
  <advance width="222"/>
  <unicode hex="0073"/>
  <outline>
    <contour>
      <point x="2" y="-3" type="curve"/>
      <point x="0" y="1"/>
      <point x="2" y="17"/>
      <point x="3" y="22" type="curve"/>
      <point x="49" y="15"/>
      <point x="112" y="35"/>
      <point x="112" y="92" type="curve" smooth="yes"/>
      <point x="112" y="132"/>
      <point x="99" y="160"/>
      <point x="86" y="195" type="curve" smooth="yes"/>
      <point x="77" y="218"/>
      <point x="66" y="247"/>
      <point x="66" y="269" type="curve" smooth="yes"/>
      <point x="67" y="320"/>
      <point x="120" y="370"/>
      <point x="180" y="399" type="curve"/>
      <point x="186" y="393"/>
      <point x="190" y="384"/>
      <point x="191" y="380" type="curve"/>
      <point x="136" y="348"/>
      <point x="122" y="314"/>
      <point x="122" y="285" type="curve" smooth="yes"/>
      <point x="122" y="266"/>
      <point x="131" y="248"/>
      <point x="142" y="222" type="curve"/>
      <point x="153" y="199"/>
      <point x="175" y="150"/>
      <point x="175" y="122" type="curve" smooth="yes"/>
      <point x="175" y="42"/>
      <point x="130" y="-15"/>
    </contour>
  </outline>
</glyph>
<glyph name="x" format="1">
  <advance width="355"/>
  <unicode hex="0078"/>
  <outline>
    <contour>
      <point x="-17" y="-12" type="curve"/>
      <point x="17" y="18"/>
      <point x="123" y="155"/>
      <point x="150" y="196" type="curve"/>
      <point x="137" y="246"/>
      <point x="108" y="355"/>
      <point x="81" y="385" type="curve"/>
      <point x="112" y="382"/>
      <point x="150" y="382"/>
      <point x="175" y="385" type="curve"/>
      <point x="178" y="340"/>
      <point x="185" y="295"/>
      <point x="198" y="241" type="curve"/>
      <point x="242" y="296"/>
      <point x="275" y="350"/>
      <point x="290" y="380" type="curve"/>
      <point x="316" y="384"/>
      <point x="338" y="386"/>
      <point x="362" y="392" type="curve"/>
      <point x="306" y="340"/>
      <point x="264" y="295"/>
      <point x="205" y="211" type="curve"/>
      <point x="224" y="129"/>
      <point x="261" y="27"/>
      <point x="288" y="-2" type="curve" smooth="yes"/>
      <point x="289" y="-2"/>
      <point x="253" y="2"/>
      <point x="189" y="-1" type="curve"/>
      <point x="184" y="53"/>
      <point x="166" y="130"/>
      <point x="156" y="166" type="curve"/>
      <point x="114" y="102"/>
      <point x="84" y="48"/>
      <point x="64" y="2" type="curve"/>
      <point x="40" y="1"/>
      <point x="21" y="-2"/>
    </contour>
  </outline>
</glyph>
<glyph name="y" format="1">
  <advance width="400"/>
  <unicode hex="0079"/>
  <outline>
    <contour>
      <point x="-56" y="-285" type="curve"/>
      <point x="-61" y="-277"/>
      <point x="-61" y="-274"/>
      <point x="-62" y="-266" type="curve"/>
      <point x="25" y="-198"/>
      <point x="82" y="-129"/>
      <point x="134" y="-35" type="curve"/>
      <point x="125" y="37"/>
      <point x="81" y="310"/>
      <point x="51" y="385" type="curve"/>
      <point x="75" y="380"/>
      <point x="129" y="383"/>
      <point x="148" y="388" type="curve"/>
      <point x="141" y="330"/>
      <point x="160" y="161"/>
      <point x="188" y="58" type="curve"/>
      <point x="260" y="181"/>
      <point x="336" y="350"/>
      <point x="340" y="380" type="curve"/>
      <point x="355" y="379"/>
      <point x="392" y="385"/>
      <point x="418" y="393" type="curve"/>
      <point x="331" y="259"/>
      <point x="264" y="147"/>
      <point x="186" y="5" type="curve" smooth="yes"/>
      <point x="109" y="-136"/>
      <point x="57" y="-223"/>
    </contour>
  </outline>
</glyph>
<glyph name="braceright" format="1">
  <advance width="244"/>
  <unicode hex="007D"/>
  <outline>
    <contour>
      <point x="92" y="601" type="curve"/>
      <point x="124" y="573"/>
      <point x="181" y="532"/>
      <point x="181" y="493" type="curve"/>
      <point x="182" y="472"/>
      <point x="180" y="410"/>
      <point x="180" y="387" type="curve" smooth="yes"/>
      <point x="179" y="345"/>
      <point x="198" y="320"/>
      <point x="234" y="293" type="curve"/>
      <point x="236" y="284"/>
      <point x="233" y="276"/>
      <point x="230" y="270" type="curve"/>
      <point x="181" y="253"/>
      <point x="168" y="211"/>
      <point x="161" y="186" type="curve" smooth="yes"/>
      <point x="153" y="161"/>
      <point x="148" y="132"/>
      <point x="141" y="97" type="curve" smooth="yes"/>
      <point x="122" y="-12"/>
      <point x="89" y="-37"/>
      <point x="-27" y="-105" type="curve"/>
      <point x="-30" y="-97"/>
      <point x="-32" y="-95"/>
      <point x="-32" y="-83" type="curve"/>
      <point x="0" y="-57"/>
      <point x="32" y="-41"/>
      <point x="62" y="36" type="curve"/>
      <point x="76" y="69"/>
      <point x="90" y="134"/>
      <point x="101" y="173" type="curve"/>
      <point x="113" y="221"/>
      <point x="153" y="251"/>
      <point x="203" y="285" type="curve"/>
      <point x="151" y="325"/>
      <point x="127" y="347"/>
      <point x="121" y="395" type="curve" smooth="yes"/>
      <point x="117" y="425"/>
      <point x="117" y="464"/>
      <point x="117" y="494" type="curve" smooth="yes"/>
      <point x="117" y="534"/>
      <point x="106" y="553"/>
      <point x="77" y="586" type="curve"/>
      <point x="82" y="593"/>
      <point x="82" y="596"/>
    </contour>
  </outline>
</glyph>
<glyph name="asciitilde" format="1">
  <advance width="416"/>
  <unicode hex="007E"/>
  <outline>
    <contour>
      <point x="246" y="216" type="curve"/>
      <point x="222" y="216"/>
      <point x="172" y="243"/>
      <point x="148" y="243" type="curve" smooth="yes"/>
      <point x="113" y="243"/>
      <point x="87" y="231"/>
      <point x="51" y="210" type="curve"/>
      <point x="37" y="226" type="line"/>
      <point x="82" y="262"/>
      <point x="151" y="301"/>
      <point x="181" y="300" type="curve" smooth="yes"/>
      <point x="209" y="300"/>
      <point x="255" y="276"/>
      <point x="283" y="276" type="curve" smooth="yes"/>
      <point x="317" y="276"/>
      <point x="346" y="290"/>
      <point x="380" y="309" type="curve"/>
      <point x="393" y="290" type="line"/>
      <point x="340" y="247"/>
      <point x="276" y="214"/>
    </contour>
  </outline>
</glyph>
<glyph name="exclamdown" format="1">
  <advance width="205"/>
  <unicode hex="00A1"/>
  <outline>
    <contour>
      <point x="92" y="236" type="curve"/>
      <point x="118" y="240" type="line"/>
      <point x="100" y="100"/>
      <point x="78" y="-147"/>
      <point x="77" y="-195" type="curve"/>
      <point x="51" y="-197"/>
      <point x="24" y="-200"/>
      <point x="-6" y="-205" type="curve"/>
      <point x="17" y="-122"/>
      <point x="79" y="165"/>
    </contour>
    <contour>
      <point x="115" y="320" type="curve" smooth="yes"/>
      <point x="87" y="320"/>
      <point x="74" y="332"/>
      <point x="78" y="351" type="curve"/>
      <point x="81" y="376"/>
      <point x="112" y="390"/>
      <point x="139" y="390" type="curve" smooth="yes"/>
      <point x="159" y="390"/>
      <point x="174" y="379"/>
      <point x="172" y="361" type="curve"/>
      <point x="168" y="340"/>
      <point x="141" y="320"/>
    </contour>
  </outline>
</glyph>
<glyph name="cent" format="1">
  <advance width="416"/>
  <unicode hex="00A2"/>
  <outline>
    <contour>
      <point x="306" y="381" type="curve"/>
      <point x="305" y="370"/>
      <point x="304" y="370"/>
      <point x="299" y="358" type="curve"/>
      <point x="283" y="361"/>
      <point x="261" y="362"/>
      <point x="249" y="362" type="curve" smooth="yes"/>
      <point x="123" y="362"/>
      <point x="87" y="226"/>
      <point x="87" y="157" type="curve" smooth="yes"/>
      <point x="87" y="96"/>
      <point x="113" y="59"/>
      <point x="129" y="48" type="curve"/>
      <point x="147" y="58"/>
      <point x="216" y="105"/>
      <point x="248" y="132" type="curve"/>
      <point x="253" y="130"/>
      <point x="261" y="122"/>
      <point x="266" y="117" type="curve"/>
      <point x="228" y="87"/>
      <point x="159" y="36"/>
      <point x="110" y="-2" type="curve"/>
      <point x="100" y="-27"/>
      <point x="90" y="-52"/>
      <point x="80" y="-81" type="curve"/>
      <point x="68" y="-82"/>
      <point x="66" y="-81"/>
      <point x="56" y="-77" type="curve"/>
      <point x="65" y="-52"/>
      <point x="74" y="-27"/>
      <point x="81" y="-5" type="curve"/>
      <point x="49" y="21"/>
      <point x="27" y="67"/>
      <point x="27" y="123" type="curve" smooth="yes"/>
      <point x="27" y="276"/>
      <point x="109" y="371"/>
      <point x="225" y="385" type="curve"/>
      <point x="235" y="409"/>
      <point x="243" y="434"/>
      <point x="252" y="460" type="curve"/>
      <point x="261" y="462"/>
      <point x="273" y="459"/>
      <point x="277" y="454" type="curve"/>
      <point x="268" y="430"/>
      <point x="261" y="408"/>
      <point x="255" y="386" type="curve"/>
      <point x="278" y="386"/>
      <point x="300" y="384"/>
    </contour>
  </outline>
</glyph>
<glyph name="sterling" format="1">
  <advance width="403"/>
  <unicode hex="00A3"/>
  <outline>
    <contour>
      <point x="90" y="330" type="curve"/>
      <point x="103" y="329"/>
      <point x="117" y="329"/>
      <point x="130" y="329" type="curve"/>
      <point x="122" y="357"/>
      <point x="111" y="385"/>
      <point x="111" y="410" type="curve" smooth="yes"/>
      <point x="111" y="499"/>
      <point x="203" y="587"/>
      <point x="308" y="587" type="curve" smooth="yes"/>
      <point x="328" y="587"/>
      <point x="350" y="578"/>
      <point x="365" y="573" type="curve"/>
      <point x="363" y="562"/>
      <point x="361" y="558"/>
      <point x="354" y="552" type="curve"/>
      <point x="299" y="568"/>
      <point x="248" y="554"/>
      <point x="210" y="515" type="curve" smooth="yes"/>
      <point x="189" y="494"/>
      <point x="177" y="460"/>
      <point x="177" y="423" type="curve" smooth="yes"/>
      <point x="177" y="392"/>
      <point x="186" y="364"/>
      <point x="191" y="327" type="curve"/>
      <point x="246" y="327"/>
      <point x="295" y="327"/>
      <point x="342" y="328" type="curve"/>
      <point x="343" y="317"/>
      <point x="341" y="308"/>
      <point x="336" y="298" type="curve"/>
      <point x="275" y="300"/>
      <point x="241" y="300"/>
      <point x="194" y="300" type="curve"/>
      <point x="194" y="251"/>
      <point x="139" y="149"/>
      <point x="96" y="99" type="curve"/>
      <point x="176" y="66"/>
      <point x="276" y="57"/>
      <point x="383" y="72" type="curve"/>
      <point x="373" y="55"/>
      <point x="360" y="18"/>
      <point x="358" y="-12" type="curve"/>
      <point x="242" y="-9"/>
      <point x="144" y="8"/>
      <point x="67" y="43" type="curve"/>
      <point x="31" y="22"/>
      <point x="13" y="14"/>
      <point x="-21" y="-12" type="curve"/>
      <point x="-31" y="-11"/>
      <point x="-34" y="-9"/>
      <point x="-41" y="-1" type="curve"/>
      <point x="71" y="87"/>
      <point x="145" y="183"/>
      <point x="136" y="300" type="curve"/>
      <point x="87" y="300" type="line"/>
      <point x="83" y="309"/>
      <point x="87" y="324"/>
    </contour>
  </outline>
</glyph>
<glyph name="currency" format="1">
  <advance width="336"/>
  <unicode hex="00A4"/>
  <outline>
    <contour>
      <point x="94" y="477" type="curve" smooth="yes"/>
      <point x="94" y="500"/>
      <point x="102" y="523"/>
      <point x="117" y="542" type="curve"/>
      <point x="100" y="562"/>
      <point x="92" y="567"/>
      <point x="78" y="582" type="curve"/>
      <point x="82" y="591"/>
      <point x="87" y="597"/>
      <point x="97" y="601" type="curve"/>
      <point x="112" y="588"/>
      <point x="125" y="578"/>
      <point x="141" y="567" type="curve"/>
      <point x="160" y="581"/>
      <point x="183" y="590"/>
      <point x="207" y="590" type="curve" smooth="yes"/>
      <point x="235" y="590"/>
      <point x="261" y="582"/>
      <point x="280" y="566" type="curve"/>
      <point x="300" y="581"/>
      <point x="306" y="586"/>
      <point x="321" y="601" type="curve"/>
      <point x="330" y="597"/>
      <point x="336" y="592"/>
      <point x="340" y="582" type="curve"/>
      <point x="326" y="567"/>
      <point x="315" y="556"/>
      <point x="303" y="539" type="curve"/>
      <point x="314" y="523"/>
      <point x="320" y="501"/>
      <point x="320" y="477" type="curve" smooth="yes"/>
      <point x="320" y="452"/>
      <point x="310" y="428"/>
      <point x="295" y="409" type="curve"/>
      <point x="310" y="390"/>
      <point x="317" y="383"/>
      <point x="332" y="369" type="curve"/>
      <point x="328" y="360"/>
      <point x="323" y="354"/>
      <point x="313" y="350" type="curve"/>
      <point x="270" y="385" type="line"/>
      <point x="251" y="372"/>
      <point x="229" y="365"/>
      <point x="206" y="365" type="curve" smooth="yes"/>
      <point x="181" y="365"/>
      <point x="157" y="372"/>
      <point x="139" y="385" type="curve"/>
      <point x="119" y="369"/>
      <point x="112" y="363"/>
      <point x="98" y="349" type="curve"/>
      <point x="89" y="353"/>
      <point x="82" y="358"/>
      <point x="78" y="368" type="curve"/>
      <point x="90" y="380"/>
      <point x="103" y="393"/>
      <point x="114" y="409" type="curve"/>
      <point x="102" y="427"/>
      <point x="94" y="449"/>
    </contour>
    <contour>
      <point x="126" y="477" type="curve" smooth="yes"/>
      <point x="126" y="431"/>
      <point x="158" y="395"/>
      <point x="207" y="395" type="curve" smooth="yes"/>
      <point x="253" y="395"/>
      <point x="290" y="431"/>
      <point x="290" y="477" type="curve" smooth="yes"/>
      <point x="290" y="525"/>
      <point x="253" y="559"/>
      <point x="207" y="559" type="curve" smooth="yes"/>
      <point x="161" y="559"/>
      <point x="126" y="523"/>
    </contour>
  </outline>
</glyph>
<glyph name="yen" format="1">
  <advance width="454"/>
  <unicode hex="00A5"/>
  <outline>
    <contour>
      <point x="78" y="188" type="curve"/>
      <point x="183" y="185" type="line"/>
      <point x="186" y="205"/>
      <point x="191" y="231"/>
      <point x="193" y="248" type="curve"/>
      <point x="88" y="248" type="line"/>
      <point x="85" y="257"/>
      <point x="90" y="272"/>
      <point x="92" y="278" type="curve"/>
      <point x="127" y="276"/>
      <point x="161" y="276"/>
      <point x="195" y="275" type="curve"/>
      <point x="171" y="356"/>
      <point x="91" y="533"/>
      <point x="48" y="583" type="curve"/>
      <point x="97" y="579"/>
      <point x="120" y="579"/>
      <point x="161" y="583" type="curve"/>
      <point x="172" y="501"/>
      <point x="222" y="370"/>
      <point x="257" y="310" type="curve"/>
      <point x="334" y="395"/>
      <point x="398" y="497"/>
      <point x="429" y="578" type="curve"/>
      <point x="456" y="578"/>
      <point x="485" y="583"/>
      <point x="523" y="592" type="curve"/>
      <point x="416" y="482"/>
      <point x="354" y="390"/>
      <point x="266" y="275" type="curve"/>
      <point x="303" y="275"/>
      <point x="341" y="275"/>
      <point x="371" y="276" type="curve"/>
      <point x="372" y="266"/>
      <point x="370" y="256"/>
      <point x="365" y="246" type="curve"/>
      <point x="325" y="248"/>
      <point x="292" y="248"/>
      <point x="260" y="248" type="curve"/>
      <point x="256" y="228"/>
      <point x="250" y="203"/>
      <point x="248" y="185" type="curve"/>
      <point x="286" y="185"/>
      <point x="326" y="185"/>
      <point x="357" y="186" type="curve"/>
      <point x="357" y="175"/>
      <point x="355" y="166"/>
      <point x="350" y="156" type="curve"/>
      <point x="310" y="158"/>
      <point x="276" y="158"/>
      <point x="243" y="159" type="curve"/>
      <point x="235" y="96"/>
      <point x="235" y="42"/>
      <point x="241" y="-1" type="curve"/>
      <point x="205" y="2"/>
      <point x="166" y="3"/>
      <point x="135" y="-1" type="curve"/>
      <point x="151" y="37"/>
      <point x="166" y="98"/>
      <point x="178" y="159" type="curve"/>
      <point x="73" y="159" type="line"/>
      <point x="70" y="167"/>
      <point x="75" y="182"/>
    </contour>
  </outline>
</glyph>
<glyph name="brokenbar" format="1">
  <advance width="236"/>
  <unicode hex="00A6"/>
  <outline>
    <contour>
      <point x="135" y="603" type="curve"/>
      <point x="132" y="494"/>
      <point x="133" y="404"/>
      <point x="134" y="295" type="curve"/>
      <point x="123" y="293"/>
      <point x="113" y="291"/>
      <point x="102" y="292" type="curve"/>
      <point x="103" y="401"/>
      <point x="104" y="494"/>
      <point x="103" y="603" type="curve"/>
      <point x="112" y="604"/>
      <point x="129" y="604"/>
    </contour>
    <contour>
      <point x="134" y="229" type="curve"/>
      <point x="132" y="120"/>
      <point x="132" y="23"/>
      <point x="133" y="-86" type="curve"/>
      <point x="122" y="-87"/>
      <point x="112" y="-89"/>
      <point x="101" y="-88" type="curve"/>
      <point x="102" y="21"/>
      <point x="103" y="120"/>
      <point x="102" y="228" type="curve"/>
      <point x="111" y="230"/>
      <point x="128" y="230"/>
    </contour>
  </outline>
</glyph>
<glyph name="section" format="1">
  <advance width="359"/>
  <unicode hex="00A7"/>
  <outline>
    <contour>
      <point x="293" y="598" type="curve"/>
      <point x="302" y="593"/>
      <point x="305" y="587"/>
      <point x="308" y="579" type="curve"/>
      <point x="246" y="538"/>
      <point x="216" y="498"/>
      <point x="218" y="452" type="curve" smooth="yes"/>
      <point x="220" y="405"/>
      <point x="235" y="390"/>
      <point x="266" y="343" type="curve" smooth="yes"/>
      <point x="295" y="298"/>
      <point x="317" y="256"/>
      <point x="317" y="207" type="curve" smooth="yes"/>
      <point x="317" y="138"/>
      <point x="279" y="82"/>
      <point x="210" y="32" type="curve"/>
      <point x="218" y="-92"/>
      <point x="59" y="-163"/>
      <point x="-46" y="-149" type="curve"/>
      <point x="-47" y="-143"/>
      <point x="-44" y="-128"/>
      <point x="-42" y="-124" type="curve"/>
      <point x="64" y="-135"/>
      <point x="142" y="-72"/>
      <point x="142" y="2" type="curve" smooth="yes"/>
      <point x="142" y="58"/>
      <point x="117" y="110"/>
      <point x="91" y="152" type="curve" smooth="yes"/>
      <point x="65" y="195"/>
      <point x="44" y="231"/>
      <point x="44" y="275" type="curve" smooth="yes"/>
      <point x="44" y="372"/>
      <point x="193" y="523"/>
    </contour>
    <contour>
      <point x="251" y="170" type="curve" smooth="yes"/>
      <point x="251" y="216"/>
      <point x="235" y="262"/>
      <point x="208" y="302" type="curve" smooth="yes"/>
      <point x="177" y="349"/>
      <point x="156" y="391"/>
      <point x="161" y="441" type="curve"/>
      <point x="127" y="402"/>
      <point x="99" y="344"/>
      <point x="101" y="310" type="curve"/>
      <point x="102" y="264"/>
      <point x="119" y="241"/>
      <point x="149" y="193" type="curve" smooth="yes"/>
      <point x="169" y="161"/>
      <point x="196" y="107"/>
      <point x="208" y="57" type="curve"/>
      <point x="244" y="90"/>
      <point x="251" y="132"/>
    </contour>
  </outline>
</glyph>
<glyph name="dieresis" format="1">
  <advance width="416"/>
  <unicode hex="00A8"/>
  <outline>
    <contour>
      <point x="321" y="513" type="curve" smooth="yes"/>
      <point x="344" y="513"/>
      <point x="355" y="503"/>
      <point x="355" y="487" type="curve" smooth="yes"/>
      <point x="355" y="468"/>
      <point x="331" y="456"/>
      <point x="310" y="456" type="curve" smooth="yes"/>
      <point x="293" y="456"/>
      <point x="280" y="465"/>
      <point x="280" y="479" type="curve" smooth="yes"/>
      <point x="280" y="497"/>
      <point x="300" y="513"/>
    </contour>
    <contour>
      <point x="177" y="513" type="curve" smooth="yes"/>
      <point x="200" y="513"/>
      <point x="211" y="503"/>
      <point x="211" y="487" type="curve" smooth="yes"/>
      <point x="211" y="468"/>
      <point x="187" y="456"/>
      <point x="166" y="456" type="curve" smooth="yes"/>
      <point x="149" y="456"/>
      <point x="136" y="465"/>
      <point x="136" y="479" type="curve" smooth="yes"/>
      <point x="136" y="497"/>
      <point x="156" y="513"/>
    </contour>
  </outline>
</glyph>
<glyph name="copyright" format="1">
  <advance width="697"/>
  <unicode hex="00A9"/>
  <outline>
    <contour>
      <point x="13" y="268" type="curve" smooth="yes"/>
      <point x="13" y="449"/>
      <point x="160" y="595"/>
      <point x="340" y="595" type="curve" smooth="yes"/>
      <point x="521" y="595"/>
      <point x="667" y="449"/>
      <point x="667" y="268" type="curve" smooth="yes"/>
      <point x="667" y="87"/>
      <point x="521" y="-59"/>
      <point x="340" y="-59" type="curve" smooth="yes"/>
      <point x="160" y="-59"/>
      <point x="13" y="87"/>
    </contour>
    <contour>
      <point x="47" y="268" type="curve" smooth="yes"/>
      <point x="47" y="107"/>
      <point x="180" y="-28"/>
      <point x="340" y="-28" type="curve" smooth="yes"/>
      <point x="504" y="-28"/>
      <point x="637" y="107"/>
      <point x="637" y="268" type="curve" smooth="yes"/>
      <point x="637" y="431"/>
      <point x="504" y="567"/>
      <point x="340" y="567" type="curve" smooth="yes"/>
      <point x="180" y="567"/>
      <point x="47" y="431"/>
    </contour>
    <contour>
      <point x="332" y="37" type="curve"/>
      <point x="189" y="40"/>
      <point x="133" y="143"/>
      <point x="133" y="236" type="curve" smooth="yes"/>
      <point x="133" y="363"/>
      <point x="227" y="504"/>
      <point x="395" y="504" type="curve" smooth="yes"/>
      <point x="419" y="504"/>
      <point x="458" y="493"/>
      <point x="482" y="476" type="curve"/>
      <point x="482" y="474"/>
      <point x="474" y="456"/>
      <point x="470" y="455" type="curve"/>
      <point x="453" y="467"/>
      <point x="413" y="472"/>
      <point x="390" y="472" type="curve" smooth="yes"/>
      <point x="277" y="472"/>
      <point x="189" y="377"/>
      <point x="189" y="239" type="curve" smooth="yes"/>
      <point x="189" y="167"/>
      <point x="242" y="77"/>
      <point x="353" y="75" type="curve" smooth="yes"/>
      <point x="393" y="74"/>
      <point x="440" y="89"/>
      <point x="486" y="112" type="curve"/>
      <point x="491" y="108"/>
      <point x="491" y="100"/>
      <point x="494" y="90" type="curve"/>
      <point x="453" y="67"/>
      <point x="384" y="37"/>
    </contour>
  </outline>
</glyph>
<glyph name="ordfeminine" format="1">
  <advance width="400"/>
  <unicode hex="00AA"/>
  <outline>
    <contour>
      <point x="399" y="585" type="curve"/>
      <point x="366" y="549"/>
      <point x="320" y="298"/>
      <point x="328" y="236" type="curve"/>
      <point x="308" y="238"/>
      <point x="275" y="241"/>
      <point x="246" y="236" type="curve"/>
      <point x="246" y="254"/>
      <point x="267" y="341"/>
      <point x="275" y="377" type="curve"/>
      <point x="225" y="332"/>
      <point x="155" y="272"/>
      <point x="100" y="226" type="curve"/>
      <point x="81" y="239"/>
      <point x="67" y="280"/>
      <point x="67" y="324" type="curve" smooth="yes"/>
      <point x="67" y="404"/>
      <point x="114" y="496"/>
      <point x="171" y="543" type="curve" smooth="yes"/>
      <point x="212" y="576"/>
      <point x="265" y="585"/>
      <point x="288" y="586" type="curve" smooth="yes"/>
      <point x="327" y="587"/>
      <point x="367" y="587"/>
    </contour>
    <contour>
      <point x="312" y="561" type="curve"/>
      <point x="274" y="565"/>
      <point x="232" y="555"/>
      <point x="201" y="529" type="curve" smooth="yes"/>
      <point x="151" y="487"/>
      <point x="132" y="418"/>
      <point x="132" y="371" type="curve" smooth="yes"/>
      <point x="132" y="343"/>
      <point x="135" y="328"/>
      <point x="147" y="305" type="curve"/>
      <point x="175" y="324"/>
      <point x="265" y="397"/>
      <point x="283" y="414" type="curve"/>
      <point x="290" y="438"/>
      <point x="311" y="531"/>
    </contour>
  </outline>
</glyph>
<glyph name="guillemotleft" format="1">
  <advance width="320"/>
  <unicode hex="00AB"/>
  <outline>
    <contour>
      <point x="121" y="57" type="curve"/>
      <point x="117" y="52"/>
      <point x="109" y="47"/>
      <point x="99" y="44" type="curve"/>
      <point x="84" y="86"/>
      <point x="59" y="135"/>
      <point x="30" y="188" type="curve"/>
      <point x="65" y="229"/>
      <point x="118" y="291"/>
      <point x="149" y="334" type="curve"/>
      <point x="156" y="331"/>
      <point x="161" y="327"/>
      <point x="166" y="320" type="curve"/>
      <point x="136" y="271"/>
      <point x="114" y="231"/>
      <point x="98" y="189" type="curve"/>
      <point x="100" y="148"/>
      <point x="109" y="108"/>
    </contour>
    <contour>
      <point x="247" y="57" type="curve"/>
      <point x="243" y="52"/>
      <point x="236" y="47"/>
      <point x="226" y="44" type="curve"/>
      <point x="211" y="86"/>
      <point x="186" y="135"/>
      <point x="157" y="188" type="curve"/>
      <point x="192" y="229"/>
      <point x="246" y="291"/>
      <point x="276" y="334" type="curve"/>
      <point x="283" y="331"/>
      <point x="288" y="327"/>
      <point x="293" y="320" type="curve"/>
      <point x="265" y="271"/>
      <point x="241" y="231"/>
      <point x="226" y="189" type="curve"/>
      <point x="227" y="148"/>
      <point x="236" y="109"/>
    </contour>
  </outline>
</glyph>
<glyph name="uni00AD" format="1">
  <advance width="0"/>
  <unicode hex="00AD"/>
  <outline>
    <contour>
      <point x="-67" y="269" type="curve"/>
      <point x="-37" y="270"/>
      <point x="55" y="286"/>
      <point x="77" y="292" type="curve"/>
      <point x="79" y="280"/>
      <point x="80" y="256"/>
      <point x="77" y="251" type="curve"/>
      <point x="46" y="249"/>
      <point x="-37" y="236"/>
      <point x="-64" y="230" type="curve"/>
      <point x="-67" y="240"/>
      <point x="-67" y="257"/>
    </contour>
  </outline>
</glyph>
<glyph name="registered" format="1">
  <advance width="697"/>
  <unicode hex="00AE"/>
  <outline>
    <contour>
      <point x="13" y="268" type="curve" smooth="yes"/>
      <point x="13" y="449"/>
      <point x="160" y="595"/>
      <point x="340" y="595" type="curve" smooth="yes"/>
      <point x="521" y="595"/>
      <point x="667" y="449"/>
      <point x="667" y="268" type="curve" smooth="yes"/>
      <point x="667" y="87"/>
      <point x="521" y="-59"/>
      <point x="340" y="-59" type="curve" smooth="yes"/>
      <point x="160" y="-59"/>
      <point x="13" y="87"/>
    </contour>
    <contour>
      <point x="283" y="491" type="curve" smooth="yes"/>
      <point x="343" y="491"/>
      <point x="469" y="501"/>
      <point x="469" y="420" type="curve" smooth="yes"/>
      <point x="469" y="384"/>
      <point x="423" y="336"/>
      <point x="360" y="310" type="curve"/>
      <point x="403" y="233"/>
      <point x="487" y="111"/>
      <point x="542" y="53" type="curve"/>
      <point x="599" y="107"/>
      <point x="635" y="184"/>
      <point x="635" y="268" type="curve" smooth="yes"/>
      <point x="635" y="431"/>
      <point x="504" y="565"/>
      <point x="340" y="565" type="curve" smooth="yes"/>
      <point x="180" y="565"/>
      <point x="48" y="431"/>
      <point x="48" y="268" type="curve" smooth="yes"/>
      <point x="48" y="107"/>
      <point x="180" y="-27"/>
      <point x="340" y="-27" type="curve" smooth="yes"/>
      <point x="415" y="-27"/>
      <point x="483" y="1"/>
      <point x="535" y="47" type="curve"/>
      <point x="517" y="48"/>
      <point x="486" y="50"/>
      <point x="468" y="44" type="curve"/>
      <point x="435" y="98"/>
      <point x="341" y="246"/>
      <point x="295" y="305" type="curve"/>
      <point x="299" y="310"/>
      <point x="304" y="317"/>
      <point x="307" y="318" type="curve" smooth="yes"/>
      <point x="361" y="327"/>
      <point x="410" y="364"/>
      <point x="410" y="404" type="curve" smooth="yes"/>
      <point x="410" y="472"/>
      <point x="315" y="469"/>
      <point x="253" y="466" type="curve"/>
      <point x="247" y="391"/>
      <point x="250" y="191"/>
      <point x="256" y="48" type="curve"/>
      <point x="232" y="51"/>
      <point x="215" y="52"/>
      <point x="191" y="42" type="curve"/>
      <point x="203" y="128"/>
      <point x="198" y="436"/>
      <point x="194" y="492" type="curve"/>
      <point x="214" y="489"/>
      <point x="257" y="491"/>
    </contour>
  </outline>
</glyph>
<glyph name="macron" format="1">
  <advance width="416"/>
  <unicode hex="00AF"/>
  <outline>
    <contour>
      <point x="85" y="504" type="curve"/>
      <point x="186" y="502"/>
      <point x="251" y="502"/>
      <point x="325" y="503" type="curve"/>
      <point x="326" y="492"/>
      <point x="325" y="481"/>
      <point x="320" y="471" type="curve"/>
      <point x="223" y="474"/>
      <point x="206" y="475"/>
      <point x="82" y="474" type="curve"/>
      <point x="78" y="482"/>
      <point x="82" y="499"/>
    </contour>
  </outline>
</glyph>
<glyph name="degree" format="1">
  <advance width="416"/>
  <unicode hex="00B0"/>
  <outline>
    <contour>
      <point x="97" y="477" type="curve" smooth="yes"/>
      <point x="97" y="536"/>
      <point x="151" y="590"/>
      <point x="211" y="590" type="curve" smooth="yes"/>
      <point x="273" y="590"/>
      <point x="323" y="548"/>
      <point x="323" y="477" type="curve" smooth="yes"/>
      <point x="323" y="417"/>
      <point x="270" y="365"/>
      <point x="210" y="365" type="curve" smooth="yes"/>
      <point x="147" y="365"/>
      <point x="97" y="407"/>
    </contour>
    <contour>
      <point x="129" y="477" type="curve" smooth="yes"/>
      <point x="129" y="431"/>
      <point x="161" y="395"/>
      <point x="211" y="395" type="curve" smooth="yes"/>
      <point x="256" y="395"/>
      <point x="293" y="431"/>
      <point x="293" y="477" type="curve" smooth="yes"/>
      <point x="293" y="525"/>
      <point x="256" y="559"/>
      <point x="211" y="559" type="curve" smooth="yes"/>
      <point x="165" y="559"/>
      <point x="129" y="523"/>
    </contour>
  </outline>
</glyph>
<glyph name="plusminus" format="1">
  <advance width="416"/>
  <unicode hex="00B1"/>
  <outline>
    <contour>
      <point x="38" y="61" type="curve"/>
      <point x="82" y="59"/>
      <point x="132" y="59"/>
      <point x="182" y="58" type="curve"/>
      <point x="183" y="101"/>
      <point x="184" y="150"/>
      <point x="184" y="193" type="curve"/>
      <point x="138" y="194"/>
      <point x="90" y="194"/>
      <point x="35" y="193" type="curve"/>
      <point x="32" y="201"/>
      <point x="36" y="218"/>
      <point x="38" y="224" type="curve"/>
      <point x="82" y="222"/>
      <point x="134" y="221"/>
      <point x="184" y="221" type="curve"/>
      <point x="185" y="271"/>
      <point x="185" y="317"/>
      <point x="184" y="365" type="curve"/>
      <point x="192" y="367"/>
      <point x="208" y="367"/>
      <point x="214" y="366" type="curve"/>
      <point x="212" y="317"/>
      <point x="212" y="271"/>
      <point x="212" y="221" type="curve"/>
      <point x="265" y="221"/>
      <point x="319" y="221"/>
      <point x="354" y="222" type="curve"/>
      <point x="355" y="211"/>
      <point x="353" y="201"/>
      <point x="348" y="191" type="curve"/>
      <point x="303" y="192"/>
      <point x="259" y="193"/>
      <point x="212" y="193" type="curve"/>
      <point x="212" y="58" type="line"/>
      <point x="266" y="58"/>
      <point x="319" y="58"/>
      <point x="354" y="59" type="curve"/>
      <point x="355" y="48"/>
      <point x="353" y="37"/>
      <point x="348" y="27" type="curve"/>
      <point x="251" y="30"/>
      <point x="160" y="31"/>
      <point x="35" y="30" type="curve"/>
      <point x="32" y="38"/>
      <point x="36" y="55"/>
    </contour>
  </outline>
</glyph>
<glyph name="twosuperior" format="1">
  <advance width="327"/>
  <unicode hex="00B2"/>
  <outline>
    <contour>
      <point x="117" y="567" type="curve"/>
      <point x="153" y="580"/>
      <point x="196" y="590"/>
      <point x="227" y="590" type="curve"/>
      <point x="263" y="592"/>
      <point x="302" y="572"/>
      <point x="302" y="531" type="curve" smooth="yes"/>
      <point x="302" y="479"/>
      <point x="210" y="379"/>
      <point x="136" y="310" type="curve"/>
      <point x="174" y="296"/>
      <point x="261" y="290"/>
      <point x="300" y="299" type="curve"/>
      <point x="286" y="280"/>
      <point x="274" y="243"/>
      <point x="272" y="231" type="curve"/>
      <point x="213" y="230"/>
      <point x="138" y="241"/>
      <point x="96" y="260" type="curve"/>
      <point x="77" y="249"/>
      <point x="65" y="240"/>
      <point x="47" y="227" type="curve"/>
      <point x="43" y="227"/>
      <point x="38" y="236"/>
      <point x="37" y="239" type="curve"/>
      <point x="104" y="301"/>
      <point x="236" y="425"/>
      <point x="236" y="524" type="curve" smooth="yes"/>
      <point x="236" y="548"/>
      <point x="225" y="561"/>
      <point x="193" y="561" type="curve" smooth="yes"/>
      <point x="172" y="561"/>
      <point x="141" y="556"/>
      <point x="120" y="550" type="curve"/>
      <point x="117" y="554"/>
      <point x="117" y="562"/>
    </contour>
  </outline>
</glyph>
<glyph name="threesuperior" format="1">
  <advance width="288"/>
  <unicode hex="00B3"/>
  <outline>
    <contour>
      <point x="98" y="572" type="curve"/>
      <point x="127" y="581"/>
      <point x="171" y="590"/>
      <point x="196" y="590" type="curve" smooth="yes"/>
      <point x="234" y="590"/>
      <point x="282" y="578"/>
      <point x="282" y="538" type="curve" smooth="yes"/>
      <point x="282" y="503"/>
      <point x="245" y="478"/>
      <point x="196" y="454" type="curve"/>
      <point x="252" y="454"/>
      <point x="278" y="429"/>
      <point x="278" y="385" type="curve" smooth="yes"/>
      <point x="278" y="315"/>
      <point x="148" y="237"/>
      <point x="52" y="214" type="curve"/>
      <point x="37" y="231" type="line"/>
      <point x="122" y="253"/>
      <point x="211" y="325"/>
      <point x="211" y="380" type="curve" smooth="yes"/>
      <point x="211" y="414"/>
      <point x="197" y="434"/>
      <point x="156" y="434" type="curve" smooth="yes"/>
      <point x="139" y="434"/>
      <point x="134" y="432"/>
      <point x="126" y="432" type="curve"/>
      <point x="123" y="435"/>
      <point x="122" y="449"/>
      <point x="122" y="453" type="curve"/>
      <point x="179" y="465"/>
      <point x="219" y="489"/>
      <point x="219" y="530" type="curve" smooth="yes"/>
      <point x="219" y="556"/>
      <point x="201" y="563"/>
      <point x="173" y="563" type="curve" smooth="yes"/>
      <point x="155" y="563"/>
      <point x="122" y="558"/>
      <point x="103" y="553" type="curve"/>
      <point x="100" y="556"/>
      <point x="98" y="568"/>
    </contour>
  </outline>
</glyph>
<glyph name="acute" format="1">
  <advance width="416"/>
  <unicode hex="00B4"/>
  <outline>
    <contour>
      <point x="330" y="568" type="curve"/>
      <point x="330" y="549"/>
      <point x="334" y="524"/>
      <point x="340" y="505" type="curve"/>
      <point x="270" y="492"/>
      <point x="220" y="481"/>
      <point x="151" y="461" type="curve"/>
      <point x="147" y="479" type="line"/>
      <point x="211" y="506"/>
      <point x="290" y="545"/>
    </contour>
  </outline>
</glyph>
<glyph name="mu" format="1">
  <advance width="403"/>
  <unicode hex="00B5"/>
  <unicode hex="03bc"/>
  <outline>
    <contour>
      <point x="90" y="385" type="curve"/>
      <point x="112" y="380"/>
      <point x="139" y="382"/>
      <point x="172" y="385" type="curve"/>
      <point x="143" y="316"/>
      <point x="127" y="230"/>
      <point x="115" y="166" type="curve" smooth="yes"/>
      <point x="105" y="110"/>
      <point x="114" y="74"/>
      <point x="130" y="56" type="curve"/>
      <point x="182" y="101"/>
      <point x="216" y="133"/>
      <point x="274" y="189" type="curve"/>
      <point x="285" y="232"/>
      <point x="303" y="325"/>
      <point x="310" y="386" type="curve"/>
      <point x="329" y="382"/>
      <point x="360" y="380"/>
      <point x="390" y="385" type="curve"/>
      <point x="358" y="317"/>
      <point x="305" y="61"/>
      <point x="311" y="-1" type="curve"/>
      <point x="295" y="2"/>
      <point x="259" y="2"/>
      <point x="227" y="-2" type="curve"/>
      <point x="239" y="31"/>
      <point x="249" y="72"/>
      <point x="264" y="147" type="curve"/>
      <point x="206" y="89"/>
      <point x="166" y="50"/>
      <point x="92" y="-17" type="curve"/>
      <point x="80" y="-9"/>
      <point x="60" y="16"/>
      <point x="53" y="41" type="curve"/>
      <point x="30" y="-86"/>
      <point x="17" y="-237"/>
      <point x="18" y="-257" type="curve"/>
      <point x="-9" y="-263"/>
      <point x="-25" y="-264"/>
      <point x="-58" y="-280" type="curve"/>
      <point x="-22" y="-200"/>
      <point x="78" y="256"/>
    </contour>
  </outline>
</glyph>
<glyph name="paragraph" format="1">
  <advance width="518"/>
  <unicode hex="00B6"/>
  <outline>
    <contour>
      <point x="415" y="-1" type="curve"/>
      <point x="329" y="0" type="line"/>
      <point x="375" y="206"/>
      <point x="402" y="369"/>
      <point x="425" y="556" type="curve"/>
      <point x="419" y="557"/>
      <point x="405" y="558"/>
      <point x="391" y="558" type="curve"/>
      <point x="350" y="350"/>
      <point x="325" y="211"/>
      <point x="290" y="0" type="curve"/>
      <point x="280" y="1"/>
      <point x="269" y="2"/>
      <point x="257" y="-1" type="curve"/>
      <point x="298" y="196"/>
      <point x="326" y="352"/>
      <point x="362" y="559" type="curve"/>
      <point x="290" y="558"/>
      <point x="153" y="520"/>
      <point x="136" y="392" type="curve"/>
      <point x="127" y="339"/>
      <point x="162" y="312"/>
      <point x="195" y="312" type="curve" smooth="yes"/>
      <point x="221" y="312"/>
      <point x="246" y="319"/>
      <point x="262" y="325" type="curve"/>
      <point x="266" y="320"/>
      <point x="268" y="311"/>
      <point x="268" y="303" type="curve"/>
      <point x="239" y="290"/>
      <point x="211" y="282"/>
      <point x="176" y="282" type="curve" smooth="yes"/>
      <point x="79" y="282"/>
      <point x="54" y="332"/>
      <point x="54" y="377" type="curve" smooth="yes"/>
      <point x="54" y="475"/>
      <point x="189" y="576"/>
      <point x="371" y="584" type="curve"/>
      <point x="406" y="584"/>
      <point x="472" y="587"/>
      <point x="509" y="583" type="curve"/>
      <point x="484" y="508"/>
      <point x="414" y="81"/>
    </contour>
  </outline>
</glyph>
<glyph name="cedilla" format="1">
  <advance width="416"/>
  <unicode hex="00B8"/>
  <outline>
    <contour>
      <point x="51" y="-71" type="curve"/>
      <point x="134" y="14" type="line"/>
      <point x="134" y="14"/>
      <point x="146" y="10"/>
      <point x="153" y="2" type="curve"/>
      <point x="142" y="-7"/>
      <point x="122" y="-30"/>
      <point x="112" y="-42" type="curve"/>
      <point x="177" y="-47"/>
      <point x="201" y="-74"/>
      <point x="201" y="-118" type="curve" smooth="yes"/>
      <point x="201" y="-144"/>
      <point x="138" y="-215"/>
      <point x="107" y="-241" type="curve"/>
      <point x="99" y="-236"/>
      <point x="97" y="-235"/>
      <point x="93" y="-228" type="curve"/>
      <point x="122" y="-201"/>
      <point x="148" y="-164"/>
      <point x="148" y="-139" type="curve" smooth="yes"/>
      <point x="148" y="-110"/>
      <point x="118" y="-82"/>
      <point x="60" y="-87" type="curve"/>
      <point x="54" y="-82"/>
      <point x="53" y="-77"/>
    </contour>
  </outline>
</glyph>
<glyph name="ordmasculine" format="1">
  <advance width="305"/>
  <unicode hex="00BA"/>
  <outline>
    <contour>
      <point x="135" y="218" type="curve"/>
      <point x="90" y="242"/>
      <point x="61" y="309"/>
      <point x="62" y="359" type="curve"/>
      <point x="67" y="473"/>
      <point x="145" y="549"/>
      <point x="236" y="603" type="curve"/>
      <point x="284" y="572"/>
      <point x="300" y="515"/>
      <point x="300" y="464" type="curve"/>
      <point x="297" y="361"/>
      <point x="219" y="272"/>
    </contour>
    <contour>
      <point x="118" y="400" type="curve" smooth="yes"/>
      <point x="117" y="365"/>
      <point x="129" y="310"/>
      <point x="169" y="277" type="curve"/>
      <point x="222" y="315"/>
      <point x="241" y="377"/>
      <point x="241" y="437" type="curve" smooth="yes"/>
      <point x="241" y="485"/>
      <point x="219" y="531"/>
      <point x="201" y="548" type="curve"/>
      <point x="156" y="521"/>
      <point x="119" y="457"/>
    </contour>
  </outline>
</glyph>
<glyph name="guillemotright" format="1">
  <advance width="320"/>
  <unicode hex="00BB"/>
  <outline>
    <contour>
      <point x="191" y="321" type="curve"/>
      <point x="195" y="326"/>
      <point x="202" y="331"/>
      <point x="212" y="334" type="curve"/>
      <point x="227" y="292"/>
      <point x="252" y="243"/>
      <point x="281" y="190" type="curve"/>
      <point x="246" y="149"/>
      <point x="193" y="87"/>
      <point x="162" y="44" type="curve"/>
      <point x="156" y="47"/>
      <point x="151" y="51"/>
      <point x="146" y="57" type="curve"/>
      <point x="175" y="107"/>
      <point x="197" y="147"/>
      <point x="213" y="189" type="curve"/>
      <point x="211" y="230"/>
      <point x="202" y="270"/>
    </contour>
    <contour>
      <point x="64" y="320" type="curve"/>
      <point x="68" y="325"/>
      <point x="75" y="331"/>
      <point x="85" y="334" type="curve"/>
      <point x="100" y="292"/>
      <point x="125" y="243"/>
      <point x="154" y="190" type="curve"/>
      <point x="119" y="149"/>
      <point x="66" y="87"/>
      <point x="35" y="44" type="curve"/>
      <point x="28" y="47"/>
      <point x="23" y="51"/>
      <point x="18" y="57" type="curve"/>
      <point x="47" y="107"/>
      <point x="70" y="147"/>
      <point x="86" y="189" type="curve"/>
      <point x="84" y="230"/>
      <point x="76" y="269"/>
    </contour>
  </outline>
</glyph>
<glyph name="onequarter" format="1">
  <advance width="697"/>
  <unicode hex="00BC"/>
  <outline>
    <contour>
      <point x="516" y="-2" type="curve"/>
      <point x="528" y="27"/>
      <point x="539" y="76"/>
      <point x="546" y="121" type="curve"/>
      <point x="498" y="122"/>
      <point x="434" y="122"/>
      <point x="397" y="122" type="curve"/>
      <point x="394" y="124"/>
      <point x="393" y="132"/>
      <point x="391" y="136" type="curve"/>
      <point x="448" y="200"/>
      <point x="548" y="320"/>
      <point x="590" y="374" type="curve"/>
      <point x="594" y="372"/>
      <point x="603" y="363"/>
      <point x="606" y="359" type="curve"/>
      <point x="553" y="295"/>
      <point x="490" y="211"/>
      <point x="442" y="146" type="curve"/>
      <point x="479" y="144"/>
      <point x="518" y="143"/>
      <point x="549" y="143" type="curve"/>
      <point x="555" y="166"/>
      <point x="560" y="199"/>
      <point x="561" y="231" type="curve"/>
      <point x="577" y="231"/>
      <point x="623" y="237"/>
      <point x="640" y="246" type="curve"/>
      <point x="630" y="222"/>
      <point x="625" y="192"/>
      <point x="614" y="143" type="curve"/>
      <point x="623" y="143"/>
      <point x="632" y="143"/>
      <point x="643" y="145" type="curve"/>
      <point x="642" y="135"/>
      <point x="639" y="127"/>
      <point x="635" y="119" type="curve"/>
      <point x="609" y="119" type="line"/>
      <point x="604" y="98"/>
      <point x="596" y="32"/>
      <point x="596" y="0" type="curve"/>
      <point x="581" y="2"/>
      <point x="536" y="4"/>
    </contour>
    <contour>
      <point x="103" y="229" type="curve"/>
      <point x="134" y="322"/>
      <point x="161" y="480"/>
      <point x="168" y="539" type="curve"/>
      <point x="139" y="538"/>
      <point x="110" y="533"/>
      <point x="82" y="527" type="curve"/>
      <point x="79" y="529"/>
      <point x="78" y="543"/>
      <point x="78" y="545" type="curve"/>
      <point x="106" y="552"/>
      <point x="199" y="576"/>
      <point x="236" y="591" type="curve"/>
      <point x="242" y="589"/>
      <point x="244" y="588"/>
      <point x="249" y="584" type="curve"/>
      <point x="227" y="522"/>
      <point x="198" y="360"/>
      <point x="190" y="236" type="curve"/>
      <point x="166" y="236"/>
      <point x="127" y="234"/>
    </contour>
    <contour>
      <point x="613" y="593" type="curve"/>
      <point x="463" y="422"/>
      <point x="228" y="151"/>
      <point x="84" y="-20" type="curve"/>
      <point x="74" y="-16"/>
      <point x="64" y="-14"/>
      <point x="55" y="-6" type="curve"/>
      <point x="203" y="166"/>
      <point x="441" y="435"/>
      <point x="584" y="607" type="curve"/>
      <point x="593" y="604"/>
      <point x="609" y="598"/>
    </contour>
  </outline>
</glyph>
<glyph name="onehalf" format="1">
  <advance width="704"/>
  <unicode hex="00BD"/>
  <outline>
    <contour>
      <point x="613" y="593" type="curve"/>
      <point x="463" y="422"/>
      <point x="228" y="151"/>
      <point x="84" y="-20" type="curve"/>
      <point x="74" y="-16"/>
      <point x="64" y="-14"/>
      <point x="55" y="-6" type="curve"/>
      <point x="203" y="166"/>
      <point x="441" y="435"/>
      <point x="584" y="607" type="curve"/>
      <point x="593" y="604"/>
      <point x="609" y="598"/>
    </contour>
    <contour>
      <point x="103" y="229" type="curve"/>
      <point x="134" y="322"/>
      <point x="161" y="480"/>
      <point x="168" y="539" type="curve"/>
      <point x="139" y="538"/>
      <point x="110" y="533"/>
      <point x="82" y="527" type="curve"/>
      <point x="79" y="529"/>
      <point x="78" y="543"/>
      <point x="78" y="545" type="curve"/>
      <point x="106" y="552"/>
      <point x="199" y="576"/>
      <point x="236" y="591" type="curve"/>
      <point x="242" y="589"/>
      <point x="244" y="588"/>
      <point x="249" y="584" type="curve"/>
      <point x="227" y="522"/>
      <point x="198" y="360"/>
      <point x="190" y="236" type="curve"/>
      <point x="166" y="236"/>
      <point x="127" y="234"/>
    </contour>
    <contour>
      <point x="473" y="331" type="curve"/>
      <point x="509" y="344"/>
      <point x="552" y="354"/>
      <point x="583" y="354" type="curve"/>
      <point x="619" y="356"/>
      <point x="658" y="336"/>
      <point x="658" y="295" type="curve" smooth="yes"/>
      <point x="658" y="243"/>
      <point x="566" y="143"/>
      <point x="492" y="74" type="curve"/>
      <point x="530" y="60"/>
      <point x="617" y="54"/>
      <point x="656" y="63" type="curve"/>
      <point x="642" y="44"/>
      <point x="630" y="7"/>
      <point x="628" y="-5" type="curve"/>
      <point x="569" y="-6"/>
      <point x="494" y="5"/>
      <point x="452" y="24" type="curve"/>
      <point x="433" y="13"/>
      <point x="421" y="4"/>
      <point x="403" y="-9" type="curve"/>
      <point x="399" y="-9"/>
      <point x="394" y="0"/>
      <point x="393" y="3" type="curve"/>
      <point x="460" y="65"/>
      <point x="592" y="189"/>
      <point x="592" y="288" type="curve" smooth="yes"/>
      <point x="592" y="312"/>
      <point x="581" y="325"/>
      <point x="549" y="325" type="curve" smooth="yes"/>
      <point x="528" y="325"/>
      <point x="497" y="320"/>
      <point x="476" y="314" type="curve"/>
      <point x="473" y="318"/>
      <point x="473" y="326"/>
    </contour>
  </outline>
</glyph>
<glyph name="threequarters" format="1">
  <advance width="686"/>
  <unicode hex="00BE"/>
  <outline>
    <contour>
      <point x="530" y="-2" type="curve"/>
      <point x="542" y="27"/>
      <point x="553" y="76"/>
      <point x="560" y="121" type="curve"/>
      <point x="512" y="122"/>
      <point x="448" y="122"/>
      <point x="411" y="122" type="curve"/>
      <point x="408" y="124"/>
      <point x="407" y="132"/>
      <point x="405" y="136" type="curve"/>
      <point x="462" y="200"/>
      <point x="562" y="320"/>
      <point x="604" y="374" type="curve"/>
      <point x="608" y="372"/>
      <point x="617" y="363"/>
      <point x="620" y="359" type="curve"/>
      <point x="567" y="295"/>
      <point x="504" y="211"/>
      <point x="456" y="146" type="curve"/>
      <point x="494" y="144"/>
      <point x="532" y="143"/>
      <point x="563" y="143" type="curve"/>
      <point x="569" y="166"/>
      <point x="574" y="199"/>
      <point x="575" y="231" type="curve"/>
      <point x="591" y="231"/>
      <point x="637" y="237"/>
      <point x="654" y="246" type="curve"/>
      <point x="644" y="222"/>
      <point x="639" y="192"/>
      <point x="628" y="143" type="curve"/>
      <point x="638" y="143"/>
      <point x="646" y="143"/>
      <point x="657" y="145" type="curve"/>
      <point x="656" y="135"/>
      <point x="653" y="127"/>
      <point x="649" y="119" type="curve"/>
      <point x="623" y="119" type="line"/>
      <point x="618" y="98"/>
      <point x="610" y="32"/>
      <point x="610" y="0" type="curve"/>
      <point x="595" y="2"/>
      <point x="550" y="4"/>
    </contour>
    <contour>
      <point x="98" y="572" type="curve"/>
      <point x="127" y="581"/>
      <point x="171" y="590"/>
      <point x="196" y="590" type="curve" smooth="yes"/>
      <point x="234" y="590"/>
      <point x="282" y="578"/>
      <point x="282" y="538" type="curve" smooth="yes"/>
      <point x="282" y="503"/>
      <point x="245" y="478"/>
      <point x="196" y="454" type="curve"/>
      <point x="252" y="454"/>
      <point x="278" y="429"/>
      <point x="278" y="385" type="curve" smooth="yes"/>
      <point x="278" y="315"/>
      <point x="148" y="237"/>
      <point x="52" y="214" type="curve"/>
      <point x="37" y="231" type="line"/>
      <point x="122" y="253"/>
      <point x="211" y="325"/>
      <point x="211" y="380" type="curve" smooth="yes"/>
      <point x="211" y="414"/>
      <point x="197" y="434"/>
      <point x="156" y="434" type="curve" smooth="yes"/>
      <point x="139" y="434"/>
      <point x="134" y="432"/>
      <point x="126" y="432" type="curve"/>
      <point x="123" y="435"/>
      <point x="122" y="449"/>
      <point x="122" y="453" type="curve"/>
      <point x="179" y="465"/>
      <point x="219" y="489"/>
      <point x="219" y="530" type="curve" smooth="yes"/>
      <point x="219" y="556"/>
      <point x="201" y="563"/>
      <point x="173" y="563" type="curve" smooth="yes"/>
      <point x="155" y="563"/>
      <point x="122" y="558"/>
      <point x="103" y="553" type="curve"/>
      <point x="100" y="556"/>
      <point x="98" y="568"/>
    </contour>
    <contour>
      <point x="627" y="593" type="curve"/>
      <point x="477" y="422"/>
      <point x="242" y="151"/>
      <point x="98" y="-20" type="curve"/>
      <point x="88" y="-16"/>
      <point x="78" y="-14"/>
      <point x="69" y="-6" type="curve"/>
      <point x="217" y="166"/>
      <point x="455" y="435"/>
      <point x="598" y="607" type="curve"/>
      <point x="607" y="604"/>
      <point x="623" y="598"/>
    </contour>
  </outline>
</glyph>
<glyph name="questiondown" format="1">
  <advance width="240"/>
  <unicode hex="00BF"/>
  <outline>
    <contour>
      <point x="144" y="319" type="curve" smooth="yes"/>
      <point x="116" y="319"/>
      <point x="102" y="331"/>
      <point x="102" y="350" type="curve" smooth="yes"/>
      <point x="103" y="375"/>
      <point x="133" y="389"/>
      <point x="160" y="389" type="curve" smooth="yes"/>
      <point x="180" y="389"/>
      <point x="196" y="378"/>
      <point x="195" y="360" type="curve"/>
      <point x="195" y="339"/>
      <point x="170" y="319"/>
    </contour>
    <contour>
      <point x="136" y="238" type="curve"/>
      <point x="144" y="217"/>
      <point x="166" y="159"/>
      <point x="165" y="121" type="curve" smooth="yes"/>
      <point x="163" y="66"/>
      <point x="79" y="21"/>
      <point x="77" y="-41" type="curve" smooth="yes"/>
      <point x="75" y="-96"/>
      <point x="97" y="-163"/>
      <point x="113" y="-205" type="curve"/>
      <point x="105" y="-210"/>
      <point x="101" y="-212"/>
      <point x="93" y="-213" type="curve"/>
      <point x="79" y="-181"/>
      <point x="24" y="-57"/>
      <point x="26" y="-17" type="curve"/>
      <point x="28" y="76"/>
      <point x="120" y="90"/>
      <point x="122" y="183" type="curve" smooth="yes"/>
      <point x="123" y="204"/>
      <point x="118" y="218"/>
      <point x="114" y="231" type="curve"/>
      <point x="121" y="236"/>
      <point x="125" y="238"/>
    </contour>
  </outline>
</glyph>
<glyph name="Agrave" format="1">
  <advance width="526"/>
  <unicode hex="00C0"/>
  <outline>
    <contour>
      <point x="365" y="-1" type="curve"/>
      <point x="371" y="22"/>
      <point x="358" y="149"/>
      <point x="349" y="239" type="curve"/>
      <point x="290" y="232"/>
      <point x="203" y="225"/>
      <point x="157" y="214" type="curve"/>
      <point x="122" y="149"/>
      <point x="83" y="63"/>
      <point x="66" y="6" type="curve"/>
      <point x="39" y="2"/>
      <point x="-5" y="-3"/>
      <point x="-28" y="-10" type="curve"/>
      <point x="38" y="59"/>
      <point x="331" y="567"/>
      <point x="324" y="578" type="curve"/>
      <point x="340" y="588"/>
      <point x="360" y="598"/>
      <point x="372" y="603" type="curve"/>
      <point x="380" y="460"/>
      <point x="416" y="103"/>
      <point x="469" y="-1" type="curve"/>
      <point x="409" y="5"/>
      <point x="395" y="1"/>
    </contour>
    <contour>
      <point x="346" y="260" type="curve"/>
      <point x="348" y="263"/>
      <point x="327" y="426"/>
      <point x="314" y="497" type="curve"/>
      <point x="266" y="417"/>
      <point x="218" y="329"/>
      <point x="174" y="246" type="curve"/>
      <point x="234" y="250"/>
      <point x="286" y="254"/>
    </contour>
    <contour>
      <point x="280" y="748" type="curve"/>
      <point x="314" y="725"/>
      <point x="382" y="686"/>
      <point x="437" y="659" type="curve"/>
      <point x="427" y="641" type="line"/>
      <point x="366" y="661"/>
      <point x="319" y="672"/>
      <point x="252" y="685" type="curve"/>
      <point x="263" y="704"/>
      <point x="275" y="729"/>
    </contour>
  </outline>
</glyph>
<glyph name="Atilde" format="1">
  <advance width="526"/>
  <unicode hex="00C3"/>
  <outline>
    <contour>
      <point x="365" y="-1" type="curve"/>
      <point x="371" y="22"/>
      <point x="358" y="149"/>
      <point x="349" y="239" type="curve"/>
      <point x="290" y="232"/>
      <point x="203" y="225"/>
      <point x="157" y="214" type="curve"/>
      <point x="122" y="149"/>
      <point x="83" y="63"/>
      <point x="66" y="6" type="curve"/>
      <point x="39" y="2"/>
      <point x="-5" y="-3"/>
      <point x="-28" y="-10" type="curve"/>
      <point x="38" y="59"/>
      <point x="331" y="567"/>
      <point x="324" y="578" type="curve"/>
      <point x="340" y="588"/>
      <point x="360" y="598"/>
      <point x="372" y="603" type="curve"/>
      <point x="380" y="460"/>
      <point x="416" y="103"/>
      <point x="469" y="-1" type="curve"/>
      <point x="409" y="5"/>
      <point x="395" y="1"/>
    </contour>
    <contour>
      <point x="346" y="260" type="curve"/>
      <point x="348" y="263"/>
      <point x="327" y="426"/>
      <point x="314" y="497" type="curve"/>
      <point x="266" y="417"/>
      <point x="218" y="329"/>
      <point x="174" y="246" type="curve"/>
      <point x="234" y="250"/>
      <point x="286" y="254"/>
    </contour>
    <contour>
      <point x="394" y="642" type="curve" smooth="yes"/>
      <point x="378" y="642"/>
      <point x="343" y="660"/>
      <point x="327" y="661" type="curve"/>
      <point x="303" y="661"/>
      <point x="284" y="653"/>
      <point x="259" y="638" type="curve"/>
      <point x="250" y="654" type="line"/>
      <point x="281" y="679"/>
      <point x="332" y="711"/>
      <point x="353" y="710" type="curve" smooth="yes"/>
      <point x="372" y="710"/>
      <point x="402" y="694"/>
      <point x="422" y="693" type="curve"/>
      <point x="445" y="693"/>
      <point x="464" y="702"/>
      <point x="487" y="714" type="curve"/>
      <point x="497" y="698" type="line"/>
      <point x="460" y="668"/>
      <point x="415" y="642"/>
    </contour>
  </outline>
</glyph>
<glyph name="Adieresis" format="1">
  <advance width="526"/>
  <unicode hex="00C4"/>
  <outline>
    <contour>
      <point x="365" y="-1" type="curve"/>
      <point x="371" y="22"/>
      <point x="358" y="149"/>
      <point x="349" y="239" type="curve"/>
      <point x="290" y="232"/>
      <point x="203" y="225"/>
      <point x="157" y="214" type="curve"/>
      <point x="122" y="149"/>
      <point x="83" y="63"/>
      <point x="66" y="6" type="curve"/>
      <point x="39" y="2"/>
      <point x="-5" y="-3"/>
      <point x="-28" y="-10" type="curve"/>
      <point x="38" y="59"/>
      <point x="331" y="567"/>
      <point x="324" y="578" type="curve"/>
      <point x="340" y="588"/>
      <point x="360" y="598"/>
      <point x="372" y="603" type="curve"/>
      <point x="380" y="460"/>
      <point x="416" y="103"/>
      <point x="469" y="-1" type="curve"/>
      <point x="409" y="5"/>
      <point x="395" y="1"/>
    </contour>
    <contour>
      <point x="346" y="260" type="curve"/>
      <point x="348" y="263"/>
      <point x="327" y="426"/>
      <point x="314" y="497" type="curve"/>
      <point x="266" y="417"/>
      <point x="218" y="329"/>
      <point x="174" y="246" type="curve"/>
      <point x="234" y="250"/>
      <point x="286" y="254"/>
    </contour>
    <contour>
      <point x="441" y="697" type="curve" smooth="yes"/>
      <point x="464" y="697"/>
      <point x="475" y="687"/>
      <point x="475" y="671" type="curve" smooth="yes"/>
      <point x="475" y="652"/>
      <point x="451" y="640"/>
      <point x="430" y="640" type="curve" smooth="yes"/>
      <point x="413" y="640"/>
      <point x="400" y="649"/>
      <point x="400" y="663" type="curve" smooth="yes"/>
      <point x="400" y="681"/>
      <point x="420" y="697"/>
    </contour>
    <contour>
      <point x="297" y="697" type="curve" smooth="yes"/>
      <point x="320" y="697"/>
      <point x="331" y="687"/>
      <point x="331" y="671" type="curve" smooth="yes"/>
      <point x="331" y="652"/>
      <point x="307" y="640"/>
      <point x="286" y="640" type="curve" smooth="yes"/>
      <point x="269" y="640"/>
      <point x="256" y="649"/>
      <point x="256" y="663" type="curve" smooth="yes"/>
      <point x="256" y="681"/>
      <point x="276" y="697"/>
    </contour>
  </outline>
</glyph>
<glyph name="Aring" format="1">
  <advance width="526"/>
  <unicode hex="00C5"/>
  <outline>
    <contour>
      <point x="365" y="-1" type="curve"/>
      <point x="371" y="22"/>
      <point x="358" y="149"/>
      <point x="349" y="239" type="curve"/>
      <point x="290" y="232"/>
      <point x="203" y="225"/>
      <point x="157" y="214" type="curve"/>
      <point x="122" y="149"/>
      <point x="83" y="63"/>
      <point x="66" y="6" type="curve"/>
      <point x="39" y="2"/>
      <point x="-5" y="-3"/>
      <point x="-28" y="-10" type="curve"/>
      <point x="38" y="59"/>
      <point x="331" y="567"/>
      <point x="324" y="578" type="curve"/>
      <point x="340" y="588"/>
      <point x="360" y="598"/>
      <point x="372" y="603" type="curve"/>
      <point x="380" y="460"/>
      <point x="416" y="103"/>
      <point x="469" y="-1" type="curve"/>
      <point x="409" y="5"/>
      <point x="395" y="1"/>
    </contour>
    <contour>
      <point x="346" y="260" type="curve"/>
      <point x="348" y="263"/>
      <point x="327" y="426"/>
      <point x="314" y="497" type="curve"/>
      <point x="266" y="417"/>
      <point x="218" y="329"/>
      <point x="174" y="246" type="curve"/>
      <point x="234" y="250"/>
      <point x="286" y="254"/>
    </contour>
    <contour>
      <point x="392" y="744" type="curve" smooth="yes"/>
      <point x="434" y="744"/>
      <point x="468" y="730"/>
      <point x="468" y="702" type="curve" smooth="yes"/>
      <point x="468" y="647"/>
      <point x="393" y="626"/>
      <point x="344" y="627" type="curve" smooth="yes"/>
      <point x="303" y="628"/>
      <point x="278" y="643"/>
      <point x="278" y="674" type="curve" smooth="yes"/>
      <point x="278" y="714"/>
      <point x="340" y="744"/>
    </contour>
    <contour>
      <point x="383" y="721" type="curve" smooth="yes"/>
      <point x="358" y="721"/>
      <point x="325" y="705"/>
      <point x="325" y="680" type="curve" smooth="yes"/>
      <point x="325" y="662"/>
      <point x="338" y="650"/>
      <point x="361" y="650" type="curve" smooth="yes"/>
      <point x="393" y="650"/>
      <point x="419" y="667"/>
      <point x="419" y="695" type="curve" smooth="yes"/>
      <point x="419" y="712"/>
      <point x="402" y="721"/>
    </contour>
  </outline>
</glyph>
<glyph name="AE" format="1">
  <advance width="773"/>
  <unicode hex="00C6"/>
  <outline>
    <contour>
      <point x="442" y="582" type="line"/>
      <point x="442" y="583" type="line"/>
      <point x="526" y="579"/>
      <point x="656" y="578"/>
      <point x="772" y="581" type="curve"/>
      <point x="765" y="556" type="line"/>
      <point x="663" y="553"/>
      <point x="613" y="551"/>
      <point x="519" y="543" type="curve"/>
      <point x="509" y="504"/>
      <point x="487" y="375"/>
      <point x="484" y="352" type="curve"/>
      <point x="560" y="350"/>
      <point x="655" y="361"/>
      <point x="732" y="364" type="curve"/>
      <point x="729" y="340" type="line"/>
      <point x="672" y="335"/>
      <point x="544" y="321"/>
      <point x="477" y="314" type="curve"/>
      <point x="466" y="255"/>
      <point x="442" y="107"/>
      <point x="447" y="43" type="curve"/>
      <point x="519" y="33"/>
      <point x="635" y="27"/>
      <point x="751" y="22" type="curve"/>
      <point x="747" y="-4" type="line"/>
      <point x="513" y="-1"/>
      <point x="454" y="1"/>
      <point x="340" y="-2" type="curve"/>
      <point x="360" y="33"/>
      <point x="384" y="132"/>
      <point x="403" y="238" type="curve"/>
      <point x="340" y="231"/>
      <point x="238" y="223"/>
      <point x="196" y="214" type="curve"/>
      <point x="148" y="147"/>
      <point x="100" y="63"/>
      <point x="72" y="6" type="curve"/>
      <point x="46" y="2"/>
      <point x="-6" y="-3"/>
      <point x="-30" y="-10" type="curve"/>
      <point x="70" y="87"/>
      <point x="401" y="519"/>
      <point x="439" y="582" type="curve"/>
    </contour>
    <contour>
      <point x="220" y="246" type="curve"/>
      <point x="272" y="249"/>
      <point x="351" y="255"/>
      <point x="407" y="260" type="curve"/>
      <point x="425" y="363"/>
      <point x="439" y="470"/>
      <point x="443" y="534" type="curve"/>
      <point x="347" y="417"/>
      <point x="281" y="329"/>
    </contour>
  </outline>
</glyph>
<glyph name="Ccedilla" format="1">
  <advance width="552"/>
  <unicode hex="00C7"/>
  <outline>
    <contour>
      <point x="177" y="-71" type="curve"/>
      <point x="199" y="-50"/>
      <point x="218" y="-30"/>
      <point x="238" y="-9" type="curve"/>
      <point x="124" y="3"/>
      <point x="50" y="108"/>
      <point x="50" y="221" type="curve" smooth="yes"/>
      <point x="50" y="429"/>
      <point x="239" y="594"/>
      <point x="392" y="594" type="curve"/>
      <point x="407" y="595"/>
      <point x="471" y="588"/>
      <point x="527" y="569" type="curve"/>
      <point x="526" y="562"/>
      <point x="522" y="553"/>
      <point x="518" y="546" type="curve"/>
      <point x="483" y="558"/>
      <point x="442" y="565"/>
      <point x="408" y="565" type="curve" smooth="yes"/>
      <point x="262" y="565"/>
      <point x="124" y="400"/>
      <point x="124" y="246" type="curve" smooth="yes"/>
      <point x="124" y="141"/>
      <point x="176" y="35"/>
      <point x="313" y="35" type="curve" smooth="yes"/>
      <point x="358" y="35"/>
      <point x="462" y="75"/>
      <point x="502" y="100" type="curve"/>
      <point x="511" y="95"/>
      <point x="515" y="86"/>
      <point x="516" y="78" type="curve"/>
      <point x="443" y="39"/>
      <point x="349" y="-7"/>
      <point x="267" y="-10" type="curve"/>
      <point x="256" y="-20"/>
      <point x="245" y="-34"/>
      <point x="238" y="-42" type="curve"/>
      <point x="304" y="-47"/>
      <point x="328" y="-74"/>
      <point x="328" y="-118" type="curve" smooth="yes"/>
      <point x="328" y="-144"/>
      <point x="265" y="-215"/>
      <point x="233" y="-241" type="curve"/>
      <point x="226" y="-236"/>
      <point x="223" y="-235"/>
      <point x="220" y="-228" type="curve"/>
      <point x="248" y="-201"/>
      <point x="275" y="-164"/>
      <point x="275" y="-139" type="curve" smooth="yes"/>
      <point x="275" y="-110"/>
      <point x="245" y="-82"/>
      <point x="186" y="-87" type="curve"/>
      <point x="181" y="-82"/>
      <point x="180" y="-77"/>
    </contour>
  </outline>
</glyph>
<glyph name="Eacute" format="1">
  <advance width="449"/>
  <unicode hex="00C9"/>
  <outline>
    <contour>
      <point x="117" y="583" type="curve"/>
      <point x="201" y="579"/>
      <point x="331" y="578"/>
      <point x="447" y="581" type="curve"/>
      <point x="440" y="556" type="line"/>
      <point x="339" y="553"/>
      <point x="288" y="553"/>
      <point x="194" y="546" type="curve"/>
      <point x="184" y="507"/>
      <point x="162" y="375"/>
      <point x="159" y="352" type="curve"/>
      <point x="236" y="353"/>
      <point x="330" y="356"/>
      <point x="408" y="364" type="curve"/>
      <point x="404" y="340" type="line"/>
      <point x="348" y="335"/>
      <point x="220" y="323"/>
      <point x="153" y="316" type="curve"/>
      <point x="142" y="257"/>
      <point x="117" y="105"/>
      <point x="122" y="41" type="curve"/>
      <point x="195" y="31"/>
      <point x="310" y="25"/>
      <point x="426" y="20" type="curve"/>
      <point x="423" y="-4" type="line"/>
      <point x="188" y="-1"/>
      <point x="130" y="1"/>
      <point x="16" y="-2" type="curve"/>
      <point x="62" y="82"/>
      <point x="131" y="515"/>
    </contour>
    <contour>
      <point x="400" y="744" type="curve"/>
      <point x="400" y="725"/>
      <point x="404" y="700"/>
      <point x="410" y="681" type="curve"/>
      <point x="340" y="668"/>
      <point x="290" y="657"/>
      <point x="221" y="637" type="curve"/>
      <point x="217" y="655" type="line"/>
      <point x="281" y="682"/>
      <point x="360" y="721"/>
    </contour>
  </outline>
</glyph>
<glyph name="Ecircumflex" format="1">
  <advance width="449"/>
  <unicode hex="00CA"/>
  <outline>
    <contour>
      <point x="117" y="583" type="curve"/>
      <point x="201" y="579"/>
      <point x="331" y="578"/>
      <point x="447" y="581" type="curve"/>
      <point x="440" y="556" type="line"/>
      <point x="339" y="553"/>
      <point x="288" y="553"/>
      <point x="194" y="546" type="curve"/>
      <point x="184" y="507"/>
      <point x="162" y="375"/>
      <point x="159" y="352" type="curve"/>
      <point x="236" y="353"/>
      <point x="330" y="356"/>
      <point x="408" y="364" type="curve"/>
      <point x="404" y="340" type="line"/>
      <point x="348" y="335"/>
      <point x="220" y="323"/>
      <point x="153" y="316" type="curve"/>
      <point x="142" y="257"/>
      <point x="117" y="105"/>
      <point x="122" y="41" type="curve"/>
      <point x="195" y="31"/>
      <point x="310" y="25"/>
      <point x="426" y="20" type="curve"/>
      <point x="423" y="-4" type="line"/>
      <point x="188" y="-1"/>
      <point x="130" y="1"/>
      <point x="16" y="-2" type="curve"/>
      <point x="62" y="82"/>
      <point x="131" y="515"/>
    </contour>
    <contour>
      <point x="206" y="637" type="curve"/>
      <point x="203" y="640"/>
      <point x="199" y="648"/>
      <point x="199" y="657" type="curve"/>
      <point x="236" y="678"/>
      <point x="270" y="699"/>
      <point x="324" y="734" type="curve"/>
      <point x="353" y="706"/>
      <point x="383" y="680"/>
      <point x="413" y="656" type="curve"/>
      <point x="409" y="648"/>
      <point x="405" y="643"/>
      <point x="398" y="639" type="curve"/>
      <point x="362" y="656"/>
      <point x="344" y="667"/>
      <point x="314" y="675" type="curve"/>
      <point x="279" y="667"/>
      <point x="250" y="654"/>
    </contour>
  </outline>
</glyph>
<glyph name="Edieresis" format="1">
  <advance width="449"/>
  <unicode hex="00CB"/>
  <outline>
    <contour>
      <point x="117" y="583" type="curve"/>
      <point x="201" y="579"/>
      <point x="331" y="578"/>
      <point x="447" y="581" type="curve"/>
      <point x="440" y="556" type="line"/>
      <point x="339" y="553"/>
      <point x="288" y="553"/>
      <point x="194" y="546" type="curve"/>
      <point x="184" y="507"/>
      <point x="162" y="375"/>
      <point x="159" y="352" type="curve"/>
      <point x="236" y="353"/>
      <point x="330" y="356"/>
      <point x="408" y="364" type="curve"/>
      <point x="404" y="340" type="line"/>
      <point x="348" y="335"/>
      <point x="220" y="323"/>
      <point x="153" y="316" type="curve"/>
      <point x="142" y="257"/>
      <point x="117" y="105"/>
      <point x="122" y="41" type="curve"/>
      <point x="195" y="31"/>
      <point x="310" y="25"/>
      <point x="426" y="20" type="curve"/>
      <point x="423" y="-4" type="line"/>
      <point x="188" y="-1"/>
      <point x="130" y="1"/>
      <point x="16" y="-2" type="curve"/>
      <point x="62" y="82"/>
      <point x="131" y="515"/>
    </contour>
    <contour>
      <point x="383" y="697" type="curve" smooth="yes"/>
      <point x="406" y="697"/>
      <point x="417" y="687"/>
      <point x="417" y="671" type="curve" smooth="yes"/>
      <point x="417" y="652"/>
      <point x="393" y="640"/>
      <point x="372" y="640" type="curve" smooth="yes"/>
      <point x="355" y="640"/>
      <point x="342" y="649"/>
      <point x="342" y="663" type="curve" smooth="yes"/>
      <point x="342" y="681"/>
      <point x="362" y="697"/>
    </contour>
    <contour>
      <point x="239" y="697" type="curve" smooth="yes"/>
      <point x="262" y="697"/>
      <point x="273" y="687"/>
      <point x="273" y="671" type="curve" smooth="yes"/>
      <point x="273" y="652"/>
      <point x="249" y="640"/>
      <point x="228" y="640" type="curve" smooth="yes"/>
      <point x="211" y="640"/>
      <point x="198" y="649"/>
      <point x="198" y="663" type="curve" smooth="yes"/>
      <point x="198" y="681"/>
      <point x="218" y="697"/>
    </contour>
  </outline>
</glyph>
<glyph name="Igrave" format="1">
  <advance width="215"/>
  <unicode hex="00CC"/>
  <outline>
    <contour>
      <point x="212" y="583" type="curve"/>
      <point x="171" y="465"/>
      <point x="118" y="100"/>
      <point x="117" y="-2" type="curve"/>
      <point x="99" y="-1"/>
      <point x="51" y="1"/>
      <point x="29" y="-2" type="curve"/>
      <point x="60" y="138"/>
      <point x="115" y="414"/>
      <point x="120" y="583" type="curve"/>
      <point x="146" y="580"/>
      <point x="187" y="579"/>
    </contour>
    <contour>
      <point x="104" y="748" type="curve"/>
      <point x="138" y="725"/>
      <point x="206" y="686"/>
      <point x="261" y="659" type="curve"/>
      <point x="251" y="641" type="line"/>
      <point x="190" y="661"/>
      <point x="143" y="672"/>
      <point x="76" y="685" type="curve"/>
      <point x="87" y="704"/>
      <point x="99" y="729"/>
    </contour>
  </outline>
</glyph>
<glyph name="Iacute" format="1">
  <advance width="215"/>
  <unicode hex="00CD"/>
  <outline>
    <contour>
      <point x="212" y="583" type="curve"/>
      <point x="171" y="465"/>
      <point x="118" y="100"/>
      <point x="117" y="-2" type="curve"/>
      <point x="99" y="-1"/>
      <point x="51" y="1"/>
      <point x="29" y="-2" type="curve"/>
      <point x="60" y="138"/>
      <point x="115" y="414"/>
      <point x="120" y="583" type="curve"/>
      <point x="146" y="580"/>
      <point x="187" y="579"/>
    </contour>
    <contour>
      <point x="283" y="744" type="curve"/>
      <point x="283" y="725"/>
      <point x="287" y="700"/>
      <point x="293" y="681" type="curve"/>
      <point x="223" y="668"/>
      <point x="173" y="657"/>
      <point x="104" y="637" type="curve"/>
      <point x="100" y="655" type="line"/>
      <point x="164" y="682"/>
      <point x="243" y="721"/>
    </contour>
  </outline>
</glyph>
<glyph name="Icircumflex" format="1">
  <advance width="215"/>
  <unicode hex="00CE"/>
  <outline>
    <contour>
      <point x="212" y="583" type="curve"/>
      <point x="171" y="465"/>
      <point x="118" y="100"/>
      <point x="117" y="-2" type="curve"/>
      <point x="99" y="-1"/>
      <point x="51" y="1"/>
      <point x="29" y="-2" type="curve"/>
      <point x="60" y="138"/>
      <point x="115" y="414"/>
      <point x="120" y="583" type="curve"/>
      <point x="146" y="580"/>
      <point x="187" y="579"/>
    </contour>
    <contour>
      <point x="75" y="637" type="curve"/>
      <point x="72" y="640"/>
      <point x="68" y="648"/>
      <point x="68" y="657" type="curve"/>
      <point x="105" y="678"/>
      <point x="139" y="699"/>
      <point x="193" y="734" type="curve"/>
      <point x="222" y="706"/>
      <point x="252" y="680"/>
      <point x="282" y="656" type="curve"/>
      <point x="278" y="648"/>
      <point x="274" y="643"/>
      <point x="267" y="639" type="curve"/>
      <point x="231" y="656"/>
      <point x="213" y="667"/>
      <point x="183" y="675" type="curve"/>
      <point x="148" y="667"/>
      <point x="119" y="654"/>
    </contour>
  </outline>
</glyph>
<glyph name="Idieresis" format="1">
  <advance width="215"/>
  <unicode hex="00CF"/>
  <outline>
    <contour>
      <point x="255" y="697" type="curve" smooth="yes"/>
      <point x="277" y="697"/>
      <point x="289" y="687"/>
      <point x="289" y="671" type="curve" smooth="yes"/>
      <point x="289" y="652"/>
      <point x="265" y="640"/>
      <point x="243" y="640" type="curve" smooth="yes"/>
      <point x="226" y="640"/>
      <point x="214" y="649"/>
      <point x="214" y="663" type="curve" smooth="yes"/>
      <point x="214" y="681"/>
      <point x="234" y="697"/>
    </contour>
    <contour>
      <point x="118" y="697" type="curve" smooth="yes"/>
      <point x="141" y="697"/>
      <point x="152" y="687"/>
      <point x="152" y="671" type="curve" smooth="yes"/>
      <point x="152" y="652"/>
      <point x="128" y="640"/>
      <point x="107" y="640" type="curve" smooth="yes"/>
      <point x="90" y="640"/>
      <point x="77" y="649"/>
      <point x="77" y="663" type="curve" smooth="yes"/>
      <point x="77" y="681"/>
      <point x="97" y="697"/>
    </contour>
    <contour>
      <point x="212" y="583" type="curve"/>
      <point x="171" y="465"/>
      <point x="118" y="100"/>
      <point x="117" y="-2" type="curve"/>
      <point x="99" y="-1"/>
      <point x="51" y="1"/>
      <point x="29" y="-2" type="curve"/>
      <point x="60" y="138"/>
      <point x="115" y="414"/>
      <point x="120" y="583" type="curve"/>
      <point x="146" y="580"/>
      <point x="187" y="579"/>
    </contour>
  </outline>
</glyph>
<glyph name="Ocircumflex" format="1">
  <advance width="659"/>
  <unicode hex="00D4"/>
  <outline>
    <contour>
      <point x="411" y="593" type="curve" smooth="yes"/>
      <point x="509" y="593"/>
      <point x="633" y="509"/>
      <point x="633" y="361" type="curve" smooth="yes"/>
      <point x="633" y="256"/>
      <point x="598" y="154"/>
      <point x="540" y="93" type="curve" smooth="yes"/>
      <point x="490" y="41"/>
      <point x="380" y="-11"/>
      <point x="292" y="-11" type="curve" smooth="yes"/>
      <point x="122" y="-11"/>
      <point x="43" y="108"/>
      <point x="43" y="236" type="curve"/>
      <point x="45" y="335"/>
      <point x="92" y="454"/>
      <point x="182" y="519" type="curve" smooth="yes"/>
      <point x="223" y="548"/>
      <point x="322" y="593"/>
    </contour>
    <contour>
      <point x="315" y="23" type="curve" smooth="yes"/>
      <point x="408" y="23"/>
      <point x="561" y="100"/>
      <point x="561" y="349" type="curve" smooth="yes"/>
      <point x="561" y="455"/>
      <point x="487" y="557"/>
      <point x="371" y="557" type="curve" smooth="yes"/>
      <point x="219" y="557"/>
      <point x="116" y="402"/>
      <point x="116" y="241" type="curve" smooth="yes"/>
      <point x="116" y="132"/>
      <point x="192" y="23"/>
    </contour>
    <contour>
      <point x="293" y="637" type="curve"/>
      <point x="290" y="640"/>
      <point x="286" y="648"/>
      <point x="286" y="657" type="curve"/>
      <point x="323" y="678"/>
      <point x="357" y="699"/>
      <point x="411" y="734" type="curve"/>
      <point x="440" y="706"/>
      <point x="470" y="680"/>
      <point x="500" y="656" type="curve"/>
      <point x="496" y="648"/>
      <point x="492" y="643"/>
      <point x="485" y="639" type="curve"/>
      <point x="449" y="656"/>
      <point x="431" y="667"/>
      <point x="401" y="675" type="curve"/>
      <point x="366" y="667"/>
      <point x="337" y="654"/>
    </contour>
  </outline>
</glyph>
<glyph name="Odieresis" format="1">
  <advance width="659"/>
  <unicode hex="00D6"/>
  <outline>
    <contour>
      <point x="411" y="593" type="curve" smooth="yes"/>
      <point x="509" y="593"/>
      <point x="633" y="509"/>
      <point x="633" y="361" type="curve" smooth="yes"/>
      <point x="633" y="256"/>
      <point x="598" y="154"/>
      <point x="540" y="93" type="curve" smooth="yes"/>
      <point x="490" y="41"/>
      <point x="380" y="-11"/>
      <point x="292" y="-11" type="curve" smooth="yes"/>
      <point x="122" y="-11"/>
      <point x="43" y="108"/>
      <point x="43" y="236" type="curve"/>
      <point x="45" y="335"/>
      <point x="92" y="454"/>
      <point x="182" y="519" type="curve" smooth="yes"/>
      <point x="223" y="548"/>
      <point x="322" y="593"/>
    </contour>
    <contour>
      <point x="315" y="23" type="curve" smooth="yes"/>
      <point x="408" y="23"/>
      <point x="561" y="100"/>
      <point x="561" y="349" type="curve" smooth="yes"/>
      <point x="561" y="455"/>
      <point x="487" y="557"/>
      <point x="371" y="557" type="curve" smooth="yes"/>
      <point x="219" y="557"/>
      <point x="116" y="402"/>
      <point x="116" y="241" type="curve" smooth="yes"/>
      <point x="116" y="132"/>
      <point x="192" y="23"/>
    </contour>
    <contour>
      <point x="475" y="697" type="curve" smooth="yes"/>
      <point x="498" y="697"/>
      <point x="509" y="687"/>
      <point x="509" y="671" type="curve" smooth="yes"/>
      <point x="509" y="652"/>
      <point x="485" y="640"/>
      <point x="464" y="640" type="curve" smooth="yes"/>
      <point x="447" y="640"/>
      <point x="434" y="649"/>
      <point x="434" y="663" type="curve" smooth="yes"/>
      <point x="434" y="681"/>
      <point x="454" y="697"/>
    </contour>
    <contour>
      <point x="331" y="697" type="curve" smooth="yes"/>
      <point x="354" y="697"/>
      <point x="365" y="687"/>
      <point x="365" y="671" type="curve" smooth="yes"/>
      <point x="365" y="652"/>
      <point x="341" y="640"/>
      <point x="320" y="640" type="curve" smooth="yes"/>
      <point x="303" y="640"/>
      <point x="290" y="649"/>
      <point x="290" y="663" type="curve" smooth="yes"/>
      <point x="290" y="681"/>
      <point x="310" y="697"/>
    </contour>
  </outline>
</glyph>
<glyph name="multiply" format="1">
  <advance width="416"/>
  <unicode hex="00D7"/>
  <outline>
    <contour>
      <point x="71" y="363" type="curve"/>
      <point x="103" y="327"/>
      <point x="165" y="261"/>
      <point x="199" y="226" type="curve"/>
      <point x="238" y="261"/>
      <point x="305" y="334"/>
      <point x="330" y="360" type="curve"/>
      <point x="340" y="353"/>
      <point x="348" y="345"/>
      <point x="351" y="334" type="curve"/>
      <point x="318" y="304"/>
      <point x="254" y="237"/>
      <point x="221" y="204" type="curve"/>
      <point x="256" y="167"/>
      <point x="319" y="102"/>
      <point x="355" y="67" type="curve"/>
      <point x="349" y="58"/>
      <point x="342" y="48"/>
      <point x="333" y="42" type="curve"/>
      <point x="299" y="78"/>
      <point x="235" y="146"/>
      <point x="199" y="183" type="curve"/>
      <point x="166" y="151"/>
      <point x="99" y="87"/>
      <point x="60" y="47" type="curve"/>
      <point x="52" y="52"/>
      <point x="41" y="67"/>
      <point x="38" y="72" type="curve"/>
      <point x="71" y="102"/>
      <point x="142" y="169"/>
      <point x="178" y="204" type="curve"/>
      <point x="144" y="241"/>
      <point x="82" y="305"/>
      <point x="47" y="340" type="curve"/>
      <point x="52" y="346"/>
      <point x="65" y="360"/>
    </contour>
  </outline>
</glyph>
<glyph name="Oslash" format="1">
  <advance width="659"/>
  <unicode hex="00D8"/>
  <outline>
    <contour>
      <point x="411" y="593" type="curve" smooth="yes"/>
      <point x="429" y="593"/>
      <point x="447" y="590"/>
      <point x="466" y="584" type="curve"/>
      <point x="484" y="621" type="line"/>
      <point x="493" y="620"/>
      <point x="504" y="616"/>
      <point x="509" y="612" type="curve"/>
      <point x="491" y="576" type="line"/>
      <point x="566" y="544"/>
      <point x="633" y="470"/>
      <point x="633" y="361" type="curve" smooth="yes"/>
      <point x="633" y="256"/>
      <point x="598" y="154"/>
      <point x="540" y="93" type="curve" smooth="yes"/>
      <point x="490" y="41"/>
      <point x="380" y="-11"/>
      <point x="292" y="-11" type="curve" smooth="yes"/>
      <point x="262" y="-11"/>
      <point x="235" y="-7"/>
      <point x="211" y="0" type="curve"/>
      <point x="203" y="-14"/>
      <point x="197" y="-28"/>
      <point x="191" y="-42" type="curve"/>
      <point x="180" y="-41"/>
      <point x="173" y="-42"/>
      <point x="163" y="-34" type="curve"/>
      <point x="184" y="8" type="line"/>
      <point x="88" y="47"/>
      <point x="43" y="139"/>
      <point x="43" y="236" type="curve"/>
      <point x="45" y="335"/>
      <point x="92" y="454"/>
      <point x="182" y="519" type="curve" smooth="yes"/>
      <point x="223" y="548"/>
      <point x="322" y="593"/>
    </contour>
    <contour>
      <point x="315" y="23" type="curve" smooth="yes"/>
      <point x="408" y="23"/>
      <point x="561" y="100"/>
      <point x="561" y="349" type="curve" smooth="yes"/>
      <point x="561" y="421"/>
      <point x="526" y="491"/>
      <point x="468" y="529" type="curve"/>
      <point x="390" y="373"/>
      <point x="306" y="199"/>
      <point x="231" y="42" type="curve"/>
      <point x="256" y="30"/>
      <point x="283" y="23"/>
    </contour>
    <contour>
      <point x="208" y="56" type="curve"/>
      <point x="285" y="212"/>
      <point x="370" y="386"/>
      <point x="445" y="541" type="curve"/>
      <point x="423" y="551"/>
      <point x="398" y="557"/>
      <point x="371" y="557" type="curve" smooth="yes"/>
      <point x="219" y="557"/>
      <point x="116" y="402"/>
      <point x="116" y="241" type="curve" smooth="yes"/>
      <point x="116" y="169"/>
      <point x="149" y="96"/>
    </contour>
  </outline>
</glyph>
<glyph name="Uacute" format="1">
  <advance width="571"/>
  <unicode hex="00DA"/>
  <outline>
    <contour>
      <point x="88" y="582" type="curve"/>
      <point x="124" y="580"/>
      <point x="146" y="580"/>
      <point x="176" y="584" type="curve"/>
      <point x="156" y="490"/>
      <point x="138" y="310"/>
      <point x="138" y="188" type="curve" smooth="yes"/>
      <point x="139" y="51"/>
      <point x="238" y="20"/>
      <point x="279" y="20" type="curve" smooth="yes"/>
      <point x="384" y="20"/>
      <point x="435" y="91"/>
      <point x="466" y="195" type="curve" smooth="yes"/>
      <point x="499" y="305"/>
      <point x="532" y="499"/>
      <point x="527" y="578" type="curve"/>
      <point x="550" y="578"/>
      <point x="578" y="582"/>
      <point x="607" y="589" type="curve"/>
      <point x="566" y="478"/>
      <point x="530" y="328"/>
      <point x="501" y="215" type="curve" smooth="yes"/>
      <point x="467" y="82"/>
      <point x="406" y="-10"/>
      <point x="266" y="-12" type="curve"/>
      <point x="201" y="-14"/>
      <point x="52" y="11"/>
      <point x="70" y="216" type="curve" smooth="yes"/>
      <point x="83" y="363"/>
      <point x="91" y="494"/>
    </contour>
    <contour>
      <point x="456" y="744" type="curve"/>
      <point x="456" y="725"/>
      <point x="460" y="700"/>
      <point x="466" y="681" type="curve"/>
      <point x="396" y="668"/>
      <point x="346" y="657"/>
      <point x="277" y="637" type="curve"/>
      <point x="273" y="655" type="line"/>
      <point x="337" y="682"/>
      <point x="416" y="721"/>
    </contour>
  </outline>
</glyph>
<glyph name="Ucircumflex" format="1">
  <advance width="571"/>
  <unicode hex="00DB"/>
  <outline>
    <contour>
      <point x="88" y="582" type="curve"/>
      <point x="124" y="580"/>
      <point x="146" y="580"/>
      <point x="176" y="584" type="curve"/>
      <point x="156" y="490"/>
      <point x="138" y="310"/>
      <point x="138" y="188" type="curve" smooth="yes"/>
      <point x="139" y="51"/>
      <point x="238" y="20"/>
      <point x="279" y="20" type="curve" smooth="yes"/>
      <point x="384" y="20"/>
      <point x="435" y="91"/>
      <point x="466" y="195" type="curve" smooth="yes"/>
      <point x="499" y="305"/>
      <point x="532" y="499"/>
      <point x="527" y="578" type="curve"/>
      <point x="550" y="578"/>
      <point x="578" y="582"/>
      <point x="607" y="589" type="curve"/>
      <point x="566" y="478"/>
      <point x="530" y="328"/>
      <point x="501" y="215" type="curve" smooth="yes"/>
      <point x="467" y="82"/>
      <point x="406" y="-10"/>
      <point x="266" y="-12" type="curve"/>
      <point x="201" y="-14"/>
      <point x="52" y="11"/>
      <point x="70" y="216" type="curve" smooth="yes"/>
      <point x="83" y="363"/>
      <point x="91" y="494"/>
    </contour>
    <contour>
      <point x="262" y="637" type="curve"/>
      <point x="259" y="640"/>
      <point x="255" y="648"/>
      <point x="255" y="657" type="curve"/>
      <point x="292" y="678"/>
      <point x="326" y="699"/>
      <point x="380" y="734" type="curve"/>
      <point x="409" y="706"/>
      <point x="439" y="680"/>
      <point x="469" y="656" type="curve"/>
      <point x="465" y="648"/>
      <point x="461" y="643"/>
      <point x="454" y="639" type="curve"/>
      <point x="418" y="656"/>
      <point x="400" y="667"/>
      <point x="370" y="675" type="curve"/>
      <point x="335" y="667"/>
      <point x="306" y="654"/>
    </contour>
  </outline>
</glyph>
<glyph name="Udieresis" format="1">
  <advance width="571"/>
  <unicode hex="00DC"/>
  <outline>
    <contour>
      <point x="88" y="582" type="curve"/>
      <point x="124" y="580"/>
      <point x="146" y="580"/>
      <point x="176" y="584" type="curve"/>
      <point x="156" y="490"/>
      <point x="138" y="310"/>
      <point x="138" y="188" type="curve" smooth="yes"/>
      <point x="139" y="51"/>
      <point x="238" y="20"/>
      <point x="279" y="20" type="curve" smooth="yes"/>
      <point x="384" y="20"/>
      <point x="435" y="91"/>
      <point x="466" y="195" type="curve" smooth="yes"/>
      <point x="499" y="305"/>
      <point x="532" y="499"/>
      <point x="527" y="578" type="curve"/>
      <point x="550" y="578"/>
      <point x="578" y="582"/>
      <point x="607" y="589" type="curve"/>
      <point x="566" y="478"/>
      <point x="530" y="328"/>
      <point x="501" y="215" type="curve" smooth="yes"/>
      <point x="467" y="82"/>
      <point x="406" y="-10"/>
      <point x="266" y="-12" type="curve"/>
      <point x="201" y="-14"/>
      <point x="52" y="11"/>
      <point x="70" y="216" type="curve" smooth="yes"/>
      <point x="83" y="363"/>
      <point x="91" y="494"/>
    </contour>
    <contour>
      <point x="443" y="697" type="curve" smooth="yes"/>
      <point x="466" y="697"/>
      <point x="477" y="687"/>
      <point x="477" y="671" type="curve" smooth="yes"/>
      <point x="477" y="652"/>
      <point x="453" y="640"/>
      <point x="432" y="640" type="curve" smooth="yes"/>
      <point x="415" y="640"/>
      <point x="402" y="649"/>
      <point x="402" y="663" type="curve" smooth="yes"/>
      <point x="402" y="681"/>
      <point x="422" y="697"/>
    </contour>
    <contour>
      <point x="299" y="697" type="curve" smooth="yes"/>
      <point x="322" y="697"/>
      <point x="333" y="687"/>
      <point x="333" y="671" type="curve" smooth="yes"/>
      <point x="333" y="652"/>
      <point x="309" y="640"/>
      <point x="288" y="640" type="curve" smooth="yes"/>
      <point x="271" y="640"/>
      <point x="258" y="649"/>
      <point x="258" y="663" type="curve" smooth="yes"/>
      <point x="258" y="681"/>
      <point x="278" y="697"/>
    </contour>
  </outline>
</glyph>
<glyph name="Yacute" format="1">
  <advance width="454"/>
  <unicode hex="00DD"/>
  <outline>
    <contour>
      <point x="48" y="583" type="curve"/>
      <point x="97" y="579"/>
      <point x="120" y="579"/>
      <point x="161" y="583" type="curve"/>
      <point x="172" y="501"/>
      <point x="222" y="370"/>
      <point x="257" y="310" type="curve"/>
      <point x="334" y="395"/>
      <point x="398" y="497"/>
      <point x="429" y="578" type="curve"/>
      <point x="456" y="578"/>
      <point x="485" y="583"/>
      <point x="523" y="592" type="curve"/>
      <point x="416" y="482"/>
      <point x="354" y="390"/>
      <point x="266" y="275" type="curve"/>
      <point x="238" y="161"/>
      <point x="231" y="67"/>
      <point x="241" y="-1" type="curve"/>
      <point x="205" y="2"/>
      <point x="166" y="3"/>
      <point x="135" y="-1" type="curve"/>
      <point x="162" y="62"/>
      <point x="185" y="188"/>
      <point x="196" y="272" type="curve"/>
      <point x="175" y="351"/>
      <point x="92" y="533"/>
    </contour>
    <contour>
      <point x="400" y="744" type="curve"/>
      <point x="400" y="725"/>
      <point x="404" y="700"/>
      <point x="410" y="681" type="curve"/>
      <point x="340" y="668"/>
      <point x="290" y="657"/>
      <point x="221" y="637" type="curve"/>
      <point x="217" y="655" type="line"/>
      <point x="281" y="682"/>
      <point x="360" y="721"/>
    </contour>
  </outline>
</glyph>
<glyph name="Thorn" format="1">
  <advance width="493"/>
  <unicode hex="00DE"/>
  <outline>
    <contour>
      <point x="212" y="583" type="curve"/>
      <point x="202" y="554"/>
      <point x="191" y="512"/>
      <point x="181" y="463" type="curve"/>
      <point x="207" y="463"/>
      <point x="238" y="464"/>
      <point x="274" y="464" type="curve" smooth="yes"/>
      <point x="378" y="464"/>
      <point x="495" y="477"/>
      <point x="494" y="371" type="curve"/>
      <point x="492" y="274"/>
      <point x="409" y="195"/>
      <point x="218" y="141" type="curve" smooth="yes"/>
      <point x="215" y="141"/>
      <point x="211" y="162"/>
      <point x="212" y="166" type="curve"/>
      <point x="346" y="212"/>
      <point x="414" y="266"/>
      <point x="415" y="361" type="curve" smooth="yes"/>
      <point x="415" y="416"/>
      <point x="349" y="433"/>
      <point x="286" y="435" type="curve" smooth="yes"/>
      <point x="239" y="437"/>
      <point x="193" y="431"/>
      <point x="174" y="429" type="curve"/>
      <point x="144" y="274"/>
      <point x="117" y="70"/>
      <point x="117" y="-2" type="curve"/>
      <point x="99" y="-1"/>
      <point x="51" y="1"/>
      <point x="29" y="-2" type="curve"/>
      <point x="60" y="138"/>
      <point x="115" y="414"/>
      <point x="120" y="583" type="curve"/>
      <point x="146" y="580"/>
      <point x="187" y="579"/>
    </contour>
  </outline>
</glyph>
<glyph name="germandbls" format="1">
  <advance width="414"/>
  <unicode hex="00DF"/>
  <outline>
    <contour>
      <point x="363" y="698" type="curve"/>
      <point x="406" y="660"/>
      <point x="420" y="599"/>
      <point x="419" y="555" type="curve" smooth="yes"/>
      <point x="418" y="489"/>
      <point x="372" y="424"/>
      <point x="323" y="374" type="curve"/>
      <point x="356" y="348"/>
      <point x="382" y="287"/>
      <point x="382" y="238" type="curve" smooth="yes"/>
      <point x="381" y="131"/>
      <point x="285" y="-12"/>
      <point x="156" y="-3" type="curve"/>
      <point x="154" y="1"/>
      <point x="159" y="18"/>
      <point x="161" y="24" type="curve"/>
      <point x="265" y="21"/>
      <point x="317" y="116"/>
      <point x="320" y="211" type="curve"/>
      <point x="320" y="262"/>
      <point x="293" y="320"/>
      <point x="259" y="346" type="curve"/>
      <point x="311" y="389"/>
      <point x="365" y="456"/>
      <point x="367" y="525" type="curve" smooth="yes"/>
      <point x="368" y="568"/>
      <point x="350" y="627"/>
      <point x="320" y="656" type="curve"/>
      <point x="271" y="636"/>
      <point x="226" y="577"/>
      <point x="203" y="507" type="curve" smooth="yes"/>
      <point x="165" y="388"/>
      <point x="128" y="145"/>
      <point x="107" y="58" type="curve" smooth="yes"/>
      <point x="52" y="-176"/>
      <point x="-73" y="-278"/>
      <point x="-156" y="-278" type="curve" smooth="yes"/>
      <point x="-171" y="-278"/>
      <point x="-196" y="-268"/>
      <point x="-206" y="-258" type="curve"/>
      <point x="-205" y="-251"/>
      <point x="-201" y="-243"/>
      <point x="-197" y="-233" type="curve"/>
      <point x="-139" y="-273"/>
      <point x="-61" y="-208"/>
      <point x="-38" y="-173" type="curve" smooth="yes"/>
      <point x="7" y="-102"/>
      <point x="29" y="-42"/>
      <point x="49" y="57" type="curve" smooth="yes"/>
      <point x="66" y="141"/>
      <point x="98" y="311"/>
      <point x="103" y="350" type="curve"/>
      <point x="61" y="350" type="line"/>
      <point x="65" y="363"/>
      <point x="67" y="372"/>
      <point x="69" y="383" type="curve"/>
      <point x="78" y="383"/>
      <point x="96" y="382"/>
      <point x="110" y="382" type="curve"/>
      <point x="135" y="475"/>
      <point x="164" y="549"/>
      <point x="222" y="615" type="curve" smooth="yes"/>
      <point x="269" y="668"/>
      <point x="330" y="694"/>
    </contour>
  </outline>
</glyph>
<glyph name="aacute" format="1">
  <advance width="390"/>
  <unicode hex="00E1"/>
  <outline>
    <contour>
      <point x="382" y="384" type="curve"/>
      <point x="346" y="345"/>
      <point x="295" y="67"/>
      <point x="304" y="-1" type="curve"/>
      <point x="282" y="1"/>
      <point x="256" y="3"/>
      <point x="225" y="-2" type="curve"/>
      <point x="226" y="18"/>
      <point x="248" y="116"/>
      <point x="256" y="154" type="curve"/>
      <point x="201" y="114"/>
      <point x="118" y="39"/>
      <point x="63" y="-12" type="curve"/>
      <point x="42" y="2"/>
      <point x="27" y="47"/>
      <point x="27" y="95" type="curve" smooth="yes"/>
      <point x="27" y="185"/>
      <point x="72" y="285"/>
      <point x="146" y="339" type="curve" smooth="yes"/>
      <point x="198" y="376"/>
      <point x="246" y="384"/>
      <point x="270" y="385" type="curve" smooth="yes"/>
      <point x="314" y="386"/>
      <point x="348" y="385"/>
    </contour>
    <contour>
      <point x="299" y="360" type="curve"/>
      <point x="256" y="365"/>
      <point x="209" y="352"/>
      <point x="174" y="323" type="curve" smooth="yes"/>
      <point x="120" y="277"/>
      <point x="93" y="199"/>
      <point x="93" y="147" type="curve" smooth="yes"/>
      <point x="93" y="117"/>
      <point x="96" y="95"/>
      <point x="108" y="70" type="curve"/>
      <point x="138" y="91"/>
      <point x="246" y="174"/>
      <point x="266" y="193" type="curve"/>
      <point x="274" y="219"/>
      <point x="298" y="328"/>
    </contour>
    <contour>
      <point x="397" y="568" type="curve"/>
      <point x="397" y="549"/>
      <point x="401" y="524"/>
      <point x="407" y="505" type="curve"/>
      <point x="337" y="492"/>
      <point x="287" y="481"/>
      <point x="218" y="461" type="curve"/>
      <point x="214" y="479" type="line"/>
      <point x="278" y="506"/>
      <point x="357" y="545"/>
    </contour>
  </outline>
</glyph>
<glyph name="atilde" format="1">
  <advance width="390"/>
  <unicode hex="00E3"/>
  <outline>
    <contour>
      <point x="382" y="384" type="curve"/>
      <point x="346" y="345"/>
      <point x="295" y="67"/>
      <point x="304" y="-1" type="curve"/>
      <point x="282" y="1"/>
      <point x="256" y="3"/>
      <point x="225" y="-2" type="curve"/>
      <point x="226" y="18"/>
      <point x="248" y="116"/>
      <point x="256" y="154" type="curve"/>
      <point x="201" y="114"/>
      <point x="118" y="39"/>
      <point x="63" y="-12" type="curve"/>
      <point x="42" y="2"/>
      <point x="27" y="47"/>
      <point x="27" y="95" type="curve" smooth="yes"/>
      <point x="27" y="185"/>
      <point x="72" y="285"/>
      <point x="146" y="339" type="curve" smooth="yes"/>
      <point x="198" y="376"/>
      <point x="246" y="384"/>
      <point x="270" y="385" type="curve" smooth="yes"/>
      <point x="314" y="386"/>
      <point x="348" y="385"/>
    </contour>
    <contour>
      <point x="299" y="360" type="curve"/>
      <point x="256" y="365"/>
      <point x="209" y="352"/>
      <point x="174" y="323" type="curve" smooth="yes"/>
      <point x="120" y="277"/>
      <point x="93" y="199"/>
      <point x="93" y="147" type="curve" smooth="yes"/>
      <point x="93" y="117"/>
      <point x="96" y="95"/>
      <point x="108" y="70" type="curve"/>
      <point x="138" y="91"/>
      <point x="246" y="174"/>
      <point x="266" y="193" type="curve"/>
      <point x="274" y="219"/>
      <point x="298" y="328"/>
    </contour>
    <contour>
      <point x="311" y="474" type="curve" smooth="yes"/>
      <point x="295" y="474"/>
      <point x="260" y="492"/>
      <point x="244" y="493" type="curve"/>
      <point x="220" y="493"/>
      <point x="201" y="485"/>
      <point x="176" y="470" type="curve"/>
      <point x="167" y="486" type="line"/>
      <point x="198" y="511"/>
      <point x="249" y="543"/>
      <point x="270" y="542" type="curve" smooth="yes"/>
      <point x="289" y="542"/>
      <point x="319" y="526"/>
      <point x="339" y="525" type="curve"/>
      <point x="362" y="525"/>
      <point x="381" y="534"/>
      <point x="404" y="546" type="curve"/>
      <point x="414" y="530" type="line"/>
      <point x="377" y="500"/>
      <point x="332" y="474"/>
    </contour>
  </outline>
</glyph>
<glyph name="adieresis" format="1">
  <advance width="390"/>
  <unicode hex="00E4"/>
  <outline>
    <contour>
      <point x="382" y="384" type="curve"/>
      <point x="346" y="345"/>
      <point x="295" y="67"/>
      <point x="304" y="-1" type="curve"/>
      <point x="282" y="1"/>
      <point x="256" y="3"/>
      <point x="225" y="-2" type="curve"/>
      <point x="226" y="18"/>
      <point x="248" y="116"/>
      <point x="256" y="154" type="curve"/>
      <point x="201" y="114"/>
      <point x="118" y="39"/>
      <point x="63" y="-12" type="curve"/>
      <point x="42" y="2"/>
      <point x="27" y="47"/>
      <point x="27" y="95" type="curve" smooth="yes"/>
      <point x="27" y="185"/>
      <point x="72" y="285"/>
      <point x="146" y="339" type="curve" smooth="yes"/>
      <point x="198" y="376"/>
      <point x="246" y="384"/>
      <point x="270" y="385" type="curve" smooth="yes"/>
      <point x="314" y="386"/>
      <point x="348" y="385"/>
    </contour>
    <contour>
      <point x="299" y="360" type="curve"/>
      <point x="256" y="365"/>
      <point x="209" y="352"/>
      <point x="174" y="323" type="curve" smooth="yes"/>
      <point x="120" y="277"/>
      <point x="93" y="199"/>
      <point x="93" y="147" type="curve" smooth="yes"/>
      <point x="93" y="117"/>
      <point x="96" y="95"/>
      <point x="108" y="70" type="curve"/>
      <point x="138" y="91"/>
      <point x="246" y="174"/>
      <point x="266" y="193" type="curve"/>
      <point x="274" y="219"/>
      <point x="298" y="328"/>
    </contour>
    <contour>
      <point x="350" y="513" type="curve" smooth="yes"/>
      <point x="373" y="513"/>
      <point x="384" y="503"/>
      <point x="384" y="487" type="curve" smooth="yes"/>
      <point x="384" y="468"/>
      <point x="360" y="456"/>
      <point x="339" y="456" type="curve" smooth="yes"/>
      <point x="322" y="456"/>
      <point x="309" y="465"/>
      <point x="309" y="479" type="curve" smooth="yes"/>
      <point x="309" y="497"/>
      <point x="329" y="513"/>
    </contour>
    <contour>
      <point x="206" y="513" type="curve" smooth="yes"/>
      <point x="229" y="513"/>
      <point x="240" y="503"/>
      <point x="240" y="487" type="curve" smooth="yes"/>
      <point x="240" y="468"/>
      <point x="216" y="456"/>
      <point x="195" y="456" type="curve" smooth="yes"/>
      <point x="178" y="456"/>
      <point x="165" y="465"/>
      <point x="165" y="479" type="curve" smooth="yes"/>
      <point x="165" y="497"/>
      <point x="185" y="513"/>
    </contour>
  </outline>
</glyph>
<glyph name="aring" format="1">
  <advance width="390"/>
  <unicode hex="00E5"/>
  <outline>
    <contour>
      <point x="382" y="384" type="curve"/>
      <point x="346" y="345"/>
      <point x="295" y="67"/>
      <point x="304" y="-1" type="curve"/>
      <point x="282" y="1"/>
      <point x="256" y="3"/>
      <point x="225" y="-2" type="curve"/>
      <point x="226" y="18"/>
      <point x="248" y="116"/>
      <point x="256" y="154" type="curve"/>
      <point x="201" y="114"/>
      <point x="118" y="39"/>
      <point x="63" y="-12" type="curve"/>
      <point x="42" y="2"/>
      <point x="27" y="47"/>
      <point x="27" y="95" type="curve" smooth="yes"/>
      <point x="27" y="185"/>
      <point x="72" y="285"/>
      <point x="146" y="339" type="curve" smooth="yes"/>
      <point x="198" y="376"/>
      <point x="246" y="384"/>
      <point x="270" y="385" type="curve" smooth="yes"/>
      <point x="314" y="386"/>
      <point x="348" y="385"/>
    </contour>
    <contour>
      <point x="299" y="360" type="curve"/>
      <point x="256" y="365"/>
      <point x="209" y="352"/>
      <point x="174" y="323" type="curve" smooth="yes"/>
      <point x="120" y="277"/>
      <point x="93" y="199"/>
      <point x="93" y="147" type="curve" smooth="yes"/>
      <point x="93" y="117"/>
      <point x="96" y="95"/>
      <point x="108" y="70" type="curve"/>
      <point x="138" y="91"/>
      <point x="246" y="174"/>
      <point x="266" y="193" type="curve"/>
      <point x="274" y="219"/>
      <point x="298" y="328"/>
    </contour>
    <contour>
      <point x="293" y="561" type="curve" smooth="yes"/>
      <point x="335" y="561"/>
      <point x="369" y="547"/>
      <point x="369" y="519" type="curve" smooth="yes"/>
      <point x="369" y="464"/>
      <point x="294" y="443"/>
      <point x="245" y="444" type="curve" smooth="yes"/>
      <point x="204" y="445"/>
      <point x="179" y="460"/>
      <point x="179" y="491" type="curve" smooth="yes"/>
      <point x="179" y="531"/>
      <point x="241" y="561"/>
    </contour>
    <contour>
      <point x="284" y="538" type="curve" smooth="yes"/>
      <point x="259" y="538"/>
      <point x="226" y="522"/>
      <point x="226" y="497" type="curve" smooth="yes"/>
      <point x="226" y="479"/>
      <point x="239" y="467"/>
      <point x="262" y="467" type="curve" smooth="yes"/>
      <point x="294" y="467"/>
      <point x="320" y="484"/>
      <point x="320" y="512" type="curve" smooth="yes"/>
      <point x="320" y="529"/>
      <point x="303" y="538"/>
    </contour>
  </outline>
</glyph>
<glyph name="ae" format="1">
  <advance width="555"/>
  <unicode hex="00E6"/>
  <outline>
    <contour>
      <point x="475" y="392" type="curve" smooth="yes"/>
      <point x="499" y="392"/>
      <point x="537" y="376"/>
      <point x="537" y="331" type="curve" smooth="yes"/>
      <point x="537" y="305"/>
      <point x="520" y="281"/>
      <point x="501" y="262" type="curve" smooth="yes"/>
      <point x="469" y="229"/>
      <point x="415" y="217"/>
      <point x="362" y="216" type="curve" smooth="yes"/>
      <point x="353" y="216"/>
      <point x="339" y="217"/>
      <point x="330" y="220" type="curve"/>
      <point x="316" y="160"/>
      <point x="327" y="81"/>
      <point x="370" y="40" type="curve"/>
      <point x="394" y="50"/>
      <point x="469" y="100"/>
      <point x="494" y="117" type="curve"/>
      <point x="501" y="110"/>
      <point x="506" y="104"/>
      <point x="509" y="94" type="curve"/>
      <point x="478" y="74"/>
      <point x="377" y="7"/>
      <point x="335" y="-22" type="curve"/>
      <point x="289" y="2"/>
      <point x="256" y="90"/>
      <point x="261" y="156" type="curve"/>
      <point x="206" y="116"/>
      <point x="118" y="39"/>
      <point x="63" y="-12" type="curve"/>
      <point x="42" y="2"/>
      <point x="27" y="47"/>
      <point x="27" y="95" type="curve" smooth="yes"/>
      <point x="27" y="185"/>
      <point x="79" y="285"/>
      <point x="142" y="337" type="curve" smooth="yes"/>
      <point x="187" y="374"/>
      <point x="246" y="384"/>
      <point x="270" y="385" type="curve"/>
      <point x="314" y="385"/>
      <point x="339" y="385"/>
      <point x="373" y="384" type="curve"/>
      <point x="366" y="376"/>
      <point x="359" y="355"/>
      <point x="355" y="335" type="curve"/>
      <point x="389" y="370"/>
      <point x="435" y="392"/>
    </contour>
    <contour>
      <point x="300" y="357" type="curve"/>
      <point x="256" y="362"/>
      <point x="209" y="351"/>
      <point x="174" y="322" type="curve"/>
      <point x="120" y="275"/>
      <point x="93" y="199"/>
      <point x="93" y="147" type="curve" smooth="yes"/>
      <point x="93" y="117"/>
      <point x="96" y="95"/>
      <point x="108" y="70" type="curve"/>
      <point x="138" y="91"/>
      <point x="246" y="174"/>
      <point x="266" y="193" type="curve"/>
      <point x="274" y="219"/>
      <point x="299" y="325"/>
    </contour>
    <contour>
      <point x="441" y="354" type="curve" smooth="yes"/>
      <point x="395" y="354"/>
      <point x="347" y="289"/>
      <point x="335" y="245" type="curve"/>
      <point x="384" y="233"/>
      <point x="478" y="255"/>
      <point x="478" y="320" type="curve" smooth="yes"/>
      <point x="478" y="341"/>
      <point x="465" y="354"/>
    </contour>
  </outline>
</glyph>
<glyph name="eacute" format="1">
  <advance width="324"/>
  <unicode hex="00E9"/>
  <outline>
    <contour>
      <point x="244" y="392" type="curve" smooth="yes"/>
      <point x="268" y="392"/>
      <point x="305" y="376"/>
      <point x="305" y="331" type="curve" smooth="yes"/>
      <point x="305" y="305"/>
      <point x="289" y="281"/>
      <point x="270" y="262" type="curve" smooth="yes"/>
      <point x="237" y="229"/>
      <point x="184" y="217"/>
      <point x="131" y="216" type="curve" smooth="yes"/>
      <point x="122" y="216"/>
      <point x="107" y="217"/>
      <point x="98" y="220" type="curve"/>
      <point x="85" y="160"/>
      <point x="96" y="81"/>
      <point x="139" y="40" type="curve"/>
      <point x="162" y="50"/>
      <point x="238" y="100"/>
      <point x="263" y="117" type="curve"/>
      <point x="270" y="110"/>
      <point x="273" y="106"/>
      <point x="275" y="96" type="curve"/>
      <point x="103" y="-22" type="line"/>
      <point x="63" y="-1"/>
      <point x="30" y="72"/>
      <point x="30" y="134" type="curve" smooth="yes"/>
      <point x="30" y="252"/>
      <point x="138" y="392"/>
    </contour>
    <contour>
      <point x="210" y="354" type="curve" smooth="yes"/>
      <point x="163" y="354"/>
      <point x="116" y="289"/>
      <point x="103" y="245" type="curve"/>
      <point x="152" y="233"/>
      <point x="246" y="255"/>
      <point x="246" y="320" type="curve" smooth="yes"/>
      <point x="246" y="341"/>
      <point x="234" y="354"/>
    </contour>
    <contour>
      <point x="332" y="568" type="curve"/>
      <point x="332" y="549"/>
      <point x="336" y="524"/>
      <point x="342" y="505" type="curve"/>
      <point x="272" y="492"/>
      <point x="222" y="481"/>
      <point x="153" y="461" type="curve"/>
      <point x="149" y="479" type="line"/>
      <point x="213" y="506"/>
      <point x="292" y="545"/>
    </contour>
  </outline>
</glyph>
<glyph name="ecircumflex" format="1">
  <advance width="324"/>
  <unicode hex="00EA"/>
  <outline>
    <contour>
      <point x="244" y="392" type="curve" smooth="yes"/>
      <point x="268" y="392"/>
      <point x="305" y="376"/>
      <point x="305" y="331" type="curve" smooth="yes"/>
      <point x="305" y="305"/>
      <point x="289" y="281"/>
      <point x="270" y="262" type="curve" smooth="yes"/>
      <point x="237" y="229"/>
      <point x="184" y="217"/>
      <point x="131" y="216" type="curve" smooth="yes"/>
      <point x="122" y="216"/>
      <point x="107" y="217"/>
      <point x="98" y="220" type="curve"/>
      <point x="85" y="160"/>
      <point x="96" y="81"/>
      <point x="139" y="40" type="curve"/>
      <point x="162" y="50"/>
      <point x="238" y="100"/>
      <point x="263" y="117" type="curve"/>
      <point x="270" y="110"/>
      <point x="273" y="106"/>
      <point x="275" y="96" type="curve"/>
      <point x="103" y="-22" type="line"/>
      <point x="63" y="-1"/>
      <point x="30" y="72"/>
      <point x="30" y="134" type="curve" smooth="yes"/>
      <point x="30" y="252"/>
      <point x="138" y="392"/>
    </contour>
    <contour>
      <point x="210" y="354" type="curve" smooth="yes"/>
      <point x="163" y="354"/>
      <point x="116" y="289"/>
      <point x="103" y="245" type="curve"/>
      <point x="152" y="233"/>
      <point x="246" y="255"/>
      <point x="246" y="320" type="curve" smooth="yes"/>
      <point x="246" y="341"/>
      <point x="234" y="354"/>
    </contour>
    <contour>
      <point x="131" y="454" type="curve"/>
      <point x="128" y="457"/>
      <point x="124" y="465"/>
      <point x="124" y="474" type="curve"/>
      <point x="161" y="495"/>
      <point x="195" y="516"/>
      <point x="249" y="551" type="curve"/>
      <point x="278" y="523"/>
      <point x="308" y="497"/>
      <point x="338" y="473" type="curve"/>
      <point x="334" y="465"/>
      <point x="330" y="460"/>
      <point x="323" y="456" type="curve"/>
      <point x="287" y="473"/>
      <point x="269" y="484"/>
      <point x="239" y="492" type="curve"/>
      <point x="204" y="484"/>
      <point x="175" y="471"/>
    </contour>
  </outline>
</glyph>
<glyph name="edieresis" format="1">
  <advance width="324"/>
  <unicode hex="00EB"/>
  <outline>
    <contour>
      <point x="244" y="392" type="curve" smooth="yes"/>
      <point x="268" y="392"/>
      <point x="305" y="376"/>
      <point x="305" y="331" type="curve" smooth="yes"/>
      <point x="305" y="305"/>
      <point x="289" y="281"/>
      <point x="270" y="262" type="curve" smooth="yes"/>
      <point x="237" y="229"/>
      <point x="184" y="217"/>
      <point x="131" y="216" type="curve" smooth="yes"/>
      <point x="122" y="216"/>
      <point x="107" y="217"/>
      <point x="98" y="220" type="curve"/>
      <point x="85" y="160"/>
      <point x="96" y="81"/>
      <point x="139" y="40" type="curve"/>
      <point x="162" y="50"/>
      <point x="238" y="100"/>
      <point x="263" y="117" type="curve"/>
      <point x="270" y="110"/>
      <point x="273" y="106"/>
      <point x="275" y="96" type="curve"/>
      <point x="103" y="-22" type="line"/>
      <point x="63" y="-1"/>
      <point x="30" y="72"/>
      <point x="30" y="134" type="curve" smooth="yes"/>
      <point x="30" y="252"/>
      <point x="138" y="392"/>
    </contour>
    <contour>
      <point x="210" y="354" type="curve" smooth="yes"/>
      <point x="163" y="354"/>
      <point x="116" y="289"/>
      <point x="103" y="245" type="curve"/>
      <point x="152" y="233"/>
      <point x="246" y="255"/>
      <point x="246" y="320" type="curve" smooth="yes"/>
      <point x="246" y="341"/>
      <point x="234" y="354"/>
    </contour>
    <contour>
      <point x="308" y="513" type="curve" smooth="yes"/>
      <point x="331" y="513"/>
      <point x="342" y="503"/>
      <point x="342" y="487" type="curve" smooth="yes"/>
      <point x="342" y="468"/>
      <point x="318" y="456"/>
      <point x="297" y="456" type="curve" smooth="yes"/>
      <point x="280" y="456"/>
      <point x="267" y="465"/>
      <point x="267" y="479" type="curve" smooth="yes"/>
      <point x="267" y="497"/>
      <point x="287" y="513"/>
    </contour>
    <contour>
      <point x="164" y="513" type="curve" smooth="yes"/>
      <point x="187" y="513"/>
      <point x="198" y="503"/>
      <point x="198" y="487" type="curve" smooth="yes"/>
      <point x="198" y="468"/>
      <point x="174" y="456"/>
      <point x="153" y="456" type="curve" smooth="yes"/>
      <point x="136" y="456"/>
      <point x="123" y="465"/>
      <point x="123" y="479" type="curve" smooth="yes"/>
      <point x="123" y="497"/>
      <point x="143" y="513"/>
    </contour>
  </outline>
</glyph>
<glyph name="iacute" format="1">
  <advance width="176"/>
  <unicode hex="00ED"/>
  <outline>
    <contour>
      <point x="255" y="570" type="curve"/>
      <point x="256" y="552"/>
      <point x="260" y="527"/>
      <point x="266" y="509" type="curve"/>
      <point x="196" y="493"/>
      <point x="146" y="480"/>
      <point x="79" y="458" type="curve"/>
      <point x="74" y="475" type="line"/>
      <point x="136" y="505"/>
      <point x="215" y="547"/>
    </contour>
    <contour>
      <point x="9" y="0" type="curve"/>
      <point x="42" y="93"/>
      <point x="82" y="308"/>
      <point x="86" y="385" type="curve"/>
      <point x="110" y="382"/>
      <point x="139" y="381"/>
      <point x="167" y="387" type="curve"/>
      <point x="137" y="321"/>
      <point x="96" y="62"/>
      <point x="99" y="-2" type="curve"/>
      <point x="75" y="6"/>
      <point x="22" y="1"/>
    </contour>
  </outline>
</glyph>
<glyph name="icircumflex" format="1">
  <advance width="176"/>
  <unicode hex="00EE"/>
  <outline>
    <contour>
      <point x="9" y="0" type="curve"/>
      <point x="42" y="93"/>
      <point x="82" y="308"/>
      <point x="86" y="385" type="curve"/>
      <point x="110" y="382"/>
      <point x="139" y="381"/>
      <point x="167" y="387" type="curve"/>
      <point x="137" y="321"/>
      <point x="96" y="62"/>
      <point x="99" y="-2" type="curve"/>
      <point x="75" y="6"/>
      <point x="22" y="1"/>
    </contour>
    <contour>
      <point x="41" y="454" type="curve"/>
      <point x="38" y="457"/>
      <point x="34" y="465"/>
      <point x="34" y="474" type="curve"/>
      <point x="71" y="495"/>
      <point x="105" y="516"/>
      <point x="159" y="551" type="curve"/>
      <point x="188" y="523"/>
      <point x="218" y="497"/>
      <point x="248" y="473" type="curve"/>
      <point x="244" y="465"/>
      <point x="240" y="460"/>
      <point x="233" y="456" type="curve"/>
      <point x="197" y="473"/>
      <point x="179" y="484"/>
      <point x="149" y="492" type="curve"/>
      <point x="114" y="484"/>
      <point x="85" y="471"/>
    </contour>
  </outline>
</glyph>
<glyph name="idieresis" format="1">
  <advance width="176"/>
  <unicode hex="00EF"/>
  <outline>
    <contour>
      <point x="215" y="514" type="curve" smooth="yes"/>
      <point x="237" y="514"/>
      <point x="249" y="504"/>
      <point x="249" y="488" type="curve" smooth="yes"/>
      <point x="249" y="469"/>
      <point x="225" y="457"/>
      <point x="203" y="457" type="curve" smooth="yes"/>
      <point x="186" y="457"/>
      <point x="174" y="466"/>
      <point x="174" y="480" type="curve" smooth="yes"/>
      <point x="174" y="498"/>
      <point x="194" y="514"/>
    </contour>
    <contour>
      <point x="82" y="514" type="curve" smooth="yes"/>
      <point x="105" y="514"/>
      <point x="117" y="504"/>
      <point x="117" y="488" type="curve" smooth="yes"/>
      <point x="117" y="469"/>
      <point x="92" y="457"/>
      <point x="71" y="457" type="curve" smooth="yes"/>
      <point x="54" y="457"/>
      <point x="42" y="466"/>
      <point x="42" y="480" type="curve" smooth="yes"/>
      <point x="42" y="498"/>
      <point x="62" y="514"/>
    </contour>
    <contour>
      <point x="9" y="0" type="curve"/>
      <point x="42" y="93"/>
      <point x="82" y="308"/>
      <point x="86" y="385" type="curve"/>
      <point x="110" y="382"/>
      <point x="139" y="381"/>
      <point x="167" y="387" type="curve"/>
      <point x="137" y="321"/>
      <point x="96" y="62"/>
      <point x="99" y="-2" type="curve"/>
      <point x="75" y="6"/>
      <point x="22" y="1"/>
    </contour>
  </outline>
</glyph>
<glyph name="eth" format="1">
  <advance width="375"/>
  <unicode hex="00F0"/>
  <outline>
    <contour>
      <point x="107" y="512" type="curve"/>
      <point x="164" y="529"/>
      <point x="232" y="548"/>
      <point x="292" y="568" type="curve"/>
      <point x="266" y="629"/>
      <point x="211" y="677"/>
      <point x="122" y="673" type="curve"/>
      <point x="122" y="681"/>
      <point x="122" y="685"/>
      <point x="125" y="692" type="curve"/>
      <point x="252" y="701"/>
      <point x="318" y="648"/>
      <point x="349" y="587" type="curve"/>
      <point x="367" y="593"/>
      <point x="384" y="598"/>
      <point x="398" y="604" type="curve"/>
      <point x="403" y="595"/>
      <point x="403" y="590"/>
      <point x="402" y="579" type="curve"/>
      <point x="387" y="574"/>
      <point x="372" y="571"/>
      <point x="358" y="566" type="curve"/>
      <point x="371" y="531"/>
      <point x="375" y="495"/>
      <point x="373" y="469" type="curve" smooth="yes"/>
      <point x="371" y="442"/>
      <point x="370" y="413"/>
      <point x="367" y="380" type="curve" smooth="yes"/>
      <point x="354" y="192"/>
      <point x="250" y="60"/>
      <point x="87" y="-18" type="curve"/>
      <point x="45" y="22"/>
      <point x="30" y="91"/>
      <point x="30" y="143" type="curve" smooth="yes"/>
      <point x="31" y="300"/>
      <point x="151" y="382"/>
      <point x="235" y="382" type="curve" smooth="yes"/>
      <point x="264" y="382"/>
      <point x="293" y="382"/>
      <point x="305" y="381" type="curve"/>
      <point x="307" y="405"/>
      <point x="310" y="428"/>
      <point x="311" y="450" type="curve"/>
      <point x="314" y="481"/>
      <point x="310" y="516"/>
      <point x="300" y="547" type="curve"/>
      <point x="244" y="531"/>
      <point x="186" y="512"/>
      <point x="113" y="489" type="curve"/>
      <point x="106" y="496"/>
      <point x="106" y="506"/>
    </contour>
    <contour>
      <point x="302" y="352" type="curve"/>
      <point x="283" y="357"/>
      <point x="256" y="357"/>
      <point x="233" y="357" type="curve" smooth="yes"/>
      <point x="157" y="357"/>
      <point x="87" y="280"/>
      <point x="87" y="176" type="curve" smooth="yes"/>
      <point x="87" y="134"/>
      <point x="96" y="79"/>
      <point x="132" y="36" type="curve"/>
      <point x="192" y="68"/>
      <point x="250" y="135"/>
      <point x="276" y="221" type="curve" smooth="yes"/>
      <point x="283" y="241"/>
      <point x="299" y="300"/>
    </contour>
  </outline>
</glyph>
